<mxfile host="app.diagrams.net" modified="2022-10-31T12:08:22.769Z" agent="5.0 (Windows NT 10.0; Win64; x64) AppleWebKit/537.36 (KHTML, like Gecko) Chrome/107.0.0.0 Safari/537.36 Edg/107.0.1418.26" etag="yhxforLm9lhOliRdUqT9" version="20.5.1" type="github">
  <diagram id="rW0ENx9uc_LldSe4VmPT" name="第 1 页">
    <mxGraphModel dx="1422" dy="762" grid="1" gridSize="10" guides="1" tooltips="1" connect="1" arrows="1" fold="1" page="1" pageScale="1" pageWidth="827" pageHeight="1169" math="0" shadow="0">
      <root>
        <mxCell id="0" />
        <mxCell id="1" parent="0" />
        <mxCell id="vbeuC_v3QueVd4-8y7Fi-6" style="edgeStyle=orthogonalEdgeStyle;rounded=0;orthogonalLoop=1;jettySize=auto;html=1;exitX=0.92;exitY=0.5;exitDx=0;exitDy=0;exitPerimeter=0;entryX=0;entryY=0.459;entryDx=0;entryDy=0;entryPerimeter=0;" edge="1" parent="1" source="vbeuC_v3QueVd4-8y7Fi-2" target="vbeuC_v3QueVd4-8y7Fi-5">
          <mxGeometry relative="1" as="geometry" />
        </mxCell>
        <mxCell id="vbeuC_v3QueVd4-8y7Fi-2" value="" style="verticalLabelPosition=bottom;html=1;verticalAlign=top;align=center;strokeColor=none;fillColor=#00BEF2;shape=mxgraph.azure.laptop;pointerEvents=1;" vertex="1" parent="1">
          <mxGeometry x="59.34" y="330" width="83.33" height="50" as="geometry" />
        </mxCell>
        <mxCell id="vbeuC_v3QueVd4-8y7Fi-3" value="" style="verticalLabelPosition=bottom;html=1;verticalAlign=top;align=center;strokeColor=none;fillColor=#00BEF2;shape=mxgraph.azure.computer;pointerEvents=1;" vertex="1" parent="1">
          <mxGeometry x="67.67" y="250" width="66.67" height="60" as="geometry" />
        </mxCell>
        <mxCell id="vbeuC_v3QueVd4-8y7Fi-4" value="" style="verticalLabelPosition=bottom;html=1;verticalAlign=top;align=center;strokeColor=none;fillColor=#00BEF2;shape=mxgraph.azure.mobile;pointerEvents=1;" vertex="1" parent="1">
          <mxGeometry x="80" y="410" width="42" height="60" as="geometry" />
        </mxCell>
        <mxCell id="vbeuC_v3QueVd4-8y7Fi-56" style="edgeStyle=orthogonalEdgeStyle;rounded=0;orthogonalLoop=1;jettySize=auto;html=1;exitX=1;exitY=0.5;exitDx=0;exitDy=0;entryX=0;entryY=0.515;entryDx=0;entryDy=0;entryPerimeter=0;" edge="1" parent="1" source="vbeuC_v3QueVd4-8y7Fi-5" target="vbeuC_v3QueVd4-8y7Fi-14">
          <mxGeometry relative="1" as="geometry" />
        </mxCell>
        <mxCell id="vbeuC_v3QueVd4-8y7Fi-5" value="" style="rounded=1;whiteSpace=wrap;html=1;" vertex="1" parent="1">
          <mxGeometry x="190" y="270" width="70" height="185" as="geometry" />
        </mxCell>
        <mxCell id="vbeuC_v3QueVd4-8y7Fi-7" value="" style="shape=image;verticalLabelPosition=bottom;labelBackgroundColor=default;verticalAlign=top;aspect=fixed;imageAspect=0;image=data:image/png,iVBORw0KGgoAAAANSUhEUgAAAYkAAAFjCAYAAADIAvdZAAAgAElEQVR4nOy9d5AcV57f+Xkvs6q9b7RvoGEIS8IToAH90HM4w5nRzmqddKu9W0kXF+fipH8uFKM/Li50J8WFThdxETI3WmlnR7MzuzOcoR3aoQEJkiBBgiC8R6Mb7dC+y+V790eW7y4ADaC7srp/H8YLsKsrK39dmfm+z/yMstZaBEEQBGEOdLENEARBEIKLiIQgCIJQEBEJQRAEoSAiEoIgCEJBRCQEQRCEgohICIIgCAURkRAEQRAKIiIhCIIgFEREQhAEQSiIiIQgCIJQEBEJQRAEoSAiEoIgCEJBRCQEQRCEgohICIIgCAURkRAEQRAKIiIhCIIgFEREQhAEQSiIiIQgCIJQEBEJQRAEoSAiEoIgCEJBRCQEQRCEgohICIIgCAVxi22AsLh4xjCTiDIRnyHqxTHW+L9QADbrnYqQdnGVjCNKDYMl5iWwWMqdMEopyp0w1aFyQloeeWF+yB2zjIh7Cb65ep6Ph45yZPwSV2auMu1FsRZ0lj4YBUpZ6sJV1IQqrvu5yub+C2CVxaobtUylDpr9oTfNfI5fOudXFmImztXYFFGToLOqmZAO0VHewM76NWxvXEtrZQNK3fDFEZY5ylp7q0+DUAIYazg8fI5/cfhnfDF2mvHEDNPWn0novDvAKL+5ysHVTsHPTB2nMek+TVv/WKsMpkA/lJy7YJOrnQrQVuccn39svoj5x5M83qTXTdPHp8+SsnHpnX+u32sLCZUgajwsljInjIOiQpfRVd7Ioyu28UdrHmVdfSdaZonCDSAziWXCeGya/+fYi7w7cJi4SQDgwNwiYMEzFrB4JAp+Zmp44SmTN/D1u8FCM4lMJ5vppPzVrrk7LW3Bm+v49Ocbck+V10EXOr7Ez5+Nl/VelMFVyv9UL4EHTBLneGSKS1MjGAX//abvsqKibs7zCUI2IhLLAGstvzj/Pm/1H0wLBFbjWFDJ8XB+h369+WXO261G2+yOUYMyc664GMCxYJOj2FSHp01uB5nfD6ZGykYljwewqeM1mtzzKzv3SH5JnX8OUmLjJM+fOwNRjMen+cW5D7mrdjXf6bmHcjdc4JMEwUfmm8uAs5P9/Ozsm4zFp/AUeEpjVWpZqPCI/7ZidXKknGoLjc5ty+78s+3RFso8zfjUOP/56BucHL2UcVwQhAKISCxxIokovz7/IWfH+mfthVolHcRyQlt/Y1sDpyZ6+c35j7kanSy2WULAEZFYwhhrODVyif0XDzMVjaGti7Ykl4ZEIJYXJj1z9DRcNRO80vsJnw+fJGG86x8uLFtEJJYwk9Fp3r1wkOMjF33vGatRGH+/INVughtanSqwCZuPtrPX4+eDznPfXW7HzxejDEYZPG04NXWJX118n6GZ0cUzQCg5ZON6iWKs4cx4H29d/oqxRBTjOFhtkvsPKXHQGOuPIvP3JdR1xg+zO7bc9xtlcl/L//x8Ecn/OU/A8j16ZgnVLFG6zvE3KGIlc/5Z5G6M530aKEtMx/lt/0fsa97M91c/StiR7kCYjcwklijT8Si/vvAJRyf6SShVuLMQlifKoK3hamyCf3fq15wcv1hsi4SAIiKxRPn66gV+O/g1I0SJO5n1aJ9ietkIQcAxJu0ue3z8Mj89+RaRRKzYZgkBRHqJJch4bJq/vfQJx6evEHc8PG2SnkwycxBSaLTRKKtJePB67+d81ne02EYJAUREYgny5dAZ3u3/kog3jSKBLw55G9XJjWyL39J+/Gl//ttNXtzAgpN/vuV2/rmxyh8wGDQGF23CaOPSPz3BX5/5gMvjg0WzTQgmIhJLjJGZcX7X9yUXp/r8KOBb9GQSljIabV2wLjEs+4eO807fV7LsJOQgIrGEiHlxDg4e542+g8RNFGeO5H23i1QSukJt3igRtMVAWX+JSeMnFTT4IqEt9EXH+GXvAY6MnMczcg0EHxGJJYK1lsvTw7zc+wlnp/uBxfW/F0oJncy3BWAw2ndsiBHns7EzvN7/BcORcSRBtAAiEkuGiBfni6unOXD1BNMma7kgf6+h4J7DQq+Zm+s0YbExSWcGoxIYlcAqw0R8krf6D3Fo5EwmGaSwrBGRWAJYa7k8M8ybfZ9zYTqz8XjLdXOEJY/R2ct7BmsTnBi/xKu9B+mflkhsQURiSRAzCQ4Nn2J//1fE4on0TMEqFmyN316nzR+ZWSwmRmlMdtEhZZLFj2AmHuGdvq/Yf+UoMU9mE8sdEYklwEhsgtcvfsrQxEgy0+dCubEKSx1lNQronRrkJ2ffZSAyVmyThCIjPckS4NULn/D2hU/BqtzN6msKxXX2IBY8bkIIItoCVmOU5YORo/zF+XfEJXaZI09/iTMWneQ/HXuNqImn025o6yeAk1L3wnxJVes2yuCR4C/Pv803V88X2SqhmIhIlDCeMfzq5PucHr+Mp8FLiQSZFNSyeS3MF6v8e8cxhuGJQX584mVGZmTZabkiIlHCHB+5wF+feReLLxAJnVUzWcRBuAmyU8Y7FkhE+aD/K97p/UKKEy1TRCRKlOl4hN9c+JhTU1fmiHI2Wa/p9GZkbjPXbNeLgJ79ebnt+rmLgpnbaLmTvv7pfF4OVyIT/O25/ZwZvSwBdssQeRpLEM8YPho4xuv9XzBhZmYVDLqptBiCMCcaz8InQyd45dwnjEenim2QsMiISJQgVyKjvNF3iHMTV/CUxai5y2DKkpNwK1ilsdoB5RCJx/ntxYMcGT4neZ2WGSISJUbUi/PFyBkODBxnxosW2xxhiWOTXYTFcmbyCq9ePsiwbGIvK0QkSozByBhvXPqCcxP9kLM+nLuWf9PZWAUhC2stHpa4NgyrKV4eOMhbfYdkNrGMEJEoIRLG45PBExwYOMp0YkaSVwiLglWQUJaEspyeusIvevdzdqKv2GYJi4SIRAnRPzPCS70fcXb68q3XbxCEa1IgW68xfDbwDa9d+oTJ2ExRLRQWBxGJEiFuEnw48DXvX/mSBAkpzCMsOr5zhGEyEeHFCx9xaPiUxE4sA0QkSgBrLZcmB3np0n5Go5OZKGpl5vRqEoT5c50svOl4GT9+4uTEZV7v/ZQr0yMSO7HEEZEoASJejA+ufM3Hg0eTr0g6baE4pAYkk/Eob/V/yadDx4l4kgBwKSMiEXCMNZyfGOTl3k8Zi0eA7NxMwa2/IDOcEicv4l4l84CprHxg5yYG+E3vJ1yaGsLY4N2Dwu1BRCLgRBJx3un9ksOD57HGd3M1aNmwFhaZfBHQxIzh/f4jvHvlMBEvXhSrhIVHRCLAWGs5M9LLe2cPMTM5Q1k8jDYuVoGnfddEv7qYXMZSJ7+in1UGGyDnBKs0VpFuKYaj4/ynU29wbPRi8YwTFhTpXQLMZGyG3507xMmhi2jjJ+qD7Jz/xbTu5pjVGS7j5qlMy/k+AiQOc5FabtLWzxR7duQSf3n8DeJS6nRJ4hbbAGFurLWcGr7A6+cOMOFN4zk6OXMotbV+g1V+x2IVxJPDklCyH/SW8bJZTlr3gns4KcEo7ngu7VGXJRDKQpkHIc/w9omP+LjzXh7o2V40G4WFQUQioEzHI7xyZj+nxy/hOYqEBk/njjBVQDeHb8SmlNipAu9PvX4tAbnWaQJ/vNXovPTu4FeEAx3I6zqLrBnPTCLKj79+hTuaummraSqiUcLtRkQioHw5eJLfXPyQqOsR1xqbEgiVzPdv8zqS/DrURVqymN25abB+h6osVBiNVhqFP73QnkUbm9xb8ZdalAXHJP++5N+RWmJL/11WJ9fGU51rwI9PCUL6OvnxBp42GGWJai8pEPnvWyz0NX4i83cr/w+xWJRVxBUkHNBW8fHkKX5+4X3+643PUO6EF95kYVEQkQggk7EZfnLiNQYTYyQc7Tu5Jqv5pEanJTHSTOIoTVNZHRuru9hc2U5XRTN1ZVUYzzA8Ncp0LJLMVaiwyvpuluSWXk1tlmZeSve6OT8H/fjsH1KvTasEx2JX+HryIkOxUby0O2mw9yZyPOwsDKhp/rb/I7Y3r+O+FZtxtGx5LgVEJAJGwni8efFT9g8cI4YBpbE5nUXQO47MGrq2UK5cNtT38AdrH+O73XtoLK8pqn1BZTw6zYsXP+M/nnqTI1fPkyCe3Mfxv89S2LYx1nB8/DIv9R5gXXU7bZWNKFUKlgvXQqQ+QFhruTQ1yEvnP2ZoZtR3O8QfrfmdRbAFIh+rFKuq2vmTtY/xvVX3iEBcg9qySr63ag9/vu5J1lZ3JpezfPfmUulmtYVILMJ7/Uc4MHCcqMROLAlEJALEZHyG9/sP8+XIaeJZdaptslZ16nIFeakpFWmtraE6VMEDHVt5tH0bdaHKYpsWeKpC5TzRtZ3nunZSVVaR9gSDIESwzx2Pk77eGBwLjlFcnhjg1UufcGFiQPI6LQFEJAKCtZbzk/28cekz+qNjWNfBs3ZW/epSYn1VG0937KRdlh1umLqySr7Xcw876nr8zf0SQ1uIJWJ8OnCMd/sOSV6nJYCIRECYjM/w0eBRDo+eI0o8HdlqlEm2XHfKTC2J5O+0yWmLTc5IVxkqHZeHWreyq/kO2cCcB0op1tV18MdrHqLJSc6+rM7xdrLKzApKLBb5dU1SKWMGIqO8fOEjjkskdskjT28A8IzHN6Pneenix/RGRm6imFAw9ipMMl2IAdbWdPIn6x+nKlRebLNKDkdrnujayQ+670FblQ6i9AnGtS6Exk9fb0hwaPg4vz73PqORyWKbJdwCIhIBYCIxw/sDhzly9ayfTTM1crQao1ItJRw66ZPvb2Rn8umYnLbYGAXGWqJ4OE6YP1r3OB1VzYtux1KhOlTBn9zxGD1VLf4LyWuainRWJONlApQFOLUXpUgAhjiGly58xMHB45Kyo4QRkSgy1lqOjV3krd5PGY+OoW1qg7D0EvcZBQkNe1Zs5qmuvbIPcQsopVhd08YP1zxEtevPxrT1R+muCcJG9myM8pc6M4MV6Ite5RdnP6BPihOVLKXVCy1BphNRXuv7gq+HTxO2CseAthqHEA4OOhm5m98pZLJxmtxI3fTvizOzaAk38F+te4Lm8tpFO+dSpcIt4/HOHexu3kgo6QrrWJNsqXsiGIMJPzGhP6dJKJ1sEMGyf+gYv+v7hkhCNrFLkeLfXcsYay3nJgd56cInxD2/VnBq7dlwY3sSxUyOlxrVugZCnqY64fKDtr3c37QRVzvFM2yJoJRibU07L6y8h+6qlqyN6uAsMeUwaxbst/7oOL+8dIBz41eKap5wc4hIFJHpRISfnH6DsxMXsSqMp8sxjiXhelgdw6qELwI2WWhozstVvJGktuB6mnBMURlV7KpaxQ9XPsCKirqi2LMUqXTLeLB1C4+2b6MqXEncgbiTdBAIUAbdZNYYtNW4RhPy/OYajbGWzwZP8uL5A4zJJnbJISJRJKy1HBw8zqu9H/npF7JEQCc3JQtlSA0S2kLIaJrdGp7suptNTT2yF3EbUUrRVtnAM1172NywCpUSB4IjELPJ3VPTFqa9CL88/zGfXTlJwnhFtU6YHyISRWJgZpSfnX+fK5EJlHJQ2pcJ12jCicxIDILZGdis+A2lFJubV/Pw6l1UhcXl9XYT0i5bG1fzeOcumsuCNUuz6JzmKU1cQ1z7/58SM2Xh4tQAf336fQamrhbbbGEeiEgUAc8Y3u0/zDuDR4iZQjUi9A1HWy/+bMNfE/fjIgwVFRU8vvZuVtW3oZXcUgtBbbiKZzr3cHeTv4kddFIldk3SuUJjsFh+N/A1r53/rNjmCfMg+HfbEuTy9DCv9x2kPzqS9WpmMzLV+Sa0wUu6FJJs6UjbZBxFSiCU1ddsC4FVhphr2Nm1kfs676TCLVuQ8wj+bK2nuo0/XP0tGkO5s4ls77fFdo1V6aVRkxW7AdlxPKmfjTKMmCl+fu4DTo30Lp6Rwi0hIrHIRL04b10+xDsDh7F5swijMq6t+bWPg4ZKFtRZUVnD91fdT1fVCtmLWGAcrXmwfSvPd9+P64QDm9dLzeF5lUkhYzky0cvPTr3HTDxaBOuE+SIisYhYazk93seLFz9mKjqNkzXiy07FkUheleBuWvubkmWqjCc7d3N/y5044vK6KISdEP9o8/NsrOvBC/DSXnpmkXcPK2uYsVFe6zvEm5e+JCaR2IEnuHfZEmTai/Lby5/z1chZrDX+UlD6t37HG8RN6rlw0Wys7eap9j3UhauLbc6yorWikX+87hk63QZco5MBmMW2an6cjQzwSt/nnJ8alEjsgCMisYicGe/ltd4DTHrTc78hK2fTrF9RIOtngfcvNHWhSh5o3cqOhnWS5XWRCTsuj7Rv5YXWvdQmwrgJNWvEHhiy9tMyddcNMS/G54PH+bj/CBPxmaKaKFwbeboXiel4hNcvf8LJ8YsYm5lipzcai9DR3yyOgjvqO3m8fSdNZZJ+oxg0VtTy3TX3sbWuB53cnJh/9uDi4Ge19eidHuDNS59xevwynglgBLkAiEgsGseunue13s8Yj/uziFSytqBS2EvG0FhWxWMdO7izoUfSbxQJrTSbmnt4avUe6sqrM3m6CEadiULYLCGLEOfA6DHe7vuCsfhUsU0TCiAisQgMzYzxSu+nHBvvu+Fjij0YLDQidbTDjsb1PNN5D3VlshdRTCpCZTy1Zi8Pd23Dcf308emSt8U27rr4GWMH4uP88tKHHBw+KbOJgCIiscDEvAQHh0/xWv9XTHuJZHF7SH/1WfEO+X7uah7ttmNTUbSZDscCjWX1fHflA6yuaVuIswrzQClFS1UDL6x9gO7qFVku1EF+rA3a5orBqfFefnHuPUYi40WySbgWQb6blgRDkTHeuPIl56eG0NZFWZ1M7xxsUmk30j8n/32w9U4ea99GSLvFMUzIIaRdtjet44XufdSoMr8gUfCnEf5gyPjPQsJa3rh8iA+vHJG8TgEk+L1VCRNNxDk4fJrfXTnGVDzmp9woUB8iOPhr29mR3gp/CaM6XM0/3PAsDbLMFCjqwlU8v/J+djdswDEuegGj7G8nimSmAOMyEYvwF8ff5IrkdQocwb+TShRrLSPRCd68/DWnxwfSrxvlF2UJvBdK2mXRFwvHOvzxqoe5q16yvAYNv4pdO99ZtY+uiuaS8JRL30FZtn559Rx/e+YD2ZsIGMG/m0qUuEnwWf9J9l8+gvU8bDKSOuH4LZUlM5MELY/smIlFfeg1yhocm0ARw9P+ZuiuxrX86R2PS0xEQClzQjzetYuH27dT7RTOoVVs76dZe2hZMRQTdoafXHif9/oO+7XehUAgT/wCMTA1yt+c3s+liSEcm0m3USq3vkpm7kQZmstr+DurH6CtqrHYZgnXYEV5LS+suodNjT0oxym6IMwXqwynpnv5q7Pv0jclNbGDgojEAvFu39e8O3IipxypVeBYCCcg5IFjgrvJaPGFrVw5PLDiTva1bqHMCRXbLOEauNpha+MqnujeSV1FLXHHdzNNbYAtZq3zm8HPKm74ZPgY7/Z9ScSTmthBQERiARiYHuXfn3qTMW8SqxKk8umnakXkVAAOpEholHKwCUtPdTuPt++kq6pZakWUAHXhSp5u386epjsoD4VRxgbYSWI2CsOVmWFevLifU+O9suwUAOSpv80kjMcvzn7A0fFzODqOdTyU9ggZQ8j4QmHSVd2SI73kv9lt7pw3C482Gle54DlUUsEDK7ayt3kjFU540WwQbh6lFGtrWvm7K++nSdVgYwm0Z1FW4+DgKIWjFPo6bbHJLI1pPAtfjJ7mN72fMJWQdOLFRkTiNnNk6Bw/P/cuhrifVz/lRmr95SWUCXyOHWsV4HJHXQ9Ptu+hs1JmEaVESLs83LaVF5p24U4lcGM28MubKVJiMRyf4jd9n3Lw6slim7TskSf/NjIRm+Zvzr3H+Yn+kpnep0l6URkFCWOodCt4duV97Gy6g7DsRZQc1aEK/qddP+Te+g3U2DBhq/yU4hiUzVRADAopU0yy7KmnFMfHLvKTs28zLJHYRUVE4jbhGcNHA8f4YOAIEa80p8ipusQJDHfWreaZjrupl1oRJUtjRS3/ZN/fo7O2A4OLURqDxibjdLTxg+4c47fscrfa+M2dR0sdc7OlVBX++/1ZtwYPPhs4zoGhYxI7UUREJG4TgzOjvN/7BZcm++f+Vhd5b2HeJPdI4o6hvrKWZzp3s76uUwLnShilFDvaN/Cn27/LmuY14JYT0y5x7YsFaELe7JYSjZDRhBMu5XGX8rimPK4JJ3Kb62VaKHlM6nidTEGTLRzXwzGaMs8/V1nCZXBqjK+GzkrNiSIiCXhuA1EvzhdDJzgwcJhpE8EoFaip/HzQSrOlbhVPdO4g5MjtUepUuGU8u3I3LeW1/OrCx3wydILR2CSJRAJtLS6ZpR6bzCILGqtsUij8zj3blTuFVQayfpc6PlWnPZX7yy93YW9oH04r5Z+XEGXKJexoqnVZ0bMiL2ekF7gNDEZGeaPvU05HLhN3PH+UZhSlOFFbUVbND1bex8qalmKbItwGlFLUhit4sH0LWxtXcXasn0ODp7g8MYxnM8n0LGCVxarMco8ymTvY5rwv6yiViQFKpSpHgU2KAti0aKTOcS0sCscoKm2Y9vIGOqoa2N2+iZpwxW36RoT5IiJxi8S9BO/1Hea9gcOM2yhGa//ZUcH2JEmZlp1Dp0KH+NaKHTzZvkMC55YYIcdlRWU9zRV17G5bTykEM6dWOsWzrriISNwC1louTQ7yxqXPuBwdxSi/BkPQp8YWf4MawPV0cjlBs7aine933suKirqi2icsHEopFKr4Va2EkkFE4haIejF+d/4LPh884QtEOhGfzp6TBxZlwU0uLVTqSh5v3c7uFXdIrQhBENJIb3CTWGvpnRjitxc+ZSQyBWFQJTItVoBrDK7RlMf92cTWhg5eWH0P9VIrQhCELEQkbpKZRJT3+g5zcOQUUS/m70W4GpQpiUC6lD86QKVbxrPr7mV9U7e4vAqCkIOIxE1grOH0eB9/del9hp0IVoPSKT/AfH+QoJGJttUK4o5mQ8s6vrN+n0RWC4IwCxGJm2A8Ns3fXv6Yo9O9mJAfoRpUSbgWCQ2V4Ur+fMvT1IWrim2OIAgBpDQW0QOEZwxfXj3DG5cPMhmfKrY58ya1FGaVwTrwePcOdjSvlYpzgiDMifQM82Q0OsGrFz/l9ORlINixEHORjpxVsLamlee798osQhCEgshy0zzwjOHQ0Cle7/2MSCKGwvdy0nk1qC2girwApc1s/Tc6kyah1qng8dZd7GxYI7MIQRAKIr3DPBiJTvCzM7/j0sxw8pVUfbkSwWo8pbFKsbF2JU+07aSpvLbYVgmCEGBKqIcrLsYaXr34GW/1f5l8pfS+OqvAU5qW8ka+3XUv25rWSOCcIAjXpPR6uiJxcWKIn5/7kKmEX5w9tRdRCjERGTSOE+LOhrXsa72TmnBlsQ0SBCHgyDDyBogkYrx84VNOjJxHW4u1YNHpUIg5N68DF5PmV55rLmvgW+07WFfbIYnTBEG4LiISN8Dhq+d5vfcgk/EIqGR+fUinVS4FtAXXOuyrW88z7TuodMuKbZIgCCWAiMR1GItN8c6Vw3wzcZFEem3JT7+hIIAzhmTZyOT/G2XQVuNYaHer+X7H3XRWNUr6DUEQbggRiWuQMB5fDJ3h9d5DXE1M+9owz7q9i422gNWZGU5SC0I4PNiymcdWbZdlJkEQbhgRiQJYa+mbGuH13i84PdGLsRadynukM0n8UiUa84XDFKEj9usIJwXC6qya2obu2hb+YPO3KA/JMpMgCDeODCkLEPUSfD5yhg+HjjARj2Q6XGWufWCAsMmawo4b4ulVe9jU3FNskwRBKDFkJlGAvshVXr/yFacmr2CVl0mtnV7KzxYLw2y9zReThddjo0iFe6OTFngK7mxew1Pdd1PuSpZXQRDmh4jEHMRNgo+GjvPbwS+ZMhFC9lpeTHMJRPEwWfvRnoba8mqe69jDhrpO2YsQBGHeiEjMweDMGD87+w79UwOkx955zkCZzlgnf87tgLU1Bd6/OHjaYB3FnuYNPNWxkwonvLgG3CastXjWYKwh7iUYmhljKj5TbLOEgGIBRzmsqKinoaJaBka3ARGJPBLG48O+r/j4yldo5aFwCNJM4UZI7UW0ljfwfOdeuqtbSs7lNe4lGIqMcX5ykP2DR/ls6ARnJvqZMRE8m0i+y+T9W4j863ej17PQ5y7X4292P26hv3+dfnfcAcdq7qldxz/f/gesqm+/cTOFORGRyCPuxfn1pf0krFdS8pBeDUtqgYvirvoe9rVsJlxC+ZniJkHvxCAHrhzllUuf8fnV04zGpojhYazFznIguNGOK+9K2utc2es5KCy742/VYWOhv3+NURBzDI7RXFQDROKxeVspzKZ0eo9F4srUVT4fOQ14aOsEMlju2vh7JOUqxH3NG2gK15TELMIzhqHIGB9c+ZqXLhzgd32HmDKxdGdQeLmuVGS81CmF7znpjq5he1MPTZV1RbZnaSAikcepkUtEjQc4mReVwaZGLskRjkqPZOYe8Sx2nERuH2oIa82muq6S2IuIeQmOjl7gp+fe49W+z+mdHgBrUIpZI8r033m9keitcqufv9yPv1Xmff7kc4lhXVUbT3XfTUOFpMG/HYhI5DERncYrnVCIWVhlUBaqdZiWcC2udq5/UBGJmwSHhk7zr4/9hneHvmbMTIOCsAInwJHtQgBRhnLH5aHWO9m54g4ppnWbEJHIoyZcRQgHZXVm/btEsPhxEQ7QWFZLlRPs6OqZeJQDA8f5l0d+xYGhY77AOVkPdrZIlNi1EBYfhWJzXRc/WPUA9eHqYpuzZBCpzaOnvp1Kp2KeRwXrazQKRmITRLzgbtzFvDgHBo7zfx99mQMjJ0gtF7jWb0HOjyUEA23BNRDyoCwBzaqCF1rvYUvtKpyAz6BLiWD1bgGgpbqB9XXdWWuiWd40WaNZm246699MKwYKf4lGWxg3M7J0Q6kAACAASURBVAxEx0kYryi2XAtjDcdHe/nxqbf5dPgYGIOnfXFzPQgnSicFu1A8UiJRnoCqONxTtYan2nZTFSovtmlLChGJPCrcMM+t3IOTs/FcOksdKhkdnjAJjk9eIuLFi23SLK5GJ/n5hQ95e/ArZkzGPp2cRTgykxBuEG3BMdCgK/lW125W1bVJAN1tRr7NPFztcF/bJrY2rUEple50AUwJfF062cEmTIwvh04xk4gU26QcEsbjk4Hj/Oz8h1z1pvC0wdMGx/gPu7J+MGB65pY3gxME8DMaqKzB210t69i3cgflUkzrthP8Xm+RUUrRXdXM769+mEa3Bm012uqMvz66+O6BBUilAtEWrDEcGTnN11fPBWrJ6Wpkgn937DX6Z4aBzBwtu1CSINwIFj/9TGN1HQ/07KKztvQyC5QC8lzOQVi7PNx6F4+27qBMhQGd9M/X+JGdOv3/mVYctDXphjJ+zYukG2zf9DBv9H7KWGyqaPbl83H/UQ4On0h9k/6/16oVLggFMNqgQ5btnRt4dOVuwo5kOV4IRCTmQClFV1Uzj3ftZlV1mz9zsNofoatMbqTAYXNnOREvwrv9n/PZ0HE8U/wlm0gixosX9hM1cbTNXWKSG1GYLwpLe1Uzj3bsoqlcoqsXCnk2CxByXHY2r+Oeli1UueV+PQkMRplkNbpUKy5G6XRLz2qSQmEVnJnu46Xej7gSuVpUOwFOjfdyePQ8CSwqueGo8Gc/RhlssmVX+9Oyib0smXXdUwOgrDQtFU459zVtYW/zJsplFrFgiEgUQCtNZ2UTj7ZvpaemHT94M3dpJ2gYlWq+G65RGs8a3uj7lA8HjhA3iet/yALyxcgZhuKTOa9ldwQmqDM0IVhY//7uqFzBYx176Kxqlr2IBURE4hqEnRC7m+/godY7KXfLsMrg2hiuTeR0bikPqOxWLEwyG2Zc+yv+2mqGIxP89Pw79E8XbzbhGcPxsYtMeTPJGUPSXjV3E4S50VgFZW6Ye1u3srd1E6ESynJciohIXIfmijqe697D1vqeZJicQZMgnVAsYEshVpEM5tPpfwE+HjrKL85/UDRPp6uRcS5PD+ac34oYCHOQvcyYu9ToC4RB017Vwg9XP8gK2YtYcEQkroNSijsbV/Fs525qnBCQWTMPIrkzGl/SLJpIIsavLnzIydHeotg1MjPO1egEloCpqhBosoUiJRBxB55duZetDauLa9wyQUTiBihzwzy78h7W13Zj1BzBXoEks3kN/oN2fvwyL53/mOn44gfYRb04sSLviQglis11M19V2cp/s/ZxymSzelEQkbhBOqqa+Xt3PEOZCmMNuQF1+dHBxRSO/HPbjNfTlInxRt9BPh88uehmWZuZQ5gskU15NOUjexTLjJSbuUkGr+ZE0viDHGU0ZcrhH619nI7yhqKau5wQkbhBlFI82r6LR9ruJvW1BW0/YjYZl9iUracn+3nr8iEGp0eLapkg5JOKus92/vA0eNoXjpCBBxs38kznTvFmWkREJOZBc3ktf7b+OTrLO5KV6ZJLOsU165oom1u1btyb4s2+g3x85SjRxOKlEpeHWrgRsgdeCeWLhEm+3u7U8sNV99NR2Vg0+5YjIhLzQCvN1oa1fH/VQ1SoSpSnsMaCCZhMZAf7zbGUc2FmmDf7D3FhaghjF2dpLOy4hMVVUbgGqf0+q/ziWf5GtU+5ctnXvoXtLesk/cYiIyIxT+rDVTzdtYct9avBqnQCQGVsTis6s/ZGkm6xCqa8KB8NHeeToRNML9Jsoq6smtpQJUpZwAQkXl0oNum6LElRiGu/ecmeyUmmjm+rbubB7u101Ejg3GIjIjFPlFJsqu/iya5d1ISrsRZscjQenGQd18Zow7nIAK/3fc7FqUGsXXhRqy+vobmyDpWV619uPmEusp0VHAMVTpidLevZ2bKOsCOz0cVGntOboMot47GObdzVtBqSoxpDZjRUCsRNjI8Gv+HDK0eILUJhojInxPq6bipcN8tnRVjuqFTLiu/xYyMyw63OqmYe69pOe2WjFBQqAvKN3wRaadbVtvOHax6iOeQXXLdZ7pqlIhTD0XH+6vTipOtQSnH/ii00hWsClcZECBgqU0xIAWXK4f7WTdzdvJZyV/YiioGIxE1S4YbZ17qJb3VsRysnKRCFN4sDQ1468SNjF/jr0+8RWYS9iU11K7mzehUh6yYTJaZ+o6+RikFYFqT30HKfoTU17Xy7ew8dFRIXUSxEJG6BtspGXui5j86qpvRrJumREcR+zjLHTMdY/ubcfk6MXV7w87va4YWV91Ol/UJO/rqz3IJCPn7RrDIdYl/bndzddIcsMxUR+eZvAaUUW5vW8mjnTqp1WTJSNNgRwtnLYuDfAH0zw/yn0+8yEZtZ8PM/0L6V3c2b8JTGU5loWkGArIA6FGtq2nmmew+VofJim7WsEZG4RRrKa3iqcxfrajpxsofoAV1yUnnLOspCzCT4bf8XvNP/9YJXsKsvr+H31j5CY0WTLxIBrRcuFBGrqXIr+VbHTrY19hTbmmWPPKG3iKM12xvX8Gj7TurC1bgWQsYkN2ODJRQKXxj8sqF+3e7UzOLyzFV+ef5jLk+NLKgNIccPinq++17CTgUka14s2l6EnVuY8vdErrtHUuBzhFvDXw5VrKvu4OnO3VS5MosoNnKX3wYay6t5pmsXdzWuIaw0Go+gCUSKVHCSk9P5GYxJsH/oOL/t/YLpeHRBbVhRXsefrn2Ex1u2UabK0kkI51qmC/pKVNDtKy38Z6YxVMXf6dnH5vqVshcRAOQK3Aa00qyv6+Txjh2sCNf6SzrFNmoOUqNifybhN4M/etPA1cgYL146yOnx/gVN16GU4o7aDv7hHd9id9MatHbmlNT0RjvzGOEXQJtUhtHksamfky2nhvJcM42896ViYlKlYvM/73ozk4VuQSf1HflkYiIcpdnesI4H2+6iSvYiAkEQ+7KSpDpUzmPt29jZtK6kyimmvJ2UBWMtX41f4JXez5lZYJfYsONy94r1/Nn6J9jasAqrFF52rAmzHQCC3gHmVj0QroVJFhDKnnFrC23hBr7TfR+ra9qKZ5yQg9zTtwmlFGtr2nh+5f3Uh+v8inAB83JKdcCezjTIBLMZZbjqXeW1Kwc5Onppwe2pcMM81LGV/27z89zdfAeO4+Ilk7vlC4RjDY7NTXwyHy8yo801240eT7r+RW5LpbjOOaZA/e6baflcb+YQ6JmFzeQR85shHHaoCpezt3E9j3Rsp8wNF9tKIYmIxG0kpF0e69jJ7sYN/gsB3Ni8VuejMWA9jo6f4zcXP1nwADulFDXhCh7p3Mb/uu33eabTd3fMrqbn75/MVZTo9i6HpQRgrqJR2d9Tdn+ryOzvqGwBU2bWMbfSUjZkX7NSL8qUusYqeX2dRILQVILvr3qAlqr64hon5KDsYmR3W2acGbvMQ6/9U6Zs1HczLbZB1yJPyFJV4nqqO/jfd/x9Huvcuiibh54xXIlc5Wfn3uevzv6O3skreF4i6Slm8HRWjEf6qGy7btTGGxGXrM9KfT/J7yX1sCgMrkkJRHJmViAti1Hc8oAhfzYQ6HvqOlj8QkKOMZQnr7EXjfGnW17gf9n9R1SFK4ptopCF86Mf/ehHxTZiqdFQXkMsFuOzoTPJDKsqwAmKcrsbpSwKmIhHqXDLuLOhh9pw5YJboZWiJlTJvSs28mjLXZQRYiY2g7GWBAajFF5eR62tQqFxrPI7UatRVuU0/3cKsMnO+0auQ2oMr2Yll/IT0vkpRZQyaGtBqczeTs77Um7H2t+vsBqdtMe3vfB/Vqmc9/oxOCqZUNKmz1GqWGX9RI/Ww7WGrqpW/umuP6azpkVSgQeM0tlhLTF+0LOPDy59zcHxcyS0yRqCBsw1VpmcUa5NjqKNSfBh31fsW7GBpu67qXDLFs2kdfWd/LPdf8TBgT0cHDnNl2PnuDQxwMDMCBPxSRLGS3o8aRyjklUCMyP41Des8b1owBB3DUb5QuEojTPnzCPv2sxZLzzrx+T+DlanZxTKM1jjz3xSgYu+NjmzevXsGYfJe80o/1jX8+NZ/L0QiDkQtXGiXhxjvMK25v9lAep3/WU6AypBzE2gQ2U8ufYBeuo7RCACiIjEAtFR3cwLa+7j7JEhBrxxSHlyWB14oQC/s+qPDPN272fc2dDDurqORfdZ39Wynm3NaxmJTDAwNcLwzBiD0TGuxqdIYFCpEblN2Wxzxtg6NcMAPG2wWBylqS+roVKHs94J5C0L2gIzv8zLKqdyWuqbmfaiXI1O4iVnI9r/MDLzimwsqV8n/89/q821XyV/5zsdWK5ERvl69AJHrp5lODpxva8xgPgCYZQBZVlb38VDnTsl/UZAEZFYIMpDYe7rvJPfDX3Db/u/xDMe6a4kZ/czIIKhDDYnoM0wZWLsHznKnqFv6KhqproID7GrHVoq62mp9DczE8Yj5iWwN7BsNNeYVKEIOS6udm6zpT7zse9GyBGu5L8RL0bf9AgvX/yUn5x5h76ZkYI7MkGaQaTwZ2AGSFAfruaJtt1sqV8lgXMBRURigdBKs6q6hae6d/PVxHkuTQ6ml0XI8w8PDgayXHc9ZbgYGebNvs/Z07yR9XVdRX+QXe0sWAd/O1gM+6pC5TSW1dBUXstUYob/fPodphNTC3rO242yoLVmU81qHm3dQX24utgmCQUQ6V5AKtwy7m/dzMOtd1LplAG+j71Nri9bZXLcHItJZjPYJN05fTxreH/ga97q+2LBA+yEG0cpRUt5Pd9ZeS/dVc3A7JiIIM4iwI/0L/NgdWUrT7XvZXNdT6CFf7kjIrGAKKVoq2jgiY6drK5ZkVtUJWsmEcRn2Xfq8YOeJuIRfnX+I86N9xfbLCELR2s6qproqmpOz/Cy4yiCSErIwoS5o6ybB1u3UbMI3nPCzSMiscCUOSF2Nq3jkdZtVDna37DTfvNLNWYoxowifyYzK8DOaJTVfDNykV+e+XAxTRNugJByqHLLUQQzuC77/krVrvaMR61byyMdd7O2evEdIoT5IVdnEVhRVsdTnbtZXdORjOhNkE7nkBxZBWHJCWanc/DzKGmMsfz87IecGO0ttolCFsYaphPRvI64qCZdEwW4KsS6ii6e7L67KM4QwvwQkVgEHK3Z0byORzt2Uu5k4g3S7pQ2lRqucBbShULltZDJNEUmx5OyMBwZ599889KCFyYSbgxrLYPRcfpmRnz3XhRh47diC0V6BpGf5sRqGkO1/N2Nj9NZ2SxxESWAiMQiUeaE+L2eh9lRvw4XN1nqVM/5MBfrAU9VqnNMJhDMx2C1wdOGtwa/4tXegyIUAWA6EeWtvi+5ODOU83qQlpsyGLQ1hIF7mzbyfM9eHC3dTykgV2kR6alu5XtdD9DmNOMYnRaKbFI1foslFDZrTVtbCHm+aCS0Ie4Y+hKj/JfzH9A7NXTtDxIWFM8Yjo1d5PW+z7kan06/HnP9FhShyNRS97P4tpXX8QfrHqFcsryWDCISi0hYuzzcvo09TRsIpSuy3VyauoUklcIZkgnsSNV3MMSNx1ej5/ig/xtmFriCnVCYocgYvzj3AYdGz2KyosMTyVTrxXSCyD+3sgbHGBwFj3XtYmfbhiJYJ9wsQeiTlg1KKTqqmnhq5R5aKpvw9Nx7ECqZrO5aldIWgmvVMvAT1UHYMwxPjfDG5UOcmxxAkggvPjEvzluXDvLShY/8TWtrsdbiYdP/v1hkC4N/v+hky+Sf0viDjXVVbTy76j5qysTltZQQkVhkytww97dtYW/LZrRyZtUISI0Ei7VccC0XylT9hJgX58uR03w8eIxpT2YTi82J0Uv85ck3GYiMppPU5gh6EXU7U0go+0VNhVPB0yvvZ0vjGnF5LTHkahWBtooG/s7q+1lZ25ZbnEZBwvHXlItd1e5aYqExDM6M8PrFTzk51rug9bCFXKbiEf7NsZf5arwXrM5xofYz42Zlnl0E0p5x1t9jyxao7Ht4U/1aHuveQ224apEsE24XIhJFQCnFvhWb+F7XXip0OUb5D1nKqyiwpSeSGAUxonxx9QRvXP6CqBcvtknLgqgX56/O/Y7fXvmSqPXThAfpXkmnRreZn7GaxrI6nl55Dxvqu8XltQQRkSgSYcflD3oeYH1dF57SuAbCCU15XFOW8AUjuBg8J8GwN8o7Vw5zWtJ1LDjGGg4Nn+JX5z5gKjKJtplSqwozK95l0cmyxbEGxyRnOEqxsW41j3XtXNSaJMLtQ0SiiHRWNfFHax6i3AkBmXrJToBGh3Pjp3k2ynB49CxvXD7EZHym2EYtWay19E4P8ctz7/PN1bMovOCkmM8jf7mrvqyWF3ruo7OqSWYRJYqIRBEJOS7f6tjKPSvuQCmLVQYvuXENZKJVA9gh+CPGBJF4hJcvHOD0eJ/sTSwQk4kI7/Z9yXtXvmTKm8EoE7gcTSl825IJLJVhb9MdPNh6JxWOxEWUKiISRaalsoEfrLqPlopajPIjm4PaAeSi0cbFNXB+rI93ew8xHY8U26glR8J4HBu9yMvnP+Li5AA2Xas76BgawtU817WHzqpGmUWUMCISRSbsuOxr2czjndsod10/7V/gnycNJow2YVzPxYvEeef0QU4OX5J0HbcRay2Xxgf5xbHfcaj/NJ6xaQ+i7BXJ/KSMxc7bBIaQ4/JY+3YebruLkJbaZqWMiEQAaK1o4JGOXayp7cAqRTCr1mWj8YsauuhkrqdLY1d4+8xnjEcni23ckiGaiPHB+S/56NxXROPxrESQmTX/4gvCHCjFqqpWHm/fRUt5fbGtEW4REYkAENYu2xrXcl/7VupDlZkHf46I62CMFFNk1p6n4xE+unSY44PnZW/iNmCs4eTQRV469j5DkatJ99JUXERwH1uroMqtZF/rXexZsRFHAudKHrmCAUApRUtFPY+0bWdtXUdJPVhGZZL/nZzu591LhxiLlFa95SAyHp3ir4+9xZGJc8QdPwNv0PED+hy6K9t4pHUHreUNshexBCid3miJE9Iu2xvX8GDbVirCFaTrS6QI4IzCKEg4hkjIMBU2DIZm+MXApxwbuyQ5nW6R35z7mF8NHWS4PMFU2BBzfSHOyYl0ja940fYocma7LhVuJQ+1buPu5vWEHdmLWAqISASI+nAVz3XdzbaG1ajMqnNRbboW/izCb3HHEHENx2MD/OTCe4xnpa8WbhxrLfv7j/Bvz7zOJTNKxDXEHENCB680aS4abRw2Vq3k6Y5dNJfXFtsg4TYR3B5oGaKU4q7GHr7dvYf6UCVYnUyWpnOSphV7BnFNlOGl3k85PHy22JaUHNZa+qaH+ctTb3Bi4gIqWd42iOjUvpMy/n1pNXW6gidX3MWuFWtlmWkJISIRQJ7r2sPd9esIo9L5nEqB1NLGVGySn55+m8mYRGHPh+lElNd7P+ODocN4NlFsc24Ak+OKu76mkxfW3isFhZYYIhIBZEVlPX+4+iGanWpCBtw59iyDOMJUQNhatPX46Mo3fHj5MHGvFDq74mOs4fDoef7m/AdciYzhL99kHs/8gj6Fan9cqybI7SA1EEjXrsDDWouDy/Or97C6rv32nUwIBCISAeWejs082baVyoSDayg4owiSWGilcK0ipDSj3iS/uvgRZ8b6ZBP7BrganeRvzu/n67Fz13UhLva3mRKdTOS34a7GTn5v7T6pW70EkSsaUOrKq/n+2gfYWN5GZRxCJtdTJXt0GASh0BYwFmMMynEwIYf3h47y4oUDDEXGi21eoLHW8s7lr3n94hdMRqNYqxatGuF8Sd13ntIYNMpoat1K/mzj4zSU1xTXOGFBCOadKOBozZ0ta/n2HfdT61QR8nQ6O+xCLCPcCtkiZa0lGo0SiUQYjozztxf285sLnzASmZQZxRwYazg62stPT/+OK1NDfhZgU6R03zdITkoQ7fJ019080rataPYIC4uIRICpDJezb9V2tjSvIWwcQp4/eotr0tliiy0WKYFIzXIcFC4KlTBoY+mdvMJPT7zNb84dYCQyUTxDA4i1lqGZcV48vZ+vhk6jrUfIA9foQMwOr42/JNZd3caz3XuoD1cX2R5hoRCRCDBKKXrq23msZxd15bVpQch2hw1KX5JThhUNWmGtxTMeJ8bO8x+OvcZ/+OZ1zo71y4wCXyBGIhO8dPYAL5//mOn4RNqttNjCfz0UfsdR6YR4pO0utjeulSR+Sxi5sgGn3A1zf9ddvDnwNeevHMSS2cBezFrGhcjuzIxKCgTJjiRZocyzhtOTl/j/Tg1zaOQkz6+8h4c6t9Fe3VQco4uMsYbz41f4yYm3ePniAS7ODAB+NLXnBD+9IxiUsvTUtvBEx3ZWlNdJXMQSRlkZ1gWemBfntQsH+R8+/zGj8bFMIBPFF4lsLBnRSAlYKJk63KIxChyraAhV0V7RyJaGHrY1r2V9XRetlQ00ldXiaCf9eWfGLjPjxeY8V8J49E2PMB6b8mcm+V/EPO/qQm/PePCkCjcrKt0y2isaC5bjVNf4wKuxST7sO8z+gW+4NDXApOfX4NA2FcGe/J6uc2WLed2tMlSHy/mTtY/zj9c/T1tFQxGtERYaEYkSYWhmnH/x9d/wF6ffxNp48lWTM3IPAvk3UyipZ6lqaun3Jf9fodDJUaiySYFIVV7L+jSV5+2TTpSbvH3z1/CNzg30yj8+n0J7ABmN0On3qSzb58JfEjRzLhkpDMYaP6tr1pzBMRoLxJ1kbiZzbXuLe70V25vW8s93/jH3NG1Al1BCSmH+yHJTidBYXs3THbv4oO8wZyYuY7QhiFtKqc4rO+gr+1+b9bNNvzM1Sjeo5E+zii8pM3eK7LxUJcr65zDK5nXS3jVTbGcfP+fvVMbaDHMriwW8OUXCJEXGoAGTWjYkdxYWZLSFWreKJzp2sbGmSwRiGSAiUSJopdnetJon23fyk5kxRr0pbLJTzXnfHHEUxSB1+owdyRlP1n7KtXC1Snei6U+40dgBC9bM/g5utg7DfNOiKOvPDJyCb8j+TOPPJ1KzE5v8pvLrmi963ETq/LmZh0OeZnPjSp7o2EmDeDQtC2QYUELUl1XxROdONtR1o7SDUTow3k3zRV2naaNx89pcZToLNWW131FnNWW5qXZTf9+cn6X9v+86HX5Qc3Vpq2lyani6fScbaztls3qZICJRQmjlj+Iebt9KdbgKL+cZzRp5BjRaV5gLv25I0N1eAVw0d9b38ET3Lsokid+yQXqTEqO2rJLHOrazvXEtjhPCqMyGqraIQAgLRmO4mqdX3U1XbUuxTREWEelRSgytNJsbuvhO1x7awg2zl1qKbaCwJEi7/iarzjlWc1/rZh7q3k5IKs4tK6RPKUHK3DAPtmxiT/0awiqzPap8nyB/ASOg69pC0DHpZrOcDloqGnmy627aqhplL2KZIUOCEmVldQvf69rL4cFTXIoO5Hk5mcyyU76XTIlg8G7tAwLfj6XGZ7O9iKBYm9cGq4x/zyTvH6s0rnHZ17qFe1o3ySxiGSIziRLF0ZpHOrfxaNtdfjoHVTDIVxBunKxBhR/QCJ3VK3i2ey8tlfXFs0soGiISJUxNWSV/f+OTNJbVEnMg6qY8ZLT/sJfoLEJYPLIr3qVqVacCGS3guC4Pd9zFg21bJHBumSJXvcTZ0tTDn69/hnLlyj6EcJvIdAtra1r4B+sepSZUUUR7hGIiIrEE+Hb3XvbVrac84aeumJXSQggwmmI+hgqTaTYVLe5HjFcQ5vdX7mNdbUfR7BOKj4jEEqCrqpnne+5nRXn9rER6gjA/MqK1tW4Vz3XeTUgXTDAiLANEJJYAZU6IvW1b2N62GeOCl5cBVRAKo+doUONW8Gz3HjqqmsXldZkjIrEE0ErTVdnMkx276apcQboYtiAUICv3bs5rCQ0xpdi9YgOPtu+gwpH0G8sdEYklQoVbxv0tW3ioZQsVyhHPJqEgFvC0xtOZpImpWhYR19Be28xz3feyprZdZhGCiMRSQSlFR1UT3+vex8pwc2AziQpBwE+1oYzOy/VlKHPD3LtiEw+0bKFcZhECIhJLCkdpNtV183TXHqrcymKbIwQUZcH1/PTpRmkMfgpz1yruqGzh2bZdtFVI+g3BR0RiidFcUc/jnXezrkbcFoXC+Pm9NNr6tTrKEppmqni84S7ua9xIhaQCF5KISCwxlFLc2djDo+07qHYr0EZft16ysPzwtMHoBCEPKuKaipjLXeEunmvbQ2tFQ7HNEwKE9B5LkJpQBd/tvoet9T3JhQRByGCVwagEqASKBABVoUqeWrWXHa3rcbR0C0IGuRuWKOvqOnmhZx/N5XU5r9u8JixDlAEVw+oYnpMg7nqsalnJs+vvpyJUVmzrhIAhIrFECWmHh1rvYs+K9bjKSS85ybxCAJIu0n5q8OrySv7u+odprZIsr8JsRCSWKEopOquaebZ7L22VTQA5QpFqwnLDoKyf40slq8492LaNR9vvkiyvwpzIXbGECTsuD7TdyX0tmwgpLRXrBCBTmtSiaapo5Ac999NUVlNco4TAIiKxxGkur+XZlXtYVdGCY1K1sCUae7liFenYCKscvtNzP3taNspmtVAQuTOWOEopnuzcybdX3iMRtALgDxQcq9jZsIZvd++lNiyBl0JhRCSWAUopXlh9P2saukjo3FoTqdw9+U1YmjgGQh40uZU81b6bzXUrJbJauCYiEsuE1XXtfGfNfYR1KP2aiMHywyiwSrGxtpvH2ndQ5ZYX2yQh4IhILBNC2uGJjp1sbe4B8vYlkl4uOU1YUljAUxBzwC0r46HOnaypbZe9COG6yB2yTFBK0V3ZzAvd99EcrsosK4kgLCuM0qytaefhtu1US91q4QZwi22AsHiU6RCPtG7nQP83vHrxEzxFOux6VsnTPPGwsmxd0igLKP+Bf65jL+truyQuQrgh5C5ZRiil6K5awbPde+mpbffrYWu/+aka8pqwVMX7/gAAIABJREFUJFDJWWPIg21VK3m0bSuVrqTfEG4MmUksM8qcELubN3Bv6yYuxYaYjkeSv5HxwlJFW03IQKNbw/Nte9hQ2yUeTcINIyKxzFBK0V7VxA97HmEgMs57/V8x7UULvDt/NiFCUopoDPVOFY+2beWZVXdTJXsRwjxQ1lpxhFyGxLw434xc4C9Pvc07V75kMjFNzCTQKFyt0nmdlFI4ygEsCeMV02ThJnC1Q1tZPd9q3cl3Vt/PuoYuQlrGhsKNIyKxjPGMYSoe4fDgac6MXmZ4ZowyJ0RtWSUaXyhc7VJfXoNnPcaik3jzSOmRqrN9s5vey/V4ZW9f8sXasmo2NK6ktbqJilCZbFYL80ZEQhAEQSiIDCsEQRCEgohICIIgCAURkRAEQRAKIiIhCIIgFEREQhAEQSiIiIQgCIJQEBEJQRAEoSAiEoIgCEJBRCQEQRCEgohICIIgCAURkRAEQRAKIiIhCIIgFEREQhAEQShISSWW94xhNDIBQH15DY4ubY2LJKL0TwxTV15NQ0Vtsc1Z1lhrGYtOcXV6jLryGurKq3C0U2yzBKHoBF4kjDVMxiK8fv4gvzqzn5OjFwForazj4a7t/MGGR2mpaCgZwYgmYhwdOc+vL+zn7b7PGZ8ZpdqtYEvjGp7s3ssDHdtpKK9Z8Lz/xhreOneQf3vkRXpnhgG/rrXOK2t5s2UubyYDvbIGlIfCoD2HP9vy+/zh5scXtNRm3EvQOznEfzz6Wz7sO8zV6DjVoQq2rVjDD+94lG3N66h0y+Zlg7WW6USMr0fO8fK5D7kw0UfM82gqr2dH6waeW7WXprLakrlnjTWMRCb5uP+o/x1FxnE0dNY08VDnDrY1raPKrZjXd2SMYTI+w7GxC7x69mM+6vuK8cQUTdUNfKtzN99ZtY+u6hbcEhFqay3jsWn293/NaxcO8M3VC4Ssw+a6Hp7q2cM9nZupcstLsmxsoOtJTMdm+OLKKf7157/gg8tHSLiWVGfmY1hZ3cY/2f77fGvlbhoqagN7Eay19E8O85+/eYX/ePxVBuPjQKZIPUDYDfNg53b+2zu/x+7WTYSchdFway3fDJ/j/zj4X3j70mfETYxUqVKliycSPkk7jMe6mtX8+Ml/xtqGjpv8rMJ4xjAwNcKLJ9/n/z38a4ZiY3jaJM9vMNZSFargu2se5h9sepYNDd03dD1iXoKvh87x74++wivnPmQ6MY2TLCFkFRgFq2ra+Z+3/R6Pde2iuaIusPcswHh0incufMG//folDg2dxCNB6jtCGUIhzZMr7+Mfb/kB25rX3dDsK+4lODRwiv9w4nXe7zvE6MxVvEQcT3lY/HKrG+tX8+ebv8uzq++nrrwmsN+RtZbpeIRP+r7hX331Mz4Z/Cb9O201Lgrilgc7d/I/7vo97mpZR7kbLqLF88f50Y9+9KNiGzEXsUSc/b2H+Zef/ITPB09gHQ8wKDys8v8fLBPRCT4dOoKrNd01rVSH5jeiWSyuRib48dFX+PGxl7gaG0Nbhc6rQBa3Hqem+rgyM8qW+lU0V9QvyN8yGZvht5c+48UL+xmNTpIpVmrT50t38Vr5RqrbVy3t2vgnUxasStBaWc+2FRtu68zKWkv/9FV+fOxV/uKbVxiOjoLysppFWUvMxjk5epmRyBQbGlbSVH7tQYixhm+Gz/F/fv5TXr/wEVEv6l/j5DH+X2YYj05wePgMZU6YtfWdVLplt+1vu134y2+T/Pz42/xfh/6aU6MXsCT8Z095aCxWGYwxHBs9z+nxK2xbcQcryq8tesYaDg+e4X/75Ce8cv5jZuIzWM8DLMr+/+29eXQcx3no+6vqnsHOFTt3iiRIggBIkKIoUtRuP8uWbe3ekufkJXZky2vim9x7825O7j9+5513khs71o3jXZK125KsnSJFSpZkyVop7gR3EiT2HTMYzExXvT+6e2YwmAEGwGCT+6fTAoGZ6a7uqarvq6++RSDRCBSdgz0c6jxNvi+fJUVl5Bo5w1a5043Wmu7BPp478ybff+8+DnWdRArQQoOwnw9Co9Bc6mvlXE8ziwtLqCgonlWmzBkpJLTWXOhv4T+P/o4/XPwQSzodU2iQIIVGSBDCPoLWAMcDjRhCsqywnCJ/wYwSFBErymuXPuRHR39Hc6gNIUSs7UJI53eBloKoVJzrb8FUkm1l1eRkWeuwlOJY93keOLGbw92nEQoEItYWEGghUEKjhS0s3AM99PeRjkxxvyWpFQIdP6QmosP4DNhcUs283KLsPAAgZIXZe+l9fnXqRRoDbSAse2CjXHmIgUAIA0tHaQq2s8BfyIaFK/GbvrTn7Rzs45fHXuDpc28yqAYx3DqkzqQRq2eKJBgJ0zPYy7K5ZSwpLJtRk4bWmrZgF0+dfo2fHXmapkAbSIWSltNP7Pty+60QBueCbYSVxZXl68kbQej1hYP8+/7Heb7xTYRQSG0/dyVwFBIJ0u6DPdEgDX2XkBiU5y9gjr9gxggKrTVdoT6eO/sG/3H0Kc70NSKJ92HpdCQlbaEntKZtoJ2e6AAbS9YwL6dwRs1RIzEjjaKWVhzoPMmb7YcZNMK2RCbxGIoScHGgnV+f3MWjJ3bTGuyc6iaPSMdAD/sufciFYIt9ByP0DS0gSpS9F97nTOfFrLelLxzk9UsH2d/RQMSKjvheJeJHqt8z/WyqIx2x+VRJLK1o6DnDB+1HiSprDHc5Mp2hXvY17+d0sImotE0cWgztV8pZuQggMNjHS2ff4GJfS9pzaq050X2BFy68Q78VGrUNEaE43neR3zd9QH84OJHbySq2gOjmqTOv84vjL3Ah2EpUWFi4zz99jfNXm/bzTtvxEc9/sv08+5reBxVFans8u8Im3oj4tHSmv4WfnXiBh0+9QmN/G2oMNdYnk75wgOfOvM7Pjj/Did4LaOL9UwzRkhRKKLRUDBDm7e6jfNh5cky14qebGSkkIlaED9pP0BPudey4atjk4k4mWji2P8ugqa+TBxv28Mjxl+kc6J2+G0iidaCLY11nUdF4R9JIUj1+ocFQ0Bvs48DFhqy2Q2vNyZ6LvHThbbqDvZgq3qG1iB8uUsePycI9tT0pDz2ElrQE+3m37TgdoZ7sXE9r2ge6OdV1nnBkAFBEJaAlmvhhOaso6fSzYz0XONV7CSuNsIqoKEe6znG2r3n4pJdEVCrChqJDBzncc462UM8E9nCyh9aazlAvT595kwePv8zZnmYsrdBCJfQN+7sZ2l8UEkXPQDfvtRwd8RofNB2jM4PvUmJgaAOfgpa+dh47sY/HG16lNdA17c9qIDLIc2fe5KdHnuVkZyNaK+xnkth/bZSQ9gFYWtM52M8H7aMraDOJGSkkFJq2UBcRlcGD1BK0RCqJUIJLgU5+dux57j+2m5bg9HcogN5IkLZgJ4YSyAQtKbllsUkZ0Mqio787q+0IREPsaXyXA+2n0Eo5AmL6NZq4oHAmHnciwiQYifJm8yEOd5zOympCac3Fvha6B3tG3GORCZYisE1UlwY6iKbRACNWlOM9F1BjMLZpNN2DQbrCfegxGekmh87BPh4/9Xt+cfRFTvZcGuVehgp0qSFqhWkJtjMQGUx/jWDvmL5HqcFQmqZAK786+jy/OPQcbcHsjotMsT2YAjx5+jV+ePAJTvRcxNIqYyVKCYjoMG2DPagZMO4yZUYKCa11BoPG0TYh6VC0Bzv5+bHnue/4Hi4FO6d9iaq0GvsEpzXZlG+2OeQcjzS8RMgKM/SrT/V8Uq90JhuFrXlFpUQ525hNve2803wkK2YZjWYwGsFK0OTcQR7bj9Dgt8BnxbVloUFZ6b9DpTUDUXtyFKN8b6aC3KgiPwJSiZmhyISDPHxqL/95+BnO9jWiddR2SYaYIoaWQ1ebCX9HS7QW9IdDBMIDaa8zPmFom6VaI938Z8Pz3HvgiVi81FShtaY73M+TZ17j3oO/5VzPJcBK8LQciiBB6XNWldJZYc6UfZVMmZFCYiJIDQhFW7CDBxpe4sFT+2gdmO7lvOO6O40EIwM83LCLlmCbM/hnoCaj7SW76yrqLt97wwHeaz7Kxb7WrH6PrikpGaFtQWE4rymR/r3JnxvtPRAXRIYGUyXZ+KaBYDTE46df4UcHnuRioBWtomhtjfysdeqpQ6NHVMrm5BRgiPFt0iuh6FVBftLwHD8++DvaA13jOs9Y0VrTEwnwzPk3bSHa04TQOqM+YeOaTyFH+CnJmYecRVPv7GlpEuk9apRjKojS1t/CA0df4JGT++gcnFrNYyjTqylqrXm3+QgvnnvL/oOIIhl9mZzJBvV4Sd7EtjePnRcd86H9d3s1carnPO82HSGaiQkyCxhq+F5MtuZyDU5MBpiWnNQ9n9EIhAf4TcNe7t3/GJ0DHRg6amvH7gHDf58Aly+uZl5u4ajvE9rek4qjkFphaIVlhfnlsWf45aFnaeprn3QFMBAd4MXzb/Ljg7/lbOclUM4qW6dfbWvcvi0RSiK1RGqTIrOQuoWrJi0GajKYtUJiZFxBoWjrb+Onh57i18d3E4ikXwZ/lOkZ7OexU/voHOwf+kKaQe9O3PbkNbyLZDKpJW56j1kYDfM0go5QD+80HZoye7QWQ9s1GQJzMoXwaGit6R0M8Pjxffzv/U/SFGi1BUSy8pAFwZBIVfFyrq3cjJTElZWEVa3dXxL73ND+576/J9LHr0+9xP3HXuDiJHo9Rawou869zQ/2P8rZrkaE1rHVgxLD1T97k1+hpL3Zr9xVhDLJ07nsWLiBjQtXY0xyRoVsMntaGtvMlM7Gpk2yNup6EyQKio6BTn6w/1EeOrab7lDfjLABj47KdC07IlFl8dzZN3mt6RDRhFkplbdYKuKDdrjnUbrDUDJmTnHt/LHJYESNNMHN2XmPOxCjGva3neRo+5lJ32PSAgYNiMj4M7Lk5Ezqlpx6a5MdBNbPoyf28R+HfkdjkmuvSnA5j5nQkvYfhuPuEY48pRT48/jr6pvZsHAFpoxiEMbQ0ZigsDVu+3zamUiVkLG/JwqwllAHD5zazX0NL3Ex0JH1cT0QGWTP+ff5n2/fx9meSwgnpiPZXTqOcjwxk7f8JT7hY+3c5Xxu1Y0sKiyZNTESMKuERGa4picl3M5uT1LBaJB/3f8Ivzz8PE397dO+mT0a9sQxsU6vteZE1wV+e+Y1Wgd6GDrRD8cVFPEVgMTExC/8+KQfwz0MP6Zh4pMmPul3DjN2GEb8cP/mF/aRi334SGdmSY6JUbHncXagjVcaP8j6pmVy5LsS9uRtJTymTL6JIWI0g/0L91pTqbJorekY6OH+47v54aEnOdffjMqCMpIpQgjWzl/G32/6c7aUrCfHSAxOlM64je9LjSSYlYCmUCf3NbzIfx55lgt92VlRuIFyT534Pf/05s9oHRi69+EKgmSFx3XjTnTnllpiCMm64pXcU3872xfXzCpTE8zgBH9jNVEk/i41Q1YbLl3hXh5s2AVac+ea66gsKpn0RHrjZ+Kby4HwAHvPvc+R9nO29idU/Gca4vOFZK6/gHXzljE/dy5KioRBqzG1QioQCVOcFnro3gK2/7ibn8r1PkNLWoJdHO48S0CHUFI5y/I4UruapXMmYS/l97Yf5LO91zJvgkkQp1+PS2z71EzSbhzEYw37uO/I8zQHWxFOnINIatOw1U0Wm+gzTK6sqCWi7uLnh5/h3bbjWBEFQmIJW1DYUd2Jpq+hfVa4KwugN9jLkyf2UYiPL639GIsmMK6VVrQGO9l17o/86shzXBxoArRjOgISVwlDBITzD206qVjszXmBpqZ4OV/bcAvXLdk86/I2wQwWEpniep6M9jeXi8EOHjv5MgLFHWtuYFFR6axa+mWK0oqTnY3sO7efvsGkCOBRBAWAKQy2V9TyF+s+QUXBQtvZWGPPrglmpGT0sH+JhP/HXz3R3ciP9v+Gt7uOOaIkg3sScGagiVdbPqRq/hKK/PkZfCo9TpaXaWZqVrRaa9oGenjy9Gvcd+xFGgMt2C6ctvCf6qQg+b5cdlTWE9WS6NHn2d/UQEhFUUJiCYUhRhfkCcZTuoPdPHbiZaQQfKHqxnEJCq01F/vbeOLUXp449Qqn+hqHrLLcwMFUSNck564ltZ3uZv2CpXyz+jauX7xpVgoImAVCQgn7sQ9fEdsdwBUGw4VCkuYR+5dFY6CFh0++RFRq/s91n6Q0b342m5wC2yofI437IGRlGwKwEyTuPv02RzttG/6wAZeuDc5qo7ygmE+v3M7W8nWT0rkX5s/jw9ZTHO27QJcKJLzitmvo9+c+loFomN9f+oCbF29jzfwl4xbwidl3M3r/uK4yEpmKxomjtaYj1Mtvz7zO/Ud3cbavxdkfSvQLTHOHaftq6u8p0yclhKDIn881izdiSB8/ijzFB60n4+0REUhlOtKu11vS1YSiKdTGA6dfwhIWf7nuU5QXLMyoLS5toR4ePbGXx07s4VKgBUvrUW8nebxqZT9TiZ8NC5fz1Q03c+3ievJ9uWNqy0xi+hWpKUZqiKI4H2zjVw3P8/Cpl+kbDIz+wexcnUweudTx6OPx8mHTCfac/4AeJ/XEiCuHJPuqQFBfuoadlbWTpv0U+PO5cdnlLC8sG/baSJO3VBanuy7yYVvDBN1hE90YP9r0hYM8dfoNfn7oWc50N4K2n9t0ut6CIyh8+Vy3qI5/qP8clxWUxzybFOPr/03BNu478QL3H3uerjGk5ukdDPLwyVf41fFdXOhvxRrns1HCWUHMXcLXqj/Nx5duoWAWCwiY4UJiMoxAMU8oLWgPBLj3/ae578guOqc94M4m9oUIOxX6eAiEQ/z21OscDFwgOspM4LrsuX7oACvmLeJLVR+jOG/uuK6fCYaUrFqwmJtWbCfP8MV8ykcUENqOhO4MtLPr3Fu0DYw/n9Nk56SaKfQPBvnNsVf493d+Q2NXM1JbMXv/dLrgugghyPPlcNXiGv7l6rtZU7QIgUHi1JTp9yQ1+JSke6CHHx14nB/sf5T2gZFdprXWdAZ7uP/I89y7/1Hag524+R60q0SkUCRi80hCDitLKrQJ60qW8d3Nd/CJlVcwJ2dmZaQeDzNYSEx20+zz9w2G+MnBZ3no+G7aBrpnhKCYCFFl8ealw7zaephBrJiHVyKJnVolFtoRijwzhx0VNWwuXTPpbS3053Hjki0snVM+5O/pTG5uqgOAI51nONB+clzeLFroSYmBGOKTNQPmhWAkxBNHf88P33mc7kAnplZ21b8sXsN1eTYtiT8q8VnjO7shJZsXVfH97V+mbv4yzHFGZdu5niQRFeWnDc/wb4d+Q0uwK2U/sZM99vBQw25+cvhJ+sJ9jGePyHUTNpHUzFvOtzbczg3LNpPnm3l1QsbDDBYSCWg5rE6B1K7mm+4Y6tefLjpbyzBt4U5+ceQ5Hmt4mdZJSQqYtCdh30GKv8Wx9NjXEW71u+fPv8P5vmb7CkIM0XZc18KI4fr+u+58UZCaFfMWc8vKq8mbgk02IQRLi8q4rrI+ZXBRqqhsN16hMdDCG00f0jMOU2E6U15yAGDyMTn7EtlHa01PqJ8nG17nX959lO5wH1raNTrcrMpCON4dUmDXbyCWXDG1Bp0cK2PHUPgU5EYlhWHJnJBJ/qBEjNNOakqDKyvX89833cXmBavw4RsSo6MczyeXka8isaKKh47t4pfHnuNif9uQDL5urMhTp17lF0efoW2wZ+h4SzTBJnkxJTrGuJH5poCqwkV8t/pOPrH8CnJnYCGp8TKzhUTawJ1sYptbLg108MvDz/P40Zdpn6YskxNlIBrirebDvHnpEJZWI26Cx7VdexBoAYW+PG5ctIX185dOmWvwnJwCrqvcxPLCcnCKz4wUuOZO8FEUrza+x8meC2MW6tOcKimJ7CoktptrH789/QY/OPAk7dFeLKnsuA8RF0vpA8Iyx42lcVcSOVETn2VMSJj6TR9XLarhOxtu44qSanKNXOLxE/H3ZXINgV0C+ZHju3mw4SV7r8ERFH2RIM+dfYNfHHuOS8GOMX0LsYSQ2vWQ01w2dzH31N7Jx1Z8tAQEzHQhMcVcGmjnZ8ee45Fje6Y8y+QwhBpTkJPWmqZgB/sa36M50IqBtiv5OedKRAnQcmjkqBKwft4qblqyjTk5BVm5hUyQQlK7cBU7yjaQY/iIyKGRzsNIUBzO9l7ireaDDFrhKWvvTMb1Ynri1Ov84vAuzve3owxN1NQoQ6OdVYNdNi0zJ4rpIN+Xy9WL6/i7urvYUVaHIf1YCQF2bvxE4pGuqJUAWoOdPH5iL4+eeJnG/jYCkRDPnHmDew8+wZneS2NqW6KAkBoMNFXzlnJP7V18YsWOj5yAgBnuAptJ5CoZvicTtIDmwW5+fOwZlCn4/OrrKc2bn72Np9EC2Rj/vQQjId649CFvNx9i0BqMTwQprpcqe+VC/0I+vWwn6xYum/IAw/k5RXxiyRW813qMQ32NGX/O0oqnz/ye21Zcy6I5w72kRmIKg4xTXFw57p3Ze85aa9pDPTx6fB8PHNvDhUAHCLvq3pRFDmYpCSDYguLKivUUmLlED8DrzQcJKTtVvELiWssyQaO5GGjjoYaXGLTCLMidw/1HX+BCf+sEWmhHUlcvWMHX6+7g+qWXz2o315GY0UIiExJrAeQYPhYXltLY30poWO7/zAak0IrOgW5+eeRZBqwQX1hzI0sKSic+ccZsHKOcR0uEU+4l03lMacWZnou8dPotLgXa7RWI8DHU5j00iVpO1E5maWtmfi4v2cBnVuzMek3tTDClQV3Jaq6qrKXrZB+ByABKalSaR+Xm5BIaLva38/7Fo2MSEoaQ5Bp+8mUelvO1GCkEZyJCM+7N1PRkZ0J1VxC/bniFB448z6X+1rhgkGLIdeyA+cTI6uFt8EuTOf4CgtEQwWgkK20cDz7DpK70Mv627g58ho9Xm/bTH+2326zA9sgbGi/lkirdSUuwk4eOv4QGesJJyS6TcZ9RKqGnJeBjQ3EVX6/5DDcs3TxiXe/ZzqwXEonM9Rfy52tv4tXG93mt6VBmle0SSAywag108eipvWgDvnhZlgRFxozNFBCMhHi1cT/vtjZgoZ0AxERNdXhHF4BUEmVIinPmc9tl11JcMC8bjR8XC3KLuGXlNcz3FdEXDmLJ9OVp7GhvOxunEAJDZj55SyFYOaeSz668mq7B/tiTSR2wmXBNDWsXLJ9x2Tu11nQN9vHIidf41ZFdXOprxnDnNyHGXOTHZ/rYXLKWFUUVvHrxA4LRjklodeaY0mBj8UruWXczpoa9Te8TsIKO195wAeGWNE5H92jCIQMEgssrq/nq2k9zzaJaco3ZGUmdKTNWSAgtHImdWUU3ja151JdUsWHhSgaVxdstR0cQFOmqsRHLY9/S08FjDXswteTPVv8fVIwxgnMIsRko0fsqxdtG+C0dZ/qaeeLsG3RaIYgJiMTPpnD/czxUpJZcW7GJaxdtmtY8Vj7DR13xKtbMW5J5CVAnTYhfZN6NpZCsn7+CFUWVqHQRtWkun2fmzDgh0TsY4IkTr3HfkWdp6mvCkPb3r8CubDiKqTSxxrkUPmrLVvNX6z5NIDzAH5sPpfjE1CfGzDF8bC5dzT3iM1hWhH1N7xHCHteW43xhm1CT2iYYt+NLLF1+0t8FgnULlvPXVTdx7aI6Cnw5sz4OYjRmrJCA8dnn/YaP2uJVfKv2Dn6w/zHeaTlGVFsJ2kV67dpNSeGWqwRNS28HDxx5AVObfKX60xT688Z1L7HzZ0jUcV3NhIdO7OFg9zksEa+mZpP+em7wWmXuPL685hPMmWAepGzgN3z4h2QFnd3XmWyCkRBPnniNXxx6lgt9FxFYjHsDQkuqF67gm9W3s7O8jlcvvj/65CcS12GTi9/0sbF0Ff9Q/wWCbwV5re0wytnAdhWebOOmLBfuuYWgat5SvllzOzcsqZ/1kdSZMrPUogSSu2e6hHKp0gnnGD62VWzgG7V3sKV0HTnCD8opFqLNeCKuJD9oDXZGUhH3/BFa0zbQxb0Hn+Sxhr0jFnlPj2Z4J06f5VUDUQOsDDSU830t/LrhRSwdid2H6wGS7lDC9iDShuRTy65i/YIVMzgbrkcqgpFBnjj1OvceeJpzfS0gFEK6kdQKEfNishGo+GSHbWpMVMKWF5Xz3+r/nOsr7clPxEbb8LTt9gmnfkXhM0zWFy/nX6/+JtVzlmNow6mJ7rpGu5YAGG/KlWFxEI6br4nJ6jlL+HrN7Xxs6VYKfBNQFmcZM3gloSfklJFj+Lhm8SZyhMm9h5/gjeZDDCgrVhYz/VWxB1pSioj+SIDvv/cAgUiIL1TdyIK88aSqHkP6byeAcCR6wwH+77d/SjBqCy6pbdfWUT13HHtu3cJVfGbl1RSOYxWhtV3LWGk9gt1bpPgXY7aTjxefNFNqw9pp81jjK6SQI2rXiTtJk5nyoyvUxyMnX+X/++Bx+kP9SDHUJOsmxYwhlNOxnb9qGVtJSiFZO38Z/2PrX3LtovrYR6SzjBVk4kChIIWyNhlIIVk2t5yf3fA9/umtn/OHloMMWGHbRRYw9QiWgkyvkeAMI7TEL01qSlbz1Q2f4call0+Lc8d0MoOFxNhQYni3MKRk26INWFIRQvN60zGiIha/yZC9gUTNSEu7BGFCpC9AfzTIT448jVYWd6y5jvLChRkKiqSVhFvXYQTcym7piCqLPY3v8m7rMcDp2O6KKMWAlUPstZLinEI+seTyMWdS1VozEB2kPdRLa7CLnlAfSrkrsQQbf5KtzI1Y1kPa596gdqJ905O+hdp5feg7fIbJttJq8pPMg1prOgd7aQ50ELEisesOaU5CW7TTaAEsLiilOG/utK26YhXlGvbx7wefoifcixTK2YFI6sdpNH2NdG7WnvyqS1fyrZrb2FFRO+R9popnNUjsS6lMoG6Ao5rCfFDL5lbwvU2f48cHJHubD9CpBrG0iWE55iG3Vvf9g93vAAAgAElEQVQYSRQQUoMPybayDXxt0x1sr6gek5PER4WPjJBIhyENdlTU4pN+QuoRPmg5haVGCb5y9yZSvNQW6uKBhufRWNy+5noWFWa/HoUAfEql1Ua11pzpa+bpM6/TOdgXb3OGmEJQt3Al11TUUeQb2yriUm8rv286yBttRzjT20xoIACOu7FyGhyfYB1tVDvpC4inRYkaYMlUZrjUJD+L+BN3zYJDJ+6NpWuoW7BqmJBQWnGw8ySPH9tDa6DLLh+KqzW67bY3RF2B5t7DX639FDct24bfmHohkVgP4qdHnqZrsMsW/ClKZQ7tC6mdJPzSpL5srZ3KunITPjl0KpCO9EysuZGq0FdMQOCmfZmadaIpDaqLL+P/2nALyjDZ3byfvvCgXRsjS1UnfcLP5pK1fLv+c2wpX4ch/zRNsjNaSIw1VD7dV2hIgyvK1/G9utv40cFneav5MFE11O1xmIbkDrSk5asALgbb+PXJXYRFlC9V3URlQfEYWpp4zjTtVeBX9s9U9EdDvHJxP++3nxiDm2/8miV587l20UZWz1mEOQbNqLm/g/848CS7G9+lebCLARUZEpg33Oc+fs1hefcdzTP2zqRnkpyYML2QGP56oS+PO+ZeT0EKJwMNtA5080HrcRp7W4kYcSGReI5Uhas+ueSKrE2A2tHmM3qv1rQEu3jy7Bv86vBzNPbbFeWGOrgOXQm7Ajv5uYIdJ7KldC1fWX8zOyvq0vr4m86YUqO4lbr3o7TTiimKVPSbPupK1/CX4mbCQrGv8R0iKug8k3FGlDv9zif8XF5ezT01t3N5xbo/6T27GSwksqudSyHZUVaNUAKpLf7YvJ9IgsaR2K9HHhC25nY+2Mb9p3ahDclfr/k0C/LmZLW9Iw20i/1t/P7S+7SHxp5jyhQGVfOWcmVZ9ZjSb3SFevnR4Sd48NRuBiIhhDCQsTQJkHpFkGhiG3NTx8BQU1rV/GVsLV9PzgT81xPTL4DdJ0a9BR1PETHy+2TGz8MNlPvduTe5/+iLnOu7BCoKQrhOzKNO4PGuZJuD6ouruHvDZ9hRWZN2A9ZdWUlHgipXYDB8fLhmJi0VWk7thnaumcPm0rX8WXSA0z3nOdF9CiuWoHD8512QO5dbL7uGreV/2gICZrSQyD45pp/tFevJMSQ/kpo3mg4QtiK4k4x0ftqaU+qO4Q4Qjaalr5tfHtmF3zL54pqPUVKQLoXH2GZILSAi7ER3KV9HEVERlNbxNjuvxTTHEbU5jXD+ywRLWTx5ch+Pn3yJgBUEIRMdZ6YVLZTtH++4LRf5C9hRWctlcxenNQNm0nQ3Ytf1c7BdLaeersE+Hm3Yy88PPUvzQDtSOyVHM/is1CpWCxoAQ1Jbuorv1X2e7eU1IxeU0iK2SpQoVJrx4JY+VY4gmepnpLWmK9TLh20naRnoIYp9T9L5b8wb2M746Y30svfiu2wtW8+quZVZbvXsYtaLSEODz5KYys5lP5pXSY7pZ0vZOr5dcydXl2/E79hiZUJnGi36FgAtkVrSFejnV8de5MHjL9IUaB+hvkHmj9q286afypYVlnNDxRaK/UXDrmEP5vTuf1FtcazzHK9dep/uwcySGJ7vb2Vf0wf0DtrRqtnKopqYoG2s2PsFjvOB81OgqZq3jJ0VG5nrLxz1HKlSN7h/z+Rvk01/OMhjDfv4VcOLtIQ6cCvKja1NjvlEmmwtXc/f1X6BHRWZVRyUjoARWo44JrSTfG+qs+sqrWjub+fhYy/xwPEX6Rzsd9oy8eSFA5FBXjr7Fv/0zi+52NeWnQbPUmaNkHA3PBMR2AIiNyopHDQpDPkwRnFxBTuYqr5sLd+qvZOtJesxhZFS3xBuQr7EbKnIIe6xAkXzQAe/OvkCj5zck7IexUjOvG5luMTDvU46nTffl8sNizdTv7CKHG0gtIoLOS2dz9qCQio5zO23I9TLqxcOcqzrHFE1ekR7Y6CNlkAXQpsgBVqKFPEpyfUGhjK8PoNEOEcm70/O8hmVEHX2NbRTD2NuTj7bKqpZM3/pqHstiROaex+pMoi6XmYjeZqlIrm96bKUxs11QwlGQvzmxCv86MATXOhtwnJ8mGJO1NJACgMpBAb2IYR9aCmGFD6SUrCxZA13V9/GzvKN5GQYSCiVnQY8UZAnCnR3TNptMkGbSGWMu57EWNBa0x7o5onje3n06Iu0BjsBEvrUGNzNU2IXLnrl/Dt8/+37Od2ZeeLJjxqzRkikwg4ISqiMZcmM98x8hkl9+Vq+vfEuNpWtwTRMO8TfSUWdasNvOPFh2zjQwS9OPMvDp/bQFUpRWzdhQkwVADjkrbF/jbCamFvBJ5dvZ35u4l6IcjS6kdtuKTjceZ5XGvfTPTh6HeD+SJCB6CBC66yV/Uz8nsa6z+l61GhBbBUhhWTF3EVsr6hjXm7yCmt00jVhOsqc9kcGePTEXn5w4HHaB7ucv6qUQiYRN0J4yGFATcllfLXmVq5etGlM1dIMZSC1aSsHCeNhyHcHzhi0K8JloqRlg+5QH789vpcHjr7ApaCdX8r+rpRzTPwaUoNWihfOv8m/HXyMo51nhxQu+lNhVguJiWJIydaKar5V93lqS1cjTBNLyHhUdqqiR0nRy67mb2ho7e/ip4ee5sHjuwhEBmIf0SI+2Vgy/V7DUOSI63dDSm5avo2tZRvsZul4tLXrGTTSQOmK9PHyxXc41HFq1I5vYmBqbR+WXY1suutDK+f5u/EXub5cLi+vZd2CFWPy2JpJaK3pGezn4Ybd/O+DT9AUTEyuJ52Vg30MxxYKUruHiUKyZsEKvln3ea5bvGWM5TQFUpsYlolU0tnbkEnvsOMp/BbkWJBrqTGvuMZDIDLAg8d28eMjv6Mx1G67MQt3jR/vExNdz7iZCwZUiF3n/8hPD/+Okz0Xx1UydzbzJy0kwDY9XV2xke/VfonNxWvxCz/xAecGWcUf0zDN0p2QHbNO50AP/+vDR7n/+C46Q73DTE8ii5rp3JwCvrvx88z1F9qCCIUkmlDWdSQURzvP8tTp1+gNj1wCtLxgIQsK5qOmYgbIAOnEXSRqtCuKlnJd5RYW5s0d9fOJHkszoRY1kJDNdQ8/PvwUjf3js4O792NoQXXBEv6f+r/hxkVbx57K2gkSEToueFKZEt3+bKp4Kc/Jwq6618sDx17kXw88Qmu4K1aCN1ZfS0Nm2/pjozcc4KXzf+SRht1c6Gv9kxIUHzkhMZ4x7zd8XF25iX/c9BfsrKghX/jiHS15JZFgSxdDVhrxQTQQiXDv+4/xy8PP0Rhos1NYOA3zWWS0wW5vyI4+4jYUr+Qv1t5sB0OJKKaK4lfR4edPWhkZGlCKPefe5q1Lh0bcm1g1dxH1Feswck0np5TMYHJN3qMYec/CLQXpHiOeWdurGZ/T5Bwjn2srL6e+NFN3RTGkDYmR9an2viYDV+8FYgWDHjj+Iv956Cku9rWOmrok1XOya5dHkaZia+kqvn/FV9i+eCM+Y+xOjO4qITEOZkifShoXtsCdvOlEacWFQCs/O/Y0//bhwwxEB4aZliY7PKMj1MtjJ17mF0ee5UJf25+MoPjICYnxYkiDrWXr+HbdXeyoqMEnzZjtO5FMhVD3YD+PHN/NIw17aOxvdbYd7cnZVNkNG7hj1Q3UFa8iNvVoNaI2lRg41hUK8OuGPVzqb0/7/jwzh5uXbmdjyRpnsziLjR8n7uY3SBbll/OJZdtTBs9lynTdk8YWEI+d2Muvj71IU2D89RuUUJimwdayau6pvZ0tizaM+1yug7RIcDIY3viJexFlgqUszvW38MCpl3iwYTc9g/1xgZXFaniZ0DnYy29OvcJ9Dbu40P+nISg+ckJiIsqEIQ3qy6r4+sbbuKJiPYYZ97Mei41TCwgbcD7UwaMn9/G7M6/TFwkAbm3eTDtWZnezuLCUW1ZcS3HOXCCKkmpEd0RNPADKkpJ3247zwvk/ErbSR2+vm7ecu9fdRn1JFYaceIIzd+M53TE6dtf1aR/XLdrC+gUrJtym6aA3HOC5c3/g18dfpLG/bULJD/3SzxWlG/jqus9yZUXthBLRCUAmZCWQaVZ5rslO4farcV8yJVprLgbaeezkPn5z4ve09vUild/eN4zvQmR8vmHxQeMQMm2D3Tx05iXuO/mnISg+ckJiopiGycayKr5Wcxs7yqvtPD1j7ESuB4olNI2BNv7YcoS+cDC2qTzqQBKZ7CnEyTP9XFuxmW2ldRhCDktpkQ53UHdHgjxz9g2Od5xN+16/4eO68i38j01f5otrrmNZURk+4u6RmcQ8uBNMNiYS5Zg3FheWcOuKazLy+5+JNAc72Nv4Phf6RzcxucTMPygMbZsYcyzN9gVVfGPNZ7imvJbCLKWyTuX6OhLZtvi0D/TwyIm9PHbiFVp6O5DKNRXKEVYyKcyZQI40uaJsPfWlVUhpoKSb92vs7WoZaOeRk7t54PgeWgJdo39gFjNrIq7deSXT4KeJ4Dd9bC2vttMRWBZvtRwmioW7mR1PtZzQsKQa0jG0iudXEsRqKqeqLTyczHqvFJIlReXctPQqDnae5Hx/8+hnFu7p7TQjBztO8cTpV1k2tyJtuo4c08+28g2smr+EO1dew7m+ZjoGeodpUskapRtvAPHEea4po2Wgi6dO/Z72UM+Qc4z0ncbSXGvFTcuuomrBslHvdyhTb1tKN8lGohEiY6gjnSgghFbk6BCGgs1lG/nq+lu5oqKWvGxUS9MjaZBTo1v2DQZ4rOFl7jv2Ap0DPaATC3HF+9yQlWeS4HDNripksW3lJu6u/ixzcgv47+/8lPfajmMo7cThKCdRYZr9wgRzm6HBiJh0hXt4+NhufFrwlQ03Zz81zwxhBguJ0SfIeHrwLBv5gTxfDjsq68gz/PzLhw/zVsshBq0ISpsQ26BLP9GnzeCa3WbGyPflsqNyI9e0buXxU7sJW5muROwsoYPREC+cf4srK2u4ccmWtBvAPsOkIn8hFfkL2Vq23i4BOk5C0UF+c+qVWD2MsaFYO3/ZuOthwMgxB7MCoQCT9cUr+c7WL3N5Zc0k5xkaud9n61na+ap6eOjoS/zo4BN0W0EntDSpryW4oKdqq9uePGlw1WX1fHfjF9hYugZDSO7d8bd8980fsr/pOEpbKcuCpcONQgfoDHXz7weepCcS4rsbb6Mkf/rqxE8WHxlzk23Lzq5t0JQGm8vW8c26u9hcsR5hmE79AWkfKQZk2r2L5ApxozGONXBp/nw+uWwHK4uWpfS6GvJ1O68n7pFcDLTx7Jk3aAp0ZnQ9KSSmNMZ1GELSPNDJ8+feIqjCKSKS00diGxoKZQ43L9/BqrlLxvycZiNuZbnEAEIhfVSVbeDrW/+SzRUbpiURnRvZna16EtqpBPnw8Zf4ydGn6I32YwcSJmUlSDDJDuk70gk6dPcqTD+bKzbwtdrb2FS6BlMaCCG4bO4ivr/1bnZWbiLHyB3qmTXK+FSORcC1CkS1xX1Hd/GjD39Ha7D7I7dHMbuFRCygbfIuYUiDK8s28HcbPk99yTqMYZlFZdLPiROPpRiboPBJk7qFq/n4km3km2PXriMqyutNH/J608ERN7GzwaAV5rVLBzjceTbjQRWLW0FRNX8R11ZuHF+dYT27VxAakNKgrmQ199Texc7KjdMaQOhuXruK2njXlnZK9E4ebtjFz489Q2u4O8Gsq2wBIONBrOnjXGxBYRomW4rX8Lc1d3Jlee2QgkFCCKoXLOd7m77IzkWbKfAVEFUgDHsFYo2yQh7iZCEUERXm/obd/OTI81zob8NSHx1BMaOFhGAEzdxhKga7IQ22lW/g72o/x5biNfhl8mZ2gqBIFaU9hSzMm8PHl2ylal46O/3IbottA908c+Y1LgbSu8Rmg4v97bzc+B6dGaQFAWIKgdQwx8xj5+I61sxfOiHb+8wIDbRJ1dftvj3cicEQJhuL13FPzV1ct3jT2APlskKqOImJjceWgU4eaHiBnx19luZgR7zaolCjOkYkv+aTJptLVvO9utu5srw6ZcEgKSQ1xSv5Wu2tXLOoHp/0o02DKHq480haC4CTFkZqAlY/D5/czQMn9nCuv+Ujk8JjBguJzHubcoq/T2YolCENrqqo4W/r7uTykqpYHAUMDQJzO+t0KapCCGqKV3DTkiuYk5QlNhMLVkRF+aCtgV3n33bSqGefQSvCW81H+KDtBNZYVhHOsaKokhsWTaQYfcZ+ttNCcsuSf68rXs23N97FdYvryZ8WAWGjhZ11ONHkNN7H2hXq5b6GF/n50RdoDmZeJ8UNqIP4HqVhmGwtXc1/qbmDHUkriGR8hkl9ySruWf8Zrq/chMROkJhpjQ5XMAqtMJSidaCTx069zCMnX+ZC4KPhHjuDhURmTKU26Dd8bK+s4b9s/gLbK6vxmUZcMOBmYh2aqtu1JY+VTCKP05Fj+rl5xXbqStYgpQ8l4rl34p1bki5Ctm2wmyfPvc7RrvPD0opkg8a+Vp498wfaRiiaNCxPkPOc86Sf6xdtZu385ROuNzzTTU6ushFLXCckdSWr+a+bv8TVi+pmlNtvXFCMTUPSWtPa38EDh1/kFwd30RHsj2cySBfA5/Rj4QaNJmRONnw5bK+s5R82fZ4dlTUZZbz1GyabSlfx9/Wf57riGgoMH1K6OdfiUd3Jh0gwW7p7ZaayaO1t5aHju7j/2Iuc72udlDE0lcxg76bMsAeRm1tmLCFv48NnmGwuW8vfirvIOejnjcaDDEZDCZvmrqAYH0o4oUET7FdL5pRyy/KraOi6RNNAWzy9QkKnHmmSPNJ1jmfOv8lcfwFFjsYea5JgxPalOq379oiKsOf8H/lj66ERWp9mw1pJlswp47oll1M4xtrcye3TU1Ric6zYrZLDyqf6pcmWsmq+uuFWtpVX488w3fdUELPP4+RQyvDRWsriUn8bjx7fzYPH99EVCiCQbsI0hvkbDREa8XTgQtvvLhS5XFW2iW9uuIX60qoxpSMxpUFN8Uq+W3snuUdNXr30AcFwELAF0kiZFxIFhXbGVUewg0eOv0TEinL3hluoLFg4cbfkaWJWCwnpFBoylKt5TM3t+AyTTSVr+MaGW5ERxWtNHxAicdK1tRt7Msr8vEooLKnsCl8TXKaa0mBnRS1vNR3l6bNvYOkIUiu7E+NkzUw1mIVCaslgOMDvTr1KU28r83PiBXyUM4DHm8gtbEV4s/kQwehAKlGAKyASBZh0JgIfkmsWb2HV/CUTXkXY11BokTq9vFb2H92X9KiTnz1DKK3ROsFLegzY8SVOOnkAYWdV9ZkGl5es56+qP8v2ypqpERAivjqA9AqFuxchHMXByHAhobTiYn8bj5zczSNn9tAy0I+BsIttCYFyvpTkWiix9CDCVsbc8eUTJjvLavnm+lvZWLJ6XPmqTGlQV1LF33ALQsMrF98jPBge2m7pjBsnjsQdB+6qPJYHTGvaB7t4pGE3hjT54pobWTNv8ZjbNBOY1UIC4jl8UuaWmUT8po+Npav52sbbCDLIm61HiOhoUgWvsU/0SmTHBiiEoKJwIZ9cdgXvt53gQleTvXpwTGOJSe2Gf9gWFI29zbQFOrLsWqkJjWGvI2ZyAZYWVXDt0nrm5o5edW7UVsxIpS7ZqUAipGBTaRV/uf7TbK+sJd8chzfXBBnpWblmQEPFj0xoDXTxyKk9/PrUS1zq78CUfoRyHUJGyDiQsHlsB7+Z+KTJ5WXV3FN7GxtLV+M3xy9Ec0wfm0rX8jVxG5FolDcaPyTsBMMmCsyYq8oIioPU0BPu54GGXVwKdfN3G26nasHsc9me9XsS02lX9ps+NpWv4Rsb72BzeQ1S5KGEjJfVnCAT/XJ8hsm2inVcXbkR09loNx1tz03rPOzxJdiCNZqQFSYYDWXxGBxhM08lOCG4dQEUhgKf8HNFRS21pauyJrRmmqCI7W85xbQUsK54OXfX3M7Vi+op9OXNKJOF0An1JJQiN+pG1o+8zOwPD/BQw25+dfxFLvV34dai1jI+bpK9lZIz9SIFChMhCthStpFv136O+rKqCQkIlxzDx8aSKv7r5i+zqXQdlpBYQibcVbz/ugbuxPQlseSTTvnX3sF+njv3Jj/88EnOdTdNuH1TzawXEuCaDabHi8Bv+NhWvoHv1NzO5uK15Jt5aUtyjk6yzXXiE8K83CLuXHkVVXOX2Ln3yTwPz3QQH2T2pqRblnXZnEquW7qFOf7UKUOycd1pJ6Fmt6EV6/Ir+OeNf8F1lfUU+HKnT0CkVXpcoe78JhTWKOMwqixePv8uPzz8JE2D3Qn7iaS5RsLVkm4/15fH5uJ1fHfDnVxZlt19Gp9hsn7hCv7XNd9h7cJVKGkSldJJKxOvLpkozIYE9SW1ORQO8cL5P/K703+gfzCYtXZOBbNeSMwEbdBvmOys3MA/brmLHaXVFMh8TG3EzWBJpR+H1E0Y5slhCxiRpcryQgjqK6u4q+pa8nLzsaRdH3omIgBD2xOkqewCSkoocnNyuKKyli3la1P6u0/omgmDPJtdKdOkh4looYiYYbQZpnbBYv7fK7/KziWbpnWTWmo1fM/GXWkKu8pi2FAETQj4IWyOvI7oCHRz74Gn6VYDWCPEVYgkE3Jy4aMcmcP20vX84+bPs3OS9mmEECydU8ZPrv8eVy/ejN9XQNiQDJoQkfb3lRjprYWKRWK7FSjtKpR2n+6P9PPgmZc50j05XoOTxQydLsbJNK0mwC4nekXZOu6p/gxXlVeTY+SgkON3UtLZWUm4fHzFVjaWrbZXXcwM4ZoOoZ2Nf60QaJYWlnPt4vq0iQfHfv64ppcc1zIR/zglJuaUpgQYpkF9SRXf2/wlti6umcDZJobbR+IpN1wPpqGBc5ZURAwIm4qwAdFRXGD3X2rgfF/rmNuTGJeQ4/OzvbSGb1Tfwray9VlXHJJZUVTGf6u9i49V1DPHV+ik5IGoiJu/3O890T0W4s/KVhQUzZFu9neeiif9nAXM+o1rwKl3DNnYB5gIhpRcsWgDfsNHz7sDvN15DMuyvSOm2+OyrHABX1x9HR+2HiM4EIivXKZRsA67vjuwZPxvhWYuW0vXUbNw5bg8VlJfE9zUDQbxOS1xcMfNBWkqFKYhFmApxm7C8kuTupK1fH3tLVxVWY+ZrfsdJ3alO0VEKmcFmi43k6NRy+ioHf1023mi0UEMY6gtPx2J340CDFNSt3AV39l4J5vLsr+yTIXtHrucu9d9Cilgb9N79Eb7kdircjdGwu0/0vHejRpx4er2qIAV4kjveSLKmlFuzCMx41cSrpR2JbTrYqecJZ3tzmkv/5QhHV+86cOQkvqKKv62/nPsKKvBP4YCPbGVxyR4apnSYHtZNdcu2ghTMLDGQ7yAjb0TITCoyC/hmsr6rGbXlCLunpI8Sbn1mhM91KRWCa6dqWc1gUAaxphWaO6qxdCQq0x2LKzhm1W3cW3FdKXaiOM3/Uif4ZhObNfs1HceT7gnhMZnmiMWOxqMhJFWChMWSWbY5NeAXGGys7SW79V9flJMjyPhN3zUl67ib9Z+khvLN1EgcnFdcN0VpLuRb2jHQSSF/qV0lEAkOGEX96lkZq4khHASlomYpDZVvOynJSDis78cU9g1l6OmQU7hHHzm9N+SFJKt5ev4pr4VqTV/aDlARIWxJxzXnzq5g9seHrbHBkhpUpQl84pLce48PrN8B4faz3K25yIwA/IXJQlEN7OmBAxhsKlkHZeXV2dtFSGFYH5u0ZCUHomBhTGhoePFmwR2Pe15voK0nlWGNFiQX+QEQ6bODjysLdreg/FZkq3FVdy9/lYur6gmP0sFgyZCYU4euTm5MQERz8yb+FM57qDKiRswmZtTSGFO+kBHu9aFuw9n/80WCkPrOLjPXuM8f2myo6yGuzfcyuXl66cl422O6ae+dA33yFsIhkPsbTlAmAg4sRNaDA+kdVdAbuifT0rm+PLtZzBLmJEt9UmTtfOXk2fmYSo7WG7oJrDEVBKfBT5HePjxsXbh0qz40GeDHNPP1or1fGfjXVy9qI4c04wVi1exQWLfm30Q25jTSPJ8eawrX5nVNpnSYFtZNTct3UquPw9L2gF/8TbYh0jYIBRaDnt9tGO8n098r9CSsryFfHbldSzMy+YqQrJ8TiXLC8sxheEUP5J20JaWRKV9WDIe2AZQWjCPFXMqMEXqIL4c08fmhVXkm4kTfOr7T9zMFkKysXwt37jiC1y5tI78CdTpzialcxZSmj8/VuzTVdCGmuRkbOUHkjxfLsvmLRpxAl9fsYo8f76z4rLHtdv/h64i4lp6juFn56KNfHPTnVxesX5CZVknit/0UVe6mv+++c/4WPkmco1c3CJkSjh9R8ikWvBxd9h8mceGeSvwTWPW3rEyI4WEX5rsqKxjzbxl5Fsm+RG7I1lCEjLtn7lRSdGgfeRHJKVGPltL1zI3Z2YICbAFxaayKr5RewfbFtUiTR8aCcpP4gDxuYcV9+BYu2A5NRWrs96m+blzuGHJZtYXL0UbDL1+Qjtc75KUr492jPPzOZZ7QE5UsrN8E9sr67Lu+rkgdw7bymsozVuQ4FlmC++wIQkZkog07e9KSwwh2bl8IyvmVaZtixSSNXOWcEXx2piQFNp+Fn7L/pl4CA2GIamvXM/X6u9iS2V1Vnz8s0Vx4Tzqy6uYZ+STE7WVspyoHRPhmlFsBzz7uWkk5YWlXF5ZPeJ5ayvXUFO6OiaADRV/JqZyo81lbOI1TMm2xRv4+sbb2FReNa0CwsWQknXFy/neps/ziYrLKfIVoTGxhO0mG5H2PBWR9rORzn1pYbCyaBFbnAShswXjn//5n/95uhuRjBCCAjOHqFKcaD1LeCCEQKCFJuqkdsmLSHKjAkNJcqSfa1Zezu3V1zM/v2jU808lpjQoy1vI8sJyTve10NTfi0Y4G1wCv2XgczRMgIghKM9bwD9t/nOqFiy17edZRApJodIFbZIAAAXuSURBVC+P7kiAo11n0KEI/qiBoUTsEAgsaf/0WwJT2YeR4TH+z+vYcyk0c/j+1fdQUVic1fsHWwkpzplDU28753taiCqNod10EAIlbSOzQGAgWb9wGV+tuY21C1aMKLAKfHmgBB+0nyIYCeFTAr9z7z4Vfw4AhmnXUr+75jauqqyb9j2IZIQQVBaVcKztDKcDLbjGH4m9+rSkiJlMhRb4DR9fr76Vj6/YOuIz8hm2Seq15sMEw4PkRe1n5FMCsMe36/1tSIOt5ev4+9ovsrlk7Yza6JVCUpw/l/Xzl9EXDnGmp4VBHUVj9yHblCYQ2rDd2RFU5BXzV+s+ydVTlVolS8xIIQH2RtHiwhIMBBe7WomEIwil0EJgaIHfkpjKpDC3kKtXbeXP6j/FqoUzMzeKISUV+QtZWlBOVyhAW6CXsI4ilSAvKvFZziRp+Fkyv4KvrP8UN6/YRs4kaZY5ho8cw8+JnkY6uzrxReSwST4ihT34LUGOZT9zQ2c22Y/38xIQQmMguHnlDr5Y+8lJuX8hBEW+fCrzFtAR7KUl2IOKRO22a4HUGqEF+b5c6suq+HrNbexcVDfqwDalQUnuPPqtEOd7W7EiUXIjDLl/QwvyzBw2VqznK7WfZeeiumlJtZEJ+Tl5lBUWc7T/Ik2RHixtkaMsJIqoMLCEwBA+FuTO5YurP8bdNTeTO4qwk0JQVjCfPCOH5r4OrP4QZlTHhGfUsNASCv157FxUx7dq7+CKsnXT7umVCikkxXlzqZq3hEA0zOm+NgZU2DbRaTCUgakEfmFSWljMl9d+nM+tvpZ5uTNLkR0NoWd4VEdPqJ93LhziD6c/4Ej7OTp0P1GtyIsaVOYv4ONrd3DVik2UFy2cls2ssRBVFqe6LvHc6bfY1/g+XYFu8sMmhfjxGSarKpZz/ZqtbKlYy9wsb1onE4gM8NuGV3j6wF6sgfAQ7S8sYcBv6465EWKrnMSEZiMx1s9rrVFaESKCJRTF+XP4x2u+Sk3Fmgnd42hErSjne1p44cwf2XvqHToHehkUCm1oSgrmccPSzdywdAur5y/OKOU02InrmgKd7D3/Pi+dfJOO9jZ8yp5QosrClAZXrdrCJ9ZdxaoFi2eE+WQkosriQNspnjr1Gu9ePEA00IMpJIP+XKKGj2VzKvjU8m3csHQTxflzMz5v72CAty8dY0/Dm5xpPkfUihI2ovQagxQVFnH94i18asV2Lpu/eFqr7mVKU38nz597m4ca9tEf7rdNchYYCGpLV3HTZdu4atEG5s2QPdOxMOOFBNgddTASJqKiRFSU/vAAPmFQlJNPvj8ve/7zU4DWmkErQig6SFNfOyaS4oL5SCEwDdt9cKoGRSgapivQg9/wIZPcCWOunCPHRqVlrJ8PDAbpHuhDoSkpnEdJ4cIpeQ7u9xEYDNIW7CYQCZHny6G0YD6F/jxyDP+Y90S01kSURTASojPQjUSQ78+lZ6CfuXlFFOXmk2P6Z7xS46K0IhQNEwwP0BnoosCfT57fziNlSIM8M2dcYzCqLEKRQaJWFA1YWtEV6mVeXhFF/vxxPfvpJGxF6AsPEIyEkAgGooP4DR/zc4vI8+XMCmGXilkhJDw8PDw8pofZocp4eHh4eEwLnpDw8PDw8EiLJyQ8PDw8PNLiCQkPDw8Pj7R4QsLDw8PDIy2ekPDw8PDwSIsnJDw8PDw80uIJCQ8PDw+PtHhCwsPDw8MjLZ6Q8PDw8PBIiyckPDw8PDzS4gkJDw8PD4+0eELCw8PDwyMtnpDw8PDw8EiLJyQ8PDw8PNLiCQkPDw8Pj7R4QsLDw8PDIy2ekPDw8PDwSIsnJDw8PDw80uIJCQ8PDw+PtHhCwsPDw8MjLZ6Q8PDw8PBIiyckPDw8PDzS4gkJDw8PD4+0eELCw8PDwyMtnpDw8PDw8EiLJyQ8PDw8PNLiCQkPDw8Pj7R4QsLDw8PDIy2ekPDw8PDwSIsnJDw8PDw80uIJCQ8PDw+PtHhCwsPDw8MjLZ6Q8PDw8PBIiyckPDw8PDzS8v8DENfRh97+mjAAAAAASUVORK5CYII=;" vertex="1" parent="1">
          <mxGeometry x="194.56" y="275" width="60.89" height="55" as="geometry" />
        </mxCell>
        <mxCell id="vbeuC_v3QueVd4-8y7Fi-8" value="" style="shape=image;verticalLabelPosition=bottom;labelBackgroundColor=default;verticalAlign=top;aspect=fixed;imageAspect=0;image=data:image/png,iVBORw0KGgoAAAANSUhEUgAAAYkAAAFjCAYAAADIAvdZAAAgAElEQVR4nOy9d5AcV57f+Xkvs6q9b7RvoGEIS8IToAH90HM4w5nRzmqddKu9W0kXF+fipH8uFKM/Li50J8WFThdxETI3WmlnR7MzuzOcoR3aoQEJkiBBgiC8R6Mb7dC+y+V790eW7y4ADaC7srp/H8YLsKsrK39dmfm+z/yMstZaBEEQBGEOdLENEARBEIKLiIQgCIJQEBEJQRAEoSAiEoIgCEJBRCQEQRCEgohICIIgCAURkRAEQRAKIiIhCIIgFEREQhAEQSiIiIQgCIJQEBEJQRAEoSAiEoIgCEJBRCQEQRCEgohICIIgCAURkRAEQRAKIiIhCIIgFEREQhAEQSiIiIQgCIJQEBEJQRAEoSAiEoIgCEJBRCQEQRCEgohICIIgCAVxi22AsLh4xjCTiDIRnyHqxTHW+L9QADbrnYqQdnGVjCNKDYMl5iWwWMqdMEopyp0w1aFyQloeeWF+yB2zjIh7Cb65ep6Ph45yZPwSV2auMu1FsRZ0lj4YBUpZ6sJV1IQqrvu5yub+C2CVxaobtUylDpr9oTfNfI5fOudXFmImztXYFFGToLOqmZAO0VHewM76NWxvXEtrZQNK3fDFEZY5ylp7q0+DUAIYazg8fI5/cfhnfDF2mvHEDNPWn0novDvAKL+5ysHVTsHPTB2nMek+TVv/WKsMpkA/lJy7YJOrnQrQVuccn39svoj5x5M83qTXTdPHp8+SsnHpnX+u32sLCZUgajwsljInjIOiQpfRVd7Ioyu28UdrHmVdfSdaZonCDSAziWXCeGya/+fYi7w7cJi4SQDgwNwiYMEzFrB4JAp+Zmp44SmTN/D1u8FCM4lMJ5vppPzVrrk7LW3Bm+v49Ocbck+V10EXOr7Ez5+Nl/VelMFVyv9UL4EHTBLneGSKS1MjGAX//abvsqKibs7zCUI2IhLLAGstvzj/Pm/1H0wLBFbjWFDJ8XB+h369+WXO261G2+yOUYMyc664GMCxYJOj2FSHp01uB5nfD6ZGykYljwewqeM1mtzzKzv3SH5JnX8OUmLjJM+fOwNRjMen+cW5D7mrdjXf6bmHcjdc4JMEwUfmm8uAs5P9/Ozsm4zFp/AUeEpjVWpZqPCI/7ZidXKknGoLjc5ty+78s+3RFso8zfjUOP/56BucHL2UcVwQhAKISCxxIokovz7/IWfH+mfthVolHcRyQlt/Y1sDpyZ6+c35j7kanSy2WULAEZFYwhhrODVyif0XDzMVjaGti7Ykl4ZEIJYXJj1z9DRcNRO80vsJnw+fJGG86x8uLFtEJJYwk9Fp3r1wkOMjF33vGatRGH+/INVughtanSqwCZuPtrPX4+eDznPfXW7HzxejDEYZPG04NXWJX118n6GZ0cUzQCg5ZON6iWKs4cx4H29d/oqxRBTjOFhtkvsPKXHQGOuPIvP3JdR1xg+zO7bc9xtlcl/L//x8Ecn/OU/A8j16ZgnVLFG6zvE3KGIlc/5Z5G6M530aKEtMx/lt/0fsa97M91c/StiR7kCYjcwklijT8Si/vvAJRyf6SShVuLMQlifKoK3hamyCf3fq15wcv1hsi4SAIiKxRPn66gV+O/g1I0SJO5n1aJ9ietkIQcAxJu0ue3z8Mj89+RaRRKzYZgkBRHqJJch4bJq/vfQJx6evEHc8PG2SnkwycxBSaLTRKKtJePB67+d81ne02EYJAUREYgny5dAZ3u3/kog3jSKBLw55G9XJjWyL39J+/Gl//ttNXtzAgpN/vuV2/rmxyh8wGDQGF23CaOPSPz3BX5/5gMvjg0WzTQgmIhJLjJGZcX7X9yUXp/r8KOBb9GQSljIabV2wLjEs+4eO807fV7LsJOQgIrGEiHlxDg4e542+g8RNFGeO5H23i1QSukJt3igRtMVAWX+JSeMnFTT4IqEt9EXH+GXvAY6MnMczcg0EHxGJJYK1lsvTw7zc+wlnp/uBxfW/F0oJncy3BWAw2ndsiBHns7EzvN7/BcORcSRBtAAiEkuGiBfni6unOXD1BNMma7kgf6+h4J7DQq+Zm+s0YbExSWcGoxIYlcAqw0R8krf6D3Fo5EwmGaSwrBGRWAJYa7k8M8ybfZ9zYTqz8XjLdXOEJY/R2ct7BmsTnBi/xKu9B+mflkhsQURiSRAzCQ4Nn2J//1fE4on0TMEqFmyN316nzR+ZWSwmRmlMdtEhZZLFj2AmHuGdvq/Yf+UoMU9mE8sdEYklwEhsgtcvfsrQxEgy0+dCubEKSx1lNQronRrkJ2ffZSAyVmyThCIjPckS4NULn/D2hU/BqtzN6msKxXX2IBY8bkIIItoCVmOU5YORo/zF+XfEJXaZI09/iTMWneQ/HXuNqImn025o6yeAk1L3wnxJVes2yuCR4C/Pv803V88X2SqhmIhIlDCeMfzq5PucHr+Mp8FLiQSZFNSyeS3MF6v8e8cxhuGJQX584mVGZmTZabkiIlHCHB+5wF+feReLLxAJnVUzWcRBuAmyU8Y7FkhE+aD/K97p/UKKEy1TRCRKlOl4hN9c+JhTU1fmiHI2Wa/p9GZkbjPXbNeLgJ79ebnt+rmLgpnbaLmTvv7pfF4OVyIT/O25/ZwZvSwBdssQeRpLEM8YPho4xuv9XzBhZmYVDLqptBiCMCcaz8InQyd45dwnjEenim2QsMiISJQgVyKjvNF3iHMTV/CUxai5y2DKkpNwK1ilsdoB5RCJx/ntxYMcGT4neZ2WGSISJUbUi/PFyBkODBxnxosW2xxhiWOTXYTFcmbyCq9ePsiwbGIvK0QkSozByBhvXPqCcxP9kLM+nLuWf9PZWAUhC2stHpa4NgyrKV4eOMhbfYdkNrGMEJEoIRLG45PBExwYOMp0YkaSVwiLglWQUJaEspyeusIvevdzdqKv2GYJi4SIRAnRPzPCS70fcXb68q3XbxCEa1IgW68xfDbwDa9d+oTJ2ExRLRQWBxGJEiFuEnw48DXvX/mSBAkpzCMsOr5zhGEyEeHFCx9xaPiUxE4sA0QkSgBrLZcmB3np0n5Go5OZKGpl5vRqEoT5c50svOl4GT9+4uTEZV7v/ZQr0yMSO7HEEZEoASJejA+ufM3Hg0eTr0g6baE4pAYkk/Eob/V/yadDx4l4kgBwKSMiEXCMNZyfGOTl3k8Zi0eA7NxMwa2/IDOcEicv4l4l84CprHxg5yYG+E3vJ1yaGsLY4N2Dwu1BRCLgRBJx3un9ksOD57HGd3M1aNmwFhaZfBHQxIzh/f4jvHvlMBEvXhSrhIVHRCLAWGs5M9LLe2cPMTM5Q1k8jDYuVoGnfddEv7qYXMZSJ7+in1UGGyDnBKs0VpFuKYaj4/ynU29wbPRi8YwTFhTpXQLMZGyG3507xMmhi2jjJ+qD7Jz/xbTu5pjVGS7j5qlMy/k+AiQOc5FabtLWzxR7duQSf3n8DeJS6nRJ4hbbAGFurLWcGr7A6+cOMOFN4zk6OXMotbV+g1V+x2IVxJPDklCyH/SW8bJZTlr3gns4KcEo7ngu7VGXJRDKQpkHIc/w9omP+LjzXh7o2V40G4WFQUQioEzHI7xyZj+nxy/hOYqEBk/njjBVQDeHb8SmlNipAu9PvX4tAbnWaQJ/vNXovPTu4FeEAx3I6zqLrBnPTCLKj79+hTuaummraSqiUcLtRkQioHw5eJLfXPyQqOsR1xqbEgiVzPdv8zqS/DrURVqymN25abB+h6osVBiNVhqFP73QnkUbm9xb8ZdalAXHJP++5N+RWmJL/11WJ9fGU51rwI9PCUL6OvnxBp42GGWJai8pEPnvWyz0NX4i83cr/w+xWJRVxBUkHNBW8fHkKX5+4X3+643PUO6EF95kYVEQkQggk7EZfnLiNQYTYyQc7Tu5Jqv5pEanJTHSTOIoTVNZHRuru9hc2U5XRTN1ZVUYzzA8Ncp0LJLMVaiwyvpuluSWXk1tlmZeSve6OT8H/fjsH1KvTasEx2JX+HryIkOxUby0O2mw9yZyPOwsDKhp/rb/I7Y3r+O+FZtxtGx5LgVEJAJGwni8efFT9g8cI4YBpbE5nUXQO47MGrq2UK5cNtT38AdrH+O73XtoLK8pqn1BZTw6zYsXP+M/nnqTI1fPkyCe3Mfxv89S2LYx1nB8/DIv9R5gXXU7bZWNKFUKlgvXQqQ+QFhruTQ1yEvnP2ZoZtR3O8QfrfmdRbAFIh+rFKuq2vmTtY/xvVX3iEBcg9qySr63ag9/vu5J1lZ3JpezfPfmUulmtYVILMJ7/Uc4MHCcqMROLAlEJALEZHyG9/sP8+XIaeJZdaptslZ16nIFeakpFWmtraE6VMEDHVt5tH0bdaHKYpsWeKpC5TzRtZ3nunZSVVaR9gSDIESwzx2Pk77eGBwLjlFcnhjg1UufcGFiQPI6LQFEJAKCtZbzk/28cekz+qNjWNfBs3ZW/epSYn1VG0937KRdlh1umLqySr7Xcw876nr8zf0SQ1uIJWJ8OnCMd/sOSV6nJYCIRECYjM/w0eBRDo+eI0o8HdlqlEm2XHfKTC2J5O+0yWmLTc5IVxkqHZeHWreyq/kO2cCcB0op1tV18MdrHqLJSc6+rM7xdrLKzApKLBb5dU1SKWMGIqO8fOEjjkskdskjT28A8IzHN6Pneenix/RGRm6imFAw9ipMMl2IAdbWdPIn6x+nKlRebLNKDkdrnujayQ+670FblQ6i9AnGtS6Exk9fb0hwaPg4vz73PqORyWKbJdwCIhIBYCIxw/sDhzly9ayfTTM1crQao1ItJRw66ZPvb2Rn8umYnLbYGAXGWqJ4OE6YP1r3OB1VzYtux1KhOlTBn9zxGD1VLf4LyWuainRWJONlApQFOLUXpUgAhjiGly58xMHB45Kyo4QRkSgy1lqOjV3krd5PGY+OoW1qg7D0EvcZBQkNe1Zs5qmuvbIPcQsopVhd08YP1zxEtevPxrT1R+muCcJG9myM8pc6M4MV6Ite5RdnP6BPihOVLKXVCy1BphNRXuv7gq+HTxO2CseAthqHEA4OOhm5m98pZLJxmtxI3fTvizOzaAk38F+te4Lm8tpFO+dSpcIt4/HOHexu3kgo6QrrWJNsqXsiGIMJPzGhP6dJKJ1sEMGyf+gYv+v7hkhCNrFLkeLfXcsYay3nJgd56cInxD2/VnBq7dlwY3sSxUyOlxrVugZCnqY64fKDtr3c37QRVzvFM2yJoJRibU07L6y8h+6qlqyN6uAsMeUwaxbst/7oOL+8dIBz41eKap5wc4hIFJHpRISfnH6DsxMXsSqMp8sxjiXhelgdw6qELwI2WWhozstVvJGktuB6mnBMURlV7KpaxQ9XPsCKirqi2LMUqXTLeLB1C4+2b6MqXEncgbiTdBAIUAbdZNYYtNW4RhPy/OYajbGWzwZP8uL5A4zJJnbJISJRJKy1HBw8zqu9H/npF7JEQCc3JQtlSA0S2kLIaJrdGp7suptNTT2yF3EbUUrRVtnAM1172NywCpUSB4IjELPJ3VPTFqa9CL88/zGfXTlJwnhFtU6YHyISRWJgZpSfnX+fK5EJlHJQ2pcJ12jCicxIDILZGdis+A2lFJubV/Pw6l1UhcXl9XYT0i5bG1fzeOcumsuCNUuz6JzmKU1cQ1z7/58SM2Xh4tQAf336fQamrhbbbGEeiEgUAc8Y3u0/zDuDR4iZQjUi9A1HWy/+bMNfE/fjIgwVFRU8vvZuVtW3oZXcUgtBbbiKZzr3cHeTv4kddFIldk3SuUJjsFh+N/A1r53/rNjmCfMg+HfbEuTy9DCv9x2kPzqS9WpmMzLV+Sa0wUu6FJJs6UjbZBxFSiCU1ddsC4FVhphr2Nm1kfs676TCLVuQ8wj+bK2nuo0/XP0tGkO5s4ls77fFdo1V6aVRkxW7AdlxPKmfjTKMmCl+fu4DTo30Lp6Rwi0hIrHIRL04b10+xDsDh7F5swijMq6t+bWPg4ZKFtRZUVnD91fdT1fVCtmLWGAcrXmwfSvPd9+P64QDm9dLzeF5lUkhYzky0cvPTr3HTDxaBOuE+SIisYhYazk93seLFz9mKjqNkzXiy07FkUheleBuWvubkmWqjCc7d3N/y5044vK6KISdEP9o8/NsrOvBC/DSXnpmkXcPK2uYsVFe6zvEm5e+JCaR2IEnuHfZEmTai/Lby5/z1chZrDX+UlD6t37HG8RN6rlw0Wys7eap9j3UhauLbc6yorWikX+87hk63QZco5MBmMW2an6cjQzwSt/nnJ8alEjsgCMisYicGe/ltd4DTHrTc78hK2fTrF9RIOtngfcvNHWhSh5o3cqOhnWS5XWRCTsuj7Rv5YXWvdQmwrgJNWvEHhiy9tMyddcNMS/G54PH+bj/CBPxmaKaKFwbeboXiel4hNcvf8LJ8YsYm5lipzcai9DR3yyOgjvqO3m8fSdNZZJ+oxg0VtTy3TX3sbWuB53cnJh/9uDi4Ge19eidHuDNS59xevwynglgBLkAiEgsGseunue13s8Yj/uziFSytqBS2EvG0FhWxWMdO7izoUfSbxQJrTSbmnt4avUe6sqrM3m6CEadiULYLCGLEOfA6DHe7vuCsfhUsU0TCiAisQgMzYzxSu+nHBvvu+Fjij0YLDQidbTDjsb1PNN5D3VlshdRTCpCZTy1Zi8Pd23Dcf308emSt8U27rr4GWMH4uP88tKHHBw+KbOJgCIiscDEvAQHh0/xWv9XTHuJZHF7SH/1WfEO+X7uah7ttmNTUbSZDscCjWX1fHflA6yuaVuIswrzQClFS1UDL6x9gO7qFVku1EF+rA3a5orBqfFefnHuPUYi40WySbgWQb6blgRDkTHeuPIl56eG0NZFWZ1M7xxsUmk30j8n/32w9U4ea99GSLvFMUzIIaRdtjet44XufdSoMr8gUfCnEf5gyPjPQsJa3rh8iA+vHJG8TgEk+L1VCRNNxDk4fJrfXTnGVDzmp9woUB8iOPhr29mR3gp/CaM6XM0/3PAsDbLMFCjqwlU8v/J+djdswDEuegGj7G8nimSmAOMyEYvwF8ff5IrkdQocwb+TShRrLSPRCd68/DWnxwfSrxvlF2UJvBdK2mXRFwvHOvzxqoe5q16yvAYNv4pdO99ZtY+uiuaS8JRL30FZtn559Rx/e+YD2ZsIGMG/m0qUuEnwWf9J9l8+gvU8bDKSOuH4LZUlM5MELY/smIlFfeg1yhocm0ARw9P+ZuiuxrX86R2PS0xEQClzQjzetYuH27dT7RTOoVVs76dZe2hZMRQTdoafXHif9/oO+7XehUAgT/wCMTA1yt+c3s+liSEcm0m3USq3vkpm7kQZmstr+DurH6CtqrHYZgnXYEV5LS+suodNjT0oxym6IMwXqwynpnv5q7Pv0jclNbGDgojEAvFu39e8O3IipxypVeBYCCcg5IFjgrvJaPGFrVw5PLDiTva1bqHMCRXbLOEauNpha+MqnujeSV1FLXHHdzNNbYAtZq3zm8HPKm74ZPgY7/Z9ScSTmthBQERiARiYHuXfn3qTMW8SqxKk8umnakXkVAAOpEholHKwCUtPdTuPt++kq6pZakWUAHXhSp5u386epjsoD4VRxgbYSWI2CsOVmWFevLifU+O9suwUAOSpv80kjMcvzn7A0fFzODqOdTyU9ggZQ8j4QmHSVd2SI73kv9lt7pw3C482Gle54DlUUsEDK7ayt3kjFU540WwQbh6lFGtrWvm7K++nSdVgYwm0Z1FW4+DgKIWjFPo6bbHJLI1pPAtfjJ7mN72fMJWQdOLFRkTiNnNk6Bw/P/cuhrifVz/lRmr95SWUCXyOHWsV4HJHXQ9Ptu+hs1JmEaVESLs83LaVF5p24U4lcGM28MubKVJiMRyf4jd9n3Lw6slim7TskSf/NjIRm+Zvzr3H+Yn+kpnep0l6URkFCWOodCt4duV97Gy6g7DsRZQc1aEK/qddP+Te+g3U2DBhq/yU4hiUzVRADAopU0yy7KmnFMfHLvKTs28zLJHYRUVE4jbhGcNHA8f4YOAIEa80p8ipusQJDHfWreaZjrupl1oRJUtjRS3/ZN/fo7O2A4OLURqDxibjdLTxg+4c47fscrfa+M2dR0sdc7OlVBX++/1ZtwYPPhs4zoGhYxI7UUREJG4TgzOjvN/7BZcm++f+Vhd5b2HeJPdI4o6hvrKWZzp3s76uUwLnShilFDvaN/Cn27/LmuY14JYT0y5x7YsFaELe7JYSjZDRhBMu5XGX8rimPK4JJ3Kb62VaKHlM6nidTEGTLRzXwzGaMs8/V1nCZXBqjK+GzkrNiSIiCXhuA1EvzhdDJzgwcJhpE8EoFaip/HzQSrOlbhVPdO4g5MjtUepUuGU8u3I3LeW1/OrCx3wydILR2CSJRAJtLS6ZpR6bzCILGqtsUij8zj3blTuFVQayfpc6PlWnPZX7yy93YW9oH04r5Z+XEGXKJexoqnVZ0bMiL2ekF7gNDEZGeaPvU05HLhN3PH+UZhSlOFFbUVbND1bex8qalmKbItwGlFLUhit4sH0LWxtXcXasn0ODp7g8MYxnM8n0LGCVxarMco8ymTvY5rwv6yiViQFKpSpHgU2KAti0aKTOcS0sCscoKm2Y9vIGOqoa2N2+iZpwxW36RoT5IiJxi8S9BO/1Hea9gcOM2yhGa//ZUcH2JEmZlp1Dp0KH+NaKHTzZvkMC55YYIcdlRWU9zRV17G5bTykEM6dWOsWzrriISNwC1louTQ7yxqXPuBwdxSi/BkPQp8YWf4MawPV0cjlBs7aine933suKirqi2icsHEopFKr4Va2EkkFE4haIejF+d/4LPh884QtEOhGfzp6TBxZlwU0uLVTqSh5v3c7uFXdIrQhBENJIb3CTWGvpnRjitxc+ZSQyBWFQJTItVoBrDK7RlMf92cTWhg5eWH0P9VIrQhCELEQkbpKZRJT3+g5zcOQUUS/m70W4GpQpiUC6lD86QKVbxrPr7mV9U7e4vAqCkIOIxE1grOH0eB9/del9hp0IVoPSKT/AfH+QoJGJttUK4o5mQ8s6vrN+n0RWC4IwCxGJm2A8Ns3fXv6Yo9O9mJAfoRpUSbgWCQ2V4Ur+fMvT1IWrim2OIAgBpDQW0QOEZwxfXj3DG5cPMhmfKrY58ya1FGaVwTrwePcOdjSvlYpzgiDMifQM82Q0OsGrFz/l9ORlINixEHORjpxVsLamlee798osQhCEgshy0zzwjOHQ0Cle7/2MSCKGwvdy0nk1qC2girwApc1s/Tc6kyah1qng8dZd7GxYI7MIQRAKIr3DPBiJTvCzM7/j0sxw8pVUfbkSwWo8pbFKsbF2JU+07aSpvLbYVgmCEGBKqIcrLsYaXr34GW/1f5l8pfS+OqvAU5qW8ka+3XUv25rWSOCcIAjXpPR6uiJxcWKIn5/7kKmEX5w9tRdRCjERGTSOE+LOhrXsa72TmnBlsQ0SBCHgyDDyBogkYrx84VNOjJxHW4u1YNHpUIg5N68DF5PmV55rLmvgW+07WFfbIYnTBEG4LiISN8Dhq+d5vfcgk/EIqGR+fUinVS4FtAXXOuyrW88z7TuodMuKbZIgCCWAiMR1GItN8c6Vw3wzcZFEem3JT7+hIIAzhmTZyOT/G2XQVuNYaHer+X7H3XRWNUr6DUEQbggRiWuQMB5fDJ3h9d5DXE1M+9owz7q9i422gNWZGU5SC0I4PNiymcdWbZdlJkEQbhgRiQJYa+mbGuH13i84PdGLsRadynukM0n8UiUa84XDFKEj9usIJwXC6qya2obu2hb+YPO3KA/JMpMgCDeODCkLEPUSfD5yhg+HjjARj2Q6XGWufWCAsMmawo4b4ulVe9jU3FNskwRBKDFkJlGAvshVXr/yFacmr2CVl0mtnV7KzxYLw2y9zReThddjo0iFe6OTFngK7mxew1Pdd1PuSpZXQRDmh4jEHMRNgo+GjvPbwS+ZMhFC9lpeTHMJRPEwWfvRnoba8mqe69jDhrpO2YsQBGHeiEjMweDMGD87+w79UwOkx955zkCZzlgnf87tgLU1Bd6/OHjaYB3FnuYNPNWxkwonvLgG3CastXjWYKwh7iUYmhljKj5TbLOEgGIBRzmsqKinoaJaBka3ARGJPBLG48O+r/j4yldo5aFwCNJM4UZI7UW0ljfwfOdeuqtbSs7lNe4lGIqMcX5ykP2DR/ls6ARnJvqZMRE8m0i+y+T9W4j863ej17PQ5y7X4292P26hv3+dfnfcAcdq7qldxz/f/gesqm+/cTOFORGRyCPuxfn1pf0krFdS8pBeDUtqgYvirvoe9rVsJlxC+ZniJkHvxCAHrhzllUuf8fnV04zGpojhYazFznIguNGOK+9K2utc2es5KCy742/VYWOhv3+NURBzDI7RXFQDROKxeVspzKZ0eo9F4srUVT4fOQ14aOsEMlju2vh7JOUqxH3NG2gK15TELMIzhqHIGB9c+ZqXLhzgd32HmDKxdGdQeLmuVGS81CmF7znpjq5he1MPTZV1RbZnaSAikcepkUtEjQc4mReVwaZGLskRjkqPZOYe8Sx2nERuH2oIa82muq6S2IuIeQmOjl7gp+fe49W+z+mdHgBrUIpZI8r033m9keitcqufv9yPv1Xmff7kc4lhXVUbT3XfTUOFpMG/HYhI5DERncYrnVCIWVhlUBaqdZiWcC2udq5/UBGJmwSHhk7zr4/9hneHvmbMTIOCsAInwJHtQgBRhnLH5aHWO9m54g4ppnWbEJHIoyZcRQgHZXVm/btEsPhxEQ7QWFZLlRPs6OqZeJQDA8f5l0d+xYGhY77AOVkPdrZIlNi1EBYfhWJzXRc/WPUA9eHqYpuzZBCpzaOnvp1Kp2KeRwXrazQKRmITRLzgbtzFvDgHBo7zfx99mQMjJ0gtF7jWb0HOjyUEA23BNRDyoCwBzaqCF1rvYUvtKpyAz6BLiWD1bgGgpbqB9XXdWWuiWd40WaNZm246699MKwYKf4lGWxg3M7J0Q6kAACAASURBVAxEx0kYryi2XAtjDcdHe/nxqbf5dPgYGIOnfXFzPQgnSicFu1A8UiJRnoCqONxTtYan2nZTFSovtmlLChGJPCrcMM+t3IOTs/FcOksdKhkdnjAJjk9eIuLFi23SLK5GJ/n5hQ95e/ArZkzGPp2cRTgykxBuEG3BMdCgK/lW125W1bVJAN1tRr7NPFztcF/bJrY2rUEple50AUwJfF062cEmTIwvh04xk4gU26QcEsbjk4Hj/Oz8h1z1pvC0wdMGx/gPu7J+MGB65pY3gxME8DMaqKzB210t69i3cgflUkzrthP8Xm+RUUrRXdXM769+mEa3Bm012uqMvz66+O6BBUilAtEWrDEcGTnN11fPBWrJ6Wpkgn937DX6Z4aBzBwtu1CSINwIFj/9TGN1HQ/07KKztvQyC5QC8lzOQVi7PNx6F4+27qBMhQGd9M/X+JGdOv3/mVYctDXphjJ+zYukG2zf9DBv9H7KWGyqaPbl83H/UQ4On0h9k/6/16oVLggFMNqgQ5btnRt4dOVuwo5kOV4IRCTmQClFV1Uzj3ftZlV1mz9zsNofoatMbqTAYXNnOREvwrv9n/PZ0HE8U/wlm0gixosX9hM1cbTNXWKSG1GYLwpLe1Uzj3bsoqlcoqsXCnk2CxByXHY2r+Oeli1UueV+PQkMRplkNbpUKy5G6XRLz2qSQmEVnJnu46Xej7gSuVpUOwFOjfdyePQ8CSwqueGo8Gc/RhlssmVX+9Oyib0smXXdUwOgrDQtFU459zVtYW/zJsplFrFgiEgUQCtNZ2UTj7ZvpaemHT94M3dpJ2gYlWq+G65RGs8a3uj7lA8HjhA3iet/yALyxcgZhuKTOa9ldwQmqDM0IVhY//7uqFzBYx176Kxqlr2IBURE4hqEnRC7m+/godY7KXfLsMrg2hiuTeR0bikPqOxWLEwyG2Zc+yv+2mqGIxP89Pw79E8XbzbhGcPxsYtMeTPJGUPSXjV3E4S50VgFZW6Ye1u3srd1E6ESynJciohIXIfmijqe697D1vqeZJicQZMgnVAsYEshVpEM5tPpfwE+HjrKL85/UDRPp6uRcS5PD+ac34oYCHOQvcyYu9ToC4RB017Vwg9XP8gK2YtYcEQkroNSijsbV/Fs525qnBCQWTMPIrkzGl/SLJpIIsavLnzIydHeotg1MjPO1egEloCpqhBosoUiJRBxB55duZetDauLa9wyQUTiBihzwzy78h7W13Zj1BzBXoEks3kN/oN2fvwyL53/mOn44gfYRb04sSLviQglis11M19V2cp/s/ZxymSzelEQkbhBOqqa+Xt3PEOZCmMNuQF1+dHBxRSO/HPbjNfTlInxRt9BPh88uehmWZuZQ5gskU15NOUjexTLjJSbuUkGr+ZE0viDHGU0ZcrhH619nI7yhqKau5wQkbhBlFI82r6LR9ruJvW1BW0/YjYZl9iUracn+3nr8iEGp0eLapkg5JOKus92/vA0eNoXjpCBBxs38kznTvFmWkREJOZBc3ktf7b+OTrLO5KV6ZJLOsU165oom1u1btyb4s2+g3x85SjRxOKlEpeHWrgRsgdeCeWLhEm+3u7U8sNV99NR2Vg0+5YjIhLzQCvN1oa1fH/VQ1SoSpSnsMaCCZhMZAf7zbGUc2FmmDf7D3FhaghjF2dpLOy4hMVVUbgGqf0+q/ziWf5GtU+5ctnXvoXtLesk/cYiIyIxT+rDVTzdtYct9avBqnQCQGVsTis6s/ZGkm6xCqa8KB8NHeeToRNML9Jsoq6smtpQJUpZwAQkXl0oNum6LElRiGu/ecmeyUmmjm+rbubB7u101Ejg3GIjIjFPlFJsqu/iya5d1ISrsRZscjQenGQd18Zow7nIAK/3fc7FqUGsXXhRqy+vobmyDpWV619uPmEusp0VHAMVTpidLevZ2bKOsCOz0cVGntOboMot47GObdzVtBqSoxpDZjRUCsRNjI8Gv+HDK0eILUJhojInxPq6bipcN8tnRVjuqFTLiu/xYyMyw63OqmYe69pOe2WjFBQqAvKN3wRaadbVtvOHax6iOeQXXLdZ7pqlIhTD0XH+6vTipOtQSnH/ii00hWsClcZECBgqU0xIAWXK4f7WTdzdvJZyV/YiioGIxE1S4YbZ17qJb3VsRysnKRCFN4sDQ1468SNjF/jr0+8RWYS9iU11K7mzehUh6yYTJaZ+o6+RikFYFqT30HKfoTU17Xy7ew8dFRIXUSxEJG6BtspGXui5j86qpvRrJumREcR+zjLHTMdY/ubcfk6MXV7w87va4YWV91Ol/UJO/rqz3IJCPn7RrDIdYl/bndzddIcsMxUR+eZvAaUUW5vW8mjnTqp1WTJSNNgRwtnLYuDfAH0zw/yn0+8yEZtZ8PM/0L6V3c2b8JTGU5loWkGArIA6FGtq2nmmew+VofJim7WsEZG4RRrKa3iqcxfrajpxsofoAV1yUnnLOspCzCT4bf8XvNP/9YJXsKsvr+H31j5CY0WTLxIBrRcuFBGrqXIr+VbHTrY19hTbmmWPPKG3iKM12xvX8Gj7TurC1bgWQsYkN2ODJRQKXxj8sqF+3e7UzOLyzFV+ef5jLk+NLKgNIccPinq++17CTgUka14s2l6EnVuY8vdErrtHUuBzhFvDXw5VrKvu4OnO3VS5MosoNnKX3wYay6t5pmsXdzWuIaw0Go+gCUSKVHCSk9P5GYxJsH/oOL/t/YLpeHRBbVhRXsefrn2Ex1u2UabK0kkI51qmC/pKVNDtKy38Z6YxVMXf6dnH5vqVshcRAOQK3Aa00qyv6+Txjh2sCNf6SzrFNmoOUqNifybhN4M/etPA1cgYL146yOnx/gVN16GU4o7aDv7hHd9id9MatHbmlNT0RjvzGOEXQJtUhtHksamfky2nhvJcM42896ViYlKlYvM/73ozk4VuQSf1HflkYiIcpdnesI4H2+6iSvYiAkEQ+7KSpDpUzmPt29jZtK6kyimmvJ2UBWMtX41f4JXez5lZYJfYsONy94r1/Nn6J9jasAqrFF52rAmzHQCC3gHmVj0QroVJFhDKnnFrC23hBr7TfR+ra9qKZ5yQg9zTtwmlFGtr2nh+5f3Uh+v8inAB83JKdcCezjTIBLMZZbjqXeW1Kwc5Onppwe2pcMM81LGV/27z89zdfAeO4+Ilk7vlC4RjDY7NTXwyHy8yo801240eT7r+RW5LpbjOOaZA/e6baflcb+YQ6JmFzeQR85shHHaoCpezt3E9j3Rsp8wNF9tKIYmIxG0kpF0e69jJ7sYN/gsB3Ni8VuejMWA9jo6f4zcXP1nwADulFDXhCh7p3Mb/uu33eabTd3fMrqbn75/MVZTo9i6HpQRgrqJR2d9Tdn+ryOzvqGwBU2bWMbfSUjZkX7NSL8qUusYqeX2dRILQVILvr3qAlqr64hon5KDsYmR3W2acGbvMQ6/9U6Zs1HczLbZB1yJPyFJV4nqqO/jfd/x9Huvcuiibh54xXIlc5Wfn3uevzv6O3skreF4i6Slm8HRWjEf6qGy7btTGGxGXrM9KfT/J7yX1sCgMrkkJRHJmViAti1Hc8oAhfzYQ6HvqOlj8QkKOMZQnr7EXjfGnW17gf9n9R1SFK4ptopCF86Mf/ehHxTZiqdFQXkMsFuOzoTPJDKsqwAmKcrsbpSwKmIhHqXDLuLOhh9pw5YJboZWiJlTJvSs28mjLXZQRYiY2g7GWBAajFF5eR62tQqFxrPI7UatRVuU0/3cKsMnO+0auQ2oMr2Yll/IT0vkpRZQyaGtBqczeTs77Um7H2t+vsBqdtMe3vfB/Vqmc9/oxOCqZUNKmz1GqWGX9RI/Ww7WGrqpW/umuP6azpkVSgQeM0tlhLTF+0LOPDy59zcHxcyS0yRqCBsw1VpmcUa5NjqKNSfBh31fsW7GBpu67qXDLFs2kdfWd/LPdf8TBgT0cHDnNl2PnuDQxwMDMCBPxSRLGS3o8aRyjklUCMyP41Des8b1owBB3DUb5QuEojTPnzCPv2sxZLzzrx+T+DlanZxTKM1jjz3xSgYu+NjmzevXsGYfJe80o/1jX8+NZ/L0QiDkQtXGiXhxjvMK25v9lAep3/WU6AypBzE2gQ2U8ufYBeuo7RCACiIjEAtFR3cwLa+7j7JEhBrxxSHlyWB14oQC/s+qPDPN272fc2dDDurqORfdZ39Wynm3NaxmJTDAwNcLwzBiD0TGuxqdIYFCpEblN2Wxzxtg6NcMAPG2wWBylqS+roVKHs94J5C0L2gIzv8zLKqdyWuqbmfaiXI1O4iVnI9r/MDLzimwsqV8n/89/q821XyV/5zsdWK5ERvl69AJHrp5lODpxva8xgPgCYZQBZVlb38VDnTsl/UZAEZFYIMpDYe7rvJPfDX3Db/u/xDMe6a4kZ/czIIKhDDYnoM0wZWLsHznKnqFv6KhqproID7GrHVoq62mp9DczE8Yj5iWwN7BsNNeYVKEIOS6udm6zpT7zse9GyBGu5L8RL0bf9AgvX/yUn5x5h76ZkYI7MkGaQaTwZ2AGSFAfruaJtt1sqV8lgXMBRURigdBKs6q6hae6d/PVxHkuTQ6ml0XI8w8PDgayXHc9ZbgYGebNvs/Z07yR9XVdRX+QXe0sWAd/O1gM+6pC5TSW1dBUXstUYob/fPodphNTC3rO242yoLVmU81qHm3dQX24utgmCQUQ6V5AKtwy7m/dzMOtd1LplAG+j71Nri9bZXLcHItJZjPYJN05fTxreH/ga97q+2LBA+yEG0cpRUt5Pd9ZeS/dVc3A7JiIIM4iwI/0L/NgdWUrT7XvZXNdT6CFf7kjIrGAKKVoq2jgiY6drK5ZkVtUJWsmEcRn2Xfq8YOeJuIRfnX+I86N9xfbLCELR2s6qproqmpOz/Cy4yiCSErIwoS5o6ybB1u3UbMI3nPCzSMiscCUOSF2Nq3jkdZtVDna37DTfvNLNWYoxowifyYzK8DOaJTVfDNykV+e+XAxTRNugJByqHLLUQQzuC77/krVrvaMR61byyMdd7O2evEdIoT5IVdnEVhRVsdTnbtZXdORjOhNkE7nkBxZBWHJCWanc/DzKGmMsfz87IecGO0ttolCFsYaphPRvI64qCZdEwW4KsS6ii6e7L67KM4QwvwQkVgEHK3Z0byORzt2Uu5k4g3S7pQ2lRqucBbShULltZDJNEUmx5OyMBwZ599889KCFyYSbgxrLYPRcfpmRnz3XhRh47diC0V6BpGf5sRqGkO1/N2Nj9NZ2SxxESWAiMQiUeaE+L2eh9lRvw4XN1nqVM/5MBfrAU9VqnNMJhDMx2C1wdOGtwa/4tXegyIUAWA6EeWtvi+5ODOU83qQlpsyGLQ1hIF7mzbyfM9eHC3dTykgV2kR6alu5XtdD9DmNOMYnRaKbFI1foslFDZrTVtbCHm+aCS0Ie4Y+hKj/JfzH9A7NXTtDxIWFM8Yjo1d5PW+z7kan06/HnP9FhShyNRS97P4tpXX8QfrHqFcsryWDCISi0hYuzzcvo09TRsIpSuy3VyauoUklcIZkgnsSNV3MMSNx1ej5/ig/xtmFriCnVCYocgYvzj3AYdGz2KyosMTyVTrxXSCyD+3sgbHGBwFj3XtYmfbhiJYJ9wsQeiTlg1KKTqqmnhq5R5aKpvw9Nx7ECqZrO5aldIWgmvVMvAT1UHYMwxPjfDG5UOcmxxAkggvPjEvzluXDvLShY/8TWtrsdbiYdP/v1hkC4N/v+hky+Sf0viDjXVVbTy76j5qysTltZQQkVhkytww97dtYW/LZrRyZtUISI0Ei7VccC0XylT9hJgX58uR03w8eIxpT2YTi82J0Uv85ck3GYiMppPU5gh6EXU7U0go+0VNhVPB0yvvZ0vjGnF5LTHkahWBtooG/s7q+1lZ25ZbnEZBwvHXlItd1e5aYqExDM6M8PrFTzk51rug9bCFXKbiEf7NsZf5arwXrM5xofYz42Zlnl0E0p5x1t9jyxao7Ht4U/1aHuveQ224apEsE24XIhJFQCnFvhWb+F7XXip0OUb5D1nKqyiwpSeSGAUxonxx9QRvXP6CqBcvtknLgqgX56/O/Y7fXvmSqPXThAfpXkmnRreZn7GaxrI6nl55Dxvqu8XltQQRkSgSYcflD3oeYH1dF57SuAbCCU15XFOW8AUjuBg8J8GwN8o7Vw5zWtJ1LDjGGg4Nn+JX5z5gKjKJtplSqwozK95l0cmyxbEGxyRnOEqxsW41j3XtXNSaJMLtQ0SiiHRWNfFHax6i3AkBmXrJToBGh3Pjp3k2ynB49CxvXD7EZHym2EYtWay19E4P8ctz7/PN1bMovOCkmM8jf7mrvqyWF3ruo7OqSWYRJYqIRBEJOS7f6tjKPSvuQCmLVQYvuXENZKJVA9gh+CPGBJF4hJcvHOD0eJ/sTSwQk4kI7/Z9yXtXvmTKm8EoE7gcTSl825IJLJVhb9MdPNh6JxWOxEWUKiISRaalsoEfrLqPlopajPIjm4PaAeSi0cbFNXB+rI93ew8xHY8U26glR8J4HBu9yMvnP+Li5AA2Xas76BgawtU817WHzqpGmUWUMCISRSbsuOxr2czjndsod10/7V/gnycNJow2YVzPxYvEeef0QU4OX5J0HbcRay2Xxgf5xbHfcaj/NJ6xaQ+i7BXJ/KSMxc7bBIaQ4/JY+3YebruLkJbaZqWMiEQAaK1o4JGOXayp7cAqRTCr1mWj8YsauuhkrqdLY1d4+8xnjEcni23ckiGaiPHB+S/56NxXROPxrESQmTX/4gvCHCjFqqpWHm/fRUt5fbGtEW4REYkAENYu2xrXcl/7VupDlZkHf46I62CMFFNk1p6n4xE+unSY44PnZW/iNmCs4eTQRV469j5DkatJ99JUXERwH1uroMqtZF/rXexZsRFHAudKHrmCAUApRUtFPY+0bWdtXUdJPVhGZZL/nZzu591LhxiLlFa95SAyHp3ir4+9xZGJc8QdPwNv0PED+hy6K9t4pHUHreUNshexBCid3miJE9Iu2xvX8GDbVirCFaTrS6QI4IzCKEg4hkjIMBU2DIZm+MXApxwbuyQ5nW6R35z7mF8NHWS4PMFU2BBzfSHOyYl0ja940fYocma7LhVuJQ+1buPu5vWEHdmLWAqISASI+nAVz3XdzbaG1ajMqnNRbboW/izCb3HHEHENx2MD/OTCe4xnpa8WbhxrLfv7j/Bvz7zOJTNKxDXEHENCB680aS4abRw2Vq3k6Y5dNJfXFtsg4TYR3B5oGaKU4q7GHr7dvYf6UCVYnUyWpnOSphV7BnFNlOGl3k85PHy22JaUHNZa+qaH+ctTb3Bi4gIqWd42iOjUvpMy/n1pNXW6gidX3MWuFWtlmWkJISIRQJ7r2sPd9esIo9L5nEqB1NLGVGySn55+m8mYRGHPh+lElNd7P+ODocN4NlFsc24Ak+OKu76mkxfW3isFhZYYIhIBZEVlPX+4+iGanWpCBtw59iyDOMJUQNhatPX46Mo3fHj5MHGvFDq74mOs4fDoef7m/AdciYzhL99kHs/8gj6Fan9cqybI7SA1EEjXrsDDWouDy/Or97C6rv32nUwIBCISAeWejs082baVyoSDayg4owiSWGilcK0ipDSj3iS/uvgRZ8b6ZBP7BrganeRvzu/n67Fz13UhLva3mRKdTOS34a7GTn5v7T6pW70EkSsaUOrKq/n+2gfYWN5GZRxCJtdTJXt0GASh0BYwFmMMynEwIYf3h47y4oUDDEXGi21eoLHW8s7lr3n94hdMRqNYqxatGuF8Sd13ntIYNMpoat1K/mzj4zSU1xTXOGFBCOadKOBozZ0ta/n2HfdT61QR8nQ6O+xCLCPcCtkiZa0lGo0SiUQYjozztxf285sLnzASmZQZxRwYazg62stPT/+OK1NDfhZgU6R03zdITkoQ7fJ019080rataPYIC4uIRICpDJezb9V2tjSvIWwcQp4/eotr0tliiy0WKYFIzXIcFC4KlTBoY+mdvMJPT7zNb84dYCQyUTxDA4i1lqGZcV48vZ+vhk6jrUfIA9foQMwOr42/JNZd3caz3XuoD1cX2R5hoRCRCDBKKXrq23msZxd15bVpQch2hw1KX5JThhUNWmGtxTMeJ8bO8x+OvcZ/+OZ1zo71y4wCXyBGIhO8dPYAL5//mOn4RNqttNjCfz0UfsdR6YR4pO0utjeulSR+Sxi5sgGn3A1zf9ddvDnwNeevHMSS2cBezFrGhcjuzIxKCgTJjiRZocyzhtOTl/j/Tg1zaOQkz6+8h4c6t9Fe3VQco4uMsYbz41f4yYm3ePniAS7ODAB+NLXnBD+9IxiUsvTUtvBEx3ZWlNdJXMQSRlkZ1gWemBfntQsH+R8+/zGj8bFMIBPFF4lsLBnRSAlYKJk63KIxChyraAhV0V7RyJaGHrY1r2V9XRetlQ00ldXiaCf9eWfGLjPjxeY8V8J49E2PMB6b8mcm+V/EPO/qQm/PePCkCjcrKt0y2isaC5bjVNf4wKuxST7sO8z+gW+4NDXApOfX4NA2FcGe/J6uc2WLed2tMlSHy/mTtY/zj9c/T1tFQxGtERYaEYkSYWhmnH/x9d/wF6ffxNp48lWTM3IPAvk3UyipZ6lqaun3Jf9fodDJUaiySYFIVV7L+jSV5+2TTpSbvH3z1/CNzg30yj8+n0J7ABmN0On3qSzb58JfEjRzLhkpDMYaP6tr1pzBMRoLxJ1kbiZzbXuLe70V25vW8s93/jH3NG1Al1BCSmH+yHJTidBYXs3THbv4oO8wZyYuY7QhiFtKqc4rO+gr+1+b9bNNvzM1Sjeo5E+zii8pM3eK7LxUJcr65zDK5nXS3jVTbGcfP+fvVMbaDHMriwW8OUXCJEXGoAGTWjYkdxYWZLSFWreKJzp2sbGmSwRiGSAiUSJopdnetJon23fyk5kxRr0pbLJTzXnfHHEUxSB1+owdyRlP1n7KtXC1Snei6U+40dgBC9bM/g5utg7DfNOiKOvPDJyCb8j+TOPPJ1KzE5v8pvLrmi963ETq/LmZh0OeZnPjSp7o2EmDeDQtC2QYUELUl1XxROdONtR1o7SDUTow3k3zRV2naaNx89pcZToLNWW131FnNWW5qXZTf9+cn6X9v+86HX5Qc3Vpq2lyani6fScbaztls3qZICJRQmjlj+Iebt9KdbgKL+cZzRp5BjRaV5gLv25I0N1eAVw0d9b38ET3Lsokid+yQXqTEqO2rJLHOrazvXEtjhPCqMyGqraIQAgLRmO4mqdX3U1XbUuxTREWEelRSgytNJsbuvhO1x7awg2zl1qKbaCwJEi7/iarzjlWc1/rZh7q3k5IKs4tK6RPKUHK3DAPtmxiT/0awiqzPap8nyB/ASOg69pC0DHpZrOcDloqGnmy627aqhplL2KZIUOCEmVldQvf69rL4cFTXIoO5Hk5mcyyU76XTIlg8G7tAwLfj6XGZ7O9iKBYm9cGq4x/zyTvH6s0rnHZ17qFe1o3ySxiGSIziRLF0ZpHOrfxaNtdfjoHVTDIVxBunKxBhR/QCJ3VK3i2ey8tlfXFs0soGiISJUxNWSV/f+OTNJbVEnMg6qY8ZLT/sJfoLEJYPLIr3qVqVacCGS3guC4Pd9zFg21bJHBumSJXvcTZ0tTDn69/hnLlyj6EcJvIdAtra1r4B+sepSZUUUR7hGIiIrEE+Hb3XvbVrac84aeumJXSQggwmmI+hgqTaTYVLe5HjFcQ5vdX7mNdbUfR7BOKj4jEEqCrqpnne+5nRXn9rER6gjA/MqK1tW4Vz3XeTUgXTDAiLANEJJYAZU6IvW1b2N62GeOCl5cBVRAKo+doUONW8Gz3HjqqmsXldZkjIrEE0ErTVdnMkx276apcQboYtiAUICv3bs5rCQ0xpdi9YgOPtu+gwpH0G8sdEYklQoVbxv0tW3ioZQsVyhHPJqEgFvC0xtOZpImpWhYR19Be28xz3feyprZdZhGCiMRSQSlFR1UT3+vex8pwc2AziQpBwE+1oYzOy/VlKHPD3LtiEw+0bKFcZhECIhJLCkdpNtV183TXHqrcymKbIwQUZcH1/PTpRmkMfgpz1yruqGzh2bZdtFVI+g3BR0RiidFcUc/jnXezrkbcFoXC+Pm9NNr6tTrKEppmqni84S7ua9xIhaQCF5KISCwxlFLc2djDo+07qHYr0EZft16ysPzwtMHoBCEPKuKaipjLXeEunmvbQ2tFQ7HNEwKE9B5LkJpQBd/tvoet9T3JhQRByGCVwagEqASKBABVoUqeWrWXHa3rcbR0C0IGuRuWKOvqOnmhZx/N5XU5r9u8JixDlAEVw+oYnpMg7nqsalnJs+vvpyJUVmzrhIAhIrFECWmHh1rvYs+K9bjKSS85ybxCAJIu0n5q8OrySv7u+odprZIsr8JsRCSWKEopOquaebZ7L22VTQA5QpFqwnLDoKyf40slq8492LaNR9vvkiyvwpzIXbGECTsuD7TdyX0tmwgpLRXrBCBTmtSiaapo5Ac999NUVlNco4TAIiKxxGkur+XZlXtYVdGCY1K1sCUae7liFenYCKscvtNzP3taNspmtVAQuTOWOEopnuzcybdX3iMRtALgDxQcq9jZsIZvd++lNiyBl0JhRCSWAUopXlh9P2saukjo3FoTqdw9+U1YmjgGQh40uZU81b6bzXUrJbJauCYiEsuE1XXtfGfNfYR1KP2aiMHywyiwSrGxtpvH2ndQ5ZYX2yQh4IhILBNC2uGJjp1sbe4B8vYlkl4uOU1YUljAUxBzwC0r46HOnaypbZe9COG6yB2yTFBK0V3ZzAvd99EcrsosK4kgLCuM0qytaefhtu1US91q4QZwi22AsHiU6RCPtG7nQP83vHrxEzxFOux6VsnTPPGwsmxd0igLKP+Bf65jL+truyQuQrgh5C5ZRiil6K5awbPde+mpbffrYWu/+aka8pqwVMX7/gAAIABJREFUJFDJWWPIg21VK3m0bSuVrqTfEG4MmUksM8qcELubN3Bv6yYuxYaYjkeSv5HxwlJFW03IQKNbw/Nte9hQ2yUeTcINIyKxzFBK0V7VxA97HmEgMs57/V8x7UULvDt/NiFCUopoDPVOFY+2beWZVXdTJXsRwjxQ1lpxhFyGxLw434xc4C9Pvc07V75kMjFNzCTQKFyt0nmdlFI4ygEsCeMV02ThJnC1Q1tZPd9q3cl3Vt/PuoYuQlrGhsKNIyKxjPGMYSoe4fDgac6MXmZ4ZowyJ0RtWSUaXyhc7VJfXoNnPcaik3jzSOmRqrN9s5vey/V4ZW9f8sXasmo2NK6ktbqJilCZbFYL80ZEQhAEQSiIDCsEQRCEgohICIIgCAURkRAEQRAKIiIhCIIgFEREQhAEQSiIiIQgCIJQEBEJQRAEoSAiEoIgCEJBRCQEQRCEgohICIIgCAURkRAEQRAKIiIhCIIgFEREQhAEQShISSWW94xhNDIBQH15DY4ubY2LJKL0TwxTV15NQ0Vtsc1Z1lhrGYtOcXV6jLryGurKq3C0U2yzBKHoBF4kjDVMxiK8fv4gvzqzn5OjFwForazj4a7t/MGGR2mpaCgZwYgmYhwdOc+vL+zn7b7PGZ8ZpdqtYEvjGp7s3ssDHdtpKK9Z8Lz/xhreOneQf3vkRXpnhgG/rrXOK2t5s2UubyYDvbIGlIfCoD2HP9vy+/zh5scXtNRm3EvQOznEfzz6Wz7sO8zV6DjVoQq2rVjDD+94lG3N66h0y+Zlg7WW6USMr0fO8fK5D7kw0UfM82gqr2dH6waeW7WXprLakrlnjTWMRCb5uP+o/x1FxnE0dNY08VDnDrY1raPKrZjXd2SMYTI+w7GxC7x69mM+6vuK8cQUTdUNfKtzN99ZtY+u6hbcEhFqay3jsWn293/NaxcO8M3VC4Ssw+a6Hp7q2cM9nZupcstLsmxsoOtJTMdm+OLKKf7157/gg8tHSLiWVGfmY1hZ3cY/2f77fGvlbhoqagN7Eay19E8O85+/eYX/ePxVBuPjQKZIPUDYDfNg53b+2zu/x+7WTYSchdFway3fDJ/j/zj4X3j70mfETYxUqVKliycSPkk7jMe6mtX8+Ml/xtqGjpv8rMJ4xjAwNcKLJ9/n/z38a4ZiY3jaJM9vMNZSFargu2se5h9sepYNDd03dD1iXoKvh87x74++wivnPmQ6MY2TLCFkFRgFq2ra+Z+3/R6Pde2iuaIusPcswHh0incufMG//folDg2dxCNB6jtCGUIhzZMr7+Mfb/kB25rX3dDsK+4lODRwiv9w4nXe7zvE6MxVvEQcT3lY/HKrG+tX8+ebv8uzq++nrrwmsN+RtZbpeIRP+r7hX331Mz4Z/Cb9O201Lgrilgc7d/I/7vo97mpZR7kbLqLF88f50Y9+9KNiGzEXsUSc/b2H+Zef/ITPB09gHQ8wKDys8v8fLBPRCT4dOoKrNd01rVSH5jeiWSyuRib48dFX+PGxl7gaG0Nbhc6rQBa3Hqem+rgyM8qW+lU0V9QvyN8yGZvht5c+48UL+xmNTpIpVmrT50t38Vr5RqrbVy3t2vgnUxasStBaWc+2FRtu68zKWkv/9FV+fOxV/uKbVxiOjoLysppFWUvMxjk5epmRyBQbGlbSVH7tQYixhm+Gz/F/fv5TXr/wEVEv6l/j5DH+X2YYj05wePgMZU6YtfWdVLplt+1vu134y2+T/Pz42/xfh/6aU6MXsCT8Z095aCxWGYwxHBs9z+nxK2xbcQcryq8tesYaDg+e4X/75Ce8cv5jZuIzWM8DLMr+/+29eXQcx3no+6vqnsHOFTt3iiRIggBIkKIoUtRuP8uWbe3ekufkJXZky2vim9x7825O7j9+5513khs71o3jXZK125KsnSJFSpZkyVop7gR3EiT2HTMYzExXvT+6e2YwmAEGwGCT+6fTAoGZ6a7uqarvq6++RSDRCBSdgz0c6jxNvi+fJUVl5Bo5w1a5043Wmu7BPp478ybff+8+DnWdRArQQoOwnw9Co9Bc6mvlXE8ziwtLqCgonlWmzBkpJLTWXOhv4T+P/o4/XPwQSzodU2iQIIVGSBDCPoLWAMcDjRhCsqywnCJ/wYwSFBErymuXPuRHR39Hc6gNIUSs7UJI53eBloKoVJzrb8FUkm1l1eRkWeuwlOJY93keOLGbw92nEQoEItYWEGghUEKjhS0s3AM99PeRjkxxvyWpFQIdP6QmosP4DNhcUs283KLsPAAgZIXZe+l9fnXqRRoDbSAse2CjXHmIgUAIA0tHaQq2s8BfyIaFK/GbvrTn7Rzs45fHXuDpc28yqAYx3DqkzqQRq2eKJBgJ0zPYy7K5ZSwpLJtRk4bWmrZgF0+dfo2fHXmapkAbSIWSltNP7Pty+60QBueCbYSVxZXl68kbQej1hYP8+/7Heb7xTYRQSG0/dyVwFBIJ0u6DPdEgDX2XkBiU5y9gjr9gxggKrTVdoT6eO/sG/3H0Kc70NSKJ92HpdCQlbaEntKZtoJ2e6AAbS9YwL6dwRs1RIzEjjaKWVhzoPMmb7YcZNMK2RCbxGIoScHGgnV+f3MWjJ3bTGuyc6iaPSMdAD/sufciFYIt9ByP0DS0gSpS9F97nTOfFrLelLxzk9UsH2d/RQMSKjvheJeJHqt8z/WyqIx2x+VRJLK1o6DnDB+1HiSprDHc5Mp2hXvY17+d0sImotE0cWgztV8pZuQggMNjHS2ff4GJfS9pzaq050X2BFy68Q78VGrUNEaE43neR3zd9QH84OJHbySq2gOjmqTOv84vjL3Ah2EpUWFi4zz99jfNXm/bzTtvxEc9/sv08+5reBxVFans8u8Im3oj4tHSmv4WfnXiBh0+9QmN/G2oMNdYnk75wgOfOvM7Pjj/Did4LaOL9UwzRkhRKKLRUDBDm7e6jfNh5cky14qebGSkkIlaED9pP0BPudey4atjk4k4mWji2P8ugqa+TBxv28Mjxl+kc6J2+G0iidaCLY11nUdF4R9JIUj1+ocFQ0Bvs48DFhqy2Q2vNyZ6LvHThbbqDvZgq3qG1iB8uUsePycI9tT0pDz2ElrQE+3m37TgdoZ7sXE9r2ge6OdV1nnBkAFBEJaAlmvhhOaso6fSzYz0XONV7CSuNsIqoKEe6znG2r3n4pJdEVCrChqJDBzncc462UM8E9nCyh9aazlAvT595kwePv8zZnmYsrdBCJfQN+7sZ2l8UEkXPQDfvtRwd8RofNB2jM4PvUmJgaAOfgpa+dh47sY/HG16lNdA17c9qIDLIc2fe5KdHnuVkZyNaK+xnkth/bZSQ9gFYWtM52M8H7aMraDOJGSkkFJq2UBcRlcGD1BK0RCqJUIJLgU5+dux57j+2m5bg9HcogN5IkLZgJ4YSyAQtKbllsUkZ0Mqio787q+0IREPsaXyXA+2n0Eo5AmL6NZq4oHAmHnciwiQYifJm8yEOd5zOympCac3Fvha6B3tG3GORCZYisE1UlwY6iKbRACNWlOM9F1BjMLZpNN2DQbrCfegxGekmh87BPh4/9Xt+cfRFTvZcGuVehgp0qSFqhWkJtjMQGUx/jWDvmL5HqcFQmqZAK786+jy/OPQcbcHsjotMsT2YAjx5+jV+ePAJTvRcxNIqYyVKCYjoMG2DPagZMO4yZUYKCa11BoPG0TYh6VC0Bzv5+bHnue/4Hi4FO6d9iaq0GvsEpzXZlG+2OeQcjzS8RMgKM/SrT/V8Uq90JhuFrXlFpUQ525hNve2803wkK2YZjWYwGsFK0OTcQR7bj9Dgt8BnxbVloUFZ6b9DpTUDUXtyFKN8b6aC3KgiPwJSiZmhyISDPHxqL/95+BnO9jWiddR2SYaYIoaWQ1ebCX9HS7QW9IdDBMIDaa8zPmFom6VaI938Z8Pz3HvgiVi81FShtaY73M+TZ17j3oO/5VzPJcBK8LQciiBB6XNWldJZYc6UfZVMmZFCYiJIDQhFW7CDBxpe4sFT+2gdmO7lvOO6O40EIwM83LCLlmCbM/hnoCaj7SW76yrqLt97wwHeaz7Kxb7WrH6PrikpGaFtQWE4rymR/r3JnxvtPRAXRIYGUyXZ+KaBYDTE46df4UcHnuRioBWtomhtjfysdeqpQ6NHVMrm5BRgiPFt0iuh6FVBftLwHD8++DvaA13jOs9Y0VrTEwnwzPk3bSHa04TQOqM+YeOaTyFH+CnJmYecRVPv7GlpEuk9apRjKojS1t/CA0df4JGT++gcnFrNYyjTqylqrXm3+QgvnnvL/oOIIhl9mZzJBvV4Sd7EtjePnRcd86H9d3s1carnPO82HSGaiQkyCxhq+F5MtuZyDU5MBpiWnNQ9n9EIhAf4TcNe7t3/GJ0DHRg6amvH7gHDf58Aly+uZl5u4ajvE9rek4qjkFphaIVlhfnlsWf45aFnaeprn3QFMBAd4MXzb/Ljg7/lbOclUM4qW6dfbWvcvi0RSiK1RGqTIrOQuoWrJi0GajKYtUJiZFxBoWjrb+Onh57i18d3E4ikXwZ/lOkZ7OexU/voHOwf+kKaQe9O3PbkNbyLZDKpJW56j1kYDfM0go5QD+80HZoye7QWQ9s1GQJzMoXwaGit6R0M8Pjxffzv/U/SFGi1BUSy8pAFwZBIVfFyrq3cjJTElZWEVa3dXxL73ND+576/J9LHr0+9xP3HXuDiJHo9Rawou869zQ/2P8rZrkaE1rHVgxLD1T97k1+hpL3Zr9xVhDLJ07nsWLiBjQtXY0xyRoVsMntaGtvMlM7Gpk2yNup6EyQKio6BTn6w/1EeOrab7lDfjLABj47KdC07IlFl8dzZN3mt6RDRhFkplbdYKuKDdrjnUbrDUDJmTnHt/LHJYESNNMHN2XmPOxCjGva3neRo+5lJ32PSAgYNiMj4M7Lk5Ezqlpx6a5MdBNbPoyf28R+HfkdjkmuvSnA5j5nQkvYfhuPuEY48pRT48/jr6pvZsHAFpoxiEMbQ0ZigsDVu+3zamUiVkLG/JwqwllAHD5zazX0NL3Ex0JH1cT0QGWTP+ff5n2/fx9meSwgnpiPZXTqOcjwxk7f8JT7hY+3c5Xxu1Y0sKiyZNTESMKuERGa4picl3M5uT1LBaJB/3f8Ivzz8PE397dO+mT0a9sQxsU6vteZE1wV+e+Y1Wgd6GDrRD8cVFPEVgMTExC/8+KQfwz0MP6Zh4pMmPul3DjN2GEb8cP/mF/aRi334SGdmSY6JUbHncXagjVcaP8j6pmVy5LsS9uRtJTymTL6JIWI0g/0L91pTqbJorekY6OH+47v54aEnOdffjMqCMpIpQgjWzl/G32/6c7aUrCfHSAxOlM64je9LjSSYlYCmUCf3NbzIfx55lgt92VlRuIFyT534Pf/05s9oHRi69+EKgmSFx3XjTnTnllpiCMm64pXcU3872xfXzCpTE8zgBH9jNVEk/i41Q1YbLl3hXh5s2AVac+ea66gsKpn0RHrjZ+Kby4HwAHvPvc+R9nO29idU/Gca4vOFZK6/gHXzljE/dy5KioRBqzG1QioQCVOcFnro3gK2/7ibn8r1PkNLWoJdHO48S0CHUFI5y/I4UruapXMmYS/l97Yf5LO91zJvgkkQp1+PS2z71EzSbhzEYw37uO/I8zQHWxFOnINIatOw1U0Wm+gzTK6sqCWi7uLnh5/h3bbjWBEFQmIJW1DYUd2Jpq+hfVa4KwugN9jLkyf2UYiPL639GIsmMK6VVrQGO9l17o/86shzXBxoArRjOgISVwlDBITzD206qVjszXmBpqZ4OV/bcAvXLdk86/I2wQwWEpniep6M9jeXi8EOHjv5MgLFHWtuYFFR6axa+mWK0oqTnY3sO7efvsGkCOBRBAWAKQy2V9TyF+s+QUXBQtvZWGPPrglmpGT0sH+JhP/HXz3R3ciP9v+Gt7uOOaIkg3sScGagiVdbPqRq/hKK/PkZfCo9TpaXaWZqVrRaa9oGenjy9Gvcd+xFGgMt2C6ctvCf6qQg+b5cdlTWE9WS6NHn2d/UQEhFUUJiCYUhRhfkCcZTuoPdPHbiZaQQfKHqxnEJCq01F/vbeOLUXp449Qqn+hqHrLLcwMFUSNck564ltZ3uZv2CpXyz+jauX7xpVgoImAVCQgn7sQ9fEdsdwBUGw4VCkuYR+5dFY6CFh0++RFRq/s91n6Q0b342m5wC2yofI437IGRlGwKwEyTuPv02RzttG/6wAZeuDc5qo7ygmE+v3M7W8nWT0rkX5s/jw9ZTHO27QJcKJLzitmvo9+c+loFomN9f+oCbF29jzfwl4xbwidl3M3r/uK4yEpmKxomjtaYj1Mtvz7zO/Ud3cbavxdkfSvQLTHOHaftq6u8p0yclhKDIn881izdiSB8/ijzFB60n4+0REUhlOtKu11vS1YSiKdTGA6dfwhIWf7nuU5QXLMyoLS5toR4ePbGXx07s4VKgBUvrUW8nebxqZT9TiZ8NC5fz1Q03c+3ievJ9uWNqy0xi+hWpKUZqiKI4H2zjVw3P8/Cpl+kbDIz+wexcnUweudTx6OPx8mHTCfac/4AeJ/XEiCuHJPuqQFBfuoadlbWTpv0U+PO5cdnlLC8sG/baSJO3VBanuy7yYVvDBN1hE90YP9r0hYM8dfoNfn7oWc50N4K2n9t0ut6CIyh8+Vy3qI5/qP8clxWUxzybFOPr/03BNu478QL3H3uerjGk5ukdDPLwyVf41fFdXOhvxRrns1HCWUHMXcLXqj/Nx5duoWAWCwiY4UJiMoxAMU8oLWgPBLj3/ae578guOqc94M4m9oUIOxX6eAiEQ/z21OscDFwgOspM4LrsuX7oACvmLeJLVR+jOG/uuK6fCYaUrFqwmJtWbCfP8MV8ykcUENqOhO4MtLPr3Fu0DYw/n9Nk56SaKfQPBvnNsVf493d+Q2NXM1JbMXv/dLrgugghyPPlcNXiGv7l6rtZU7QIgUHi1JTp9yQ1+JSke6CHHx14nB/sf5T2gZFdprXWdAZ7uP/I89y7/1Hag524+R60q0SkUCRi80hCDitLKrQJ60qW8d3Nd/CJlVcwJ2dmZaQeDzNYSEx20+zz9w2G+MnBZ3no+G7aBrpnhKCYCFFl8ealw7zaephBrJiHVyKJnVolFtoRijwzhx0VNWwuXTPpbS3053Hjki0snVM+5O/pTG5uqgOAI51nONB+clzeLFroSYmBGOKTNQPmhWAkxBNHf88P33mc7kAnplZ21b8sXsN1eTYtiT8q8VnjO7shJZsXVfH97V+mbv4yzHFGZdu5niQRFeWnDc/wb4d+Q0uwK2U/sZM99vBQw25+cvhJ+sJ9jGePyHUTNpHUzFvOtzbczg3LNpPnm3l1QsbDDBYSCWg5rE6B1K7mm+4Y6tefLjpbyzBt4U5+ceQ5Hmt4mdZJSQqYtCdh30GKv8Wx9NjXEW71u+fPv8P5vmb7CkIM0XZc18KI4fr+u+58UZCaFfMWc8vKq8mbgk02IQRLi8q4rrI+ZXBRqqhsN16hMdDCG00f0jMOU2E6U15yAGDyMTn7EtlHa01PqJ8nG17nX959lO5wH1raNTrcrMpCON4dUmDXbyCWXDG1Bp0cK2PHUPgU5EYlhWHJnJBJ/qBEjNNOakqDKyvX89833cXmBavw4RsSo6MczyeXka8isaKKh47t4pfHnuNif9uQDL5urMhTp17lF0efoW2wZ+h4SzTBJnkxJTrGuJH5poCqwkV8t/pOPrH8CnJnYCGp8TKzhUTawJ1sYptbLg108MvDz/P40Zdpn6YskxNlIBrirebDvHnpEJZWI26Cx7VdexBoAYW+PG5ctIX185dOmWvwnJwCrqvcxPLCcnCKz4wUuOZO8FEUrza+x8meC2MW6tOcKimJ7CoktptrH789/QY/OPAk7dFeLKnsuA8RF0vpA8Iyx42lcVcSOVETn2VMSJj6TR9XLarhOxtu44qSanKNXOLxE/H3ZXINgV0C+ZHju3mw4SV7r8ERFH2RIM+dfYNfHHuOS8GOMX0LsYSQ2vWQ01w2dzH31N7Jx1Z8tAQEzHQhMcVcGmjnZ8ee45Fje6Y8y+QwhBpTkJPWmqZgB/sa36M50IqBtiv5OedKRAnQcmjkqBKwft4qblqyjTk5BVm5hUyQQlK7cBU7yjaQY/iIyKGRzsNIUBzO9l7ireaDDFrhKWvvTMb1Ynri1Ov84vAuzve3owxN1NQoQ6OdVYNdNi0zJ4rpIN+Xy9WL6/i7urvYUVaHIf1YCQF2bvxE4pGuqJUAWoOdPH5iL4+eeJnG/jYCkRDPnHmDew8+wZneS2NqW6KAkBoMNFXzlnJP7V18YsWOj5yAgBnuAptJ5CoZvicTtIDmwW5+fOwZlCn4/OrrKc2bn72Np9EC2Rj/vQQjId649CFvNx9i0BqMTwQprpcqe+VC/0I+vWwn6xYum/IAw/k5RXxiyRW813qMQ32NGX/O0oqnz/ye21Zcy6I5w72kRmIKg4xTXFw57p3Ze85aa9pDPTx6fB8PHNvDhUAHCLvq3pRFDmYpCSDYguLKivUUmLlED8DrzQcJKTtVvELiWssyQaO5GGjjoYaXGLTCLMidw/1HX+BCf+sEWmhHUlcvWMHX6+7g+qWXz2o315GY0UIiExJrAeQYPhYXltLY30poWO7/zAak0IrOgW5+eeRZBqwQX1hzI0sKSic+ccZsHKOcR0uEU+4l03lMacWZnou8dPotLgXa7RWI8DHU5j00iVpO1E5maWtmfi4v2cBnVuzMek3tTDClQV3Jaq6qrKXrZB+ByABKalSaR+Xm5BIaLva38/7Fo2MSEoaQ5Bp+8mUelvO1GCkEZyJCM+7N1PRkZ0J1VxC/bniFB448z6X+1rhgkGLIdeyA+cTI6uFt8EuTOf4CgtEQwWgkK20cDz7DpK70Mv627g58ho9Xm/bTH+2326zA9sgbGi/lkirdSUuwk4eOv4QGesJJyS6TcZ9RKqGnJeBjQ3EVX6/5DDcs3TxiXe/ZzqwXEonM9Rfy52tv4tXG93mt6VBmle0SSAywag108eipvWgDvnhZlgRFxozNFBCMhHi1cT/vtjZgoZ0AxERNdXhHF4BUEmVIinPmc9tl11JcMC8bjR8XC3KLuGXlNcz3FdEXDmLJ9OVp7GhvOxunEAJDZj55SyFYOaeSz668mq7B/tiTSR2wmXBNDWsXLJ9x2Tu11nQN9vHIidf41ZFdXOprxnDnNyHGXOTHZ/rYXLKWFUUVvHrxA4LRjklodeaY0mBj8UruWXczpoa9Te8TsIKO195wAeGWNE5H92jCIQMEgssrq/nq2k9zzaJaco3ZGUmdKTNWSAgtHImdWUU3ja151JdUsWHhSgaVxdstR0cQFOmqsRHLY9/S08FjDXswteTPVv8fVIwxgnMIsRko0fsqxdtG+C0dZ/qaeeLsG3RaIYgJiMTPpnD/czxUpJZcW7GJaxdtmtY8Vj7DR13xKtbMW5J5CVAnTYhfZN6NpZCsn7+CFUWVqHQRtWkun2fmzDgh0TsY4IkTr3HfkWdp6mvCkPb3r8CubDiKqTSxxrkUPmrLVvNX6z5NIDzAH5sPpfjE1CfGzDF8bC5dzT3iM1hWhH1N7xHCHteW43xhm1CT2iYYt+NLLF1+0t8FgnULlvPXVTdx7aI6Cnw5sz4OYjRmrJCA8dnn/YaP2uJVfKv2Dn6w/zHeaTlGVFsJ2kV67dpNSeGWqwRNS28HDxx5AVObfKX60xT688Z1L7HzZ0jUcV3NhIdO7OFg9zksEa+mZpP+em7wWmXuPL685hPMmWAepGzgN3z4h2QFnd3XmWyCkRBPnniNXxx6lgt9FxFYjHsDQkuqF67gm9W3s7O8jlcvvj/65CcS12GTi9/0sbF0Ff9Q/wWCbwV5re0wytnAdhWebOOmLBfuuYWgat5SvllzOzcsqZ/1kdSZMrPUogSSu2e6hHKp0gnnGD62VWzgG7V3sKV0HTnCD8opFqLNeCKuJD9oDXZGUhH3/BFa0zbQxb0Hn+Sxhr0jFnlPj2Z4J06f5VUDUQOsDDSU830t/LrhRSwdid2H6wGS7lDC9iDShuRTy65i/YIVMzgbrkcqgpFBnjj1OvceeJpzfS0gFEK6kdQKEfNishGo+GSHbWpMVMKWF5Xz3+r/nOsr7clPxEbb8LTt9gmnfkXhM0zWFy/nX6/+JtVzlmNow6mJ7rpGu5YAGG/KlWFxEI6br4nJ6jlL+HrN7Xxs6VYKfBNQFmcZM3gloSfklJFj+Lhm8SZyhMm9h5/gjeZDDCgrVhYz/VWxB1pSioj+SIDvv/cAgUiIL1TdyIK88aSqHkP6byeAcCR6wwH+77d/SjBqCy6pbdfWUT13HHtu3cJVfGbl1RSOYxWhtV3LWGk9gt1bpPgXY7aTjxefNFNqw9pp81jjK6SQI2rXiTtJk5nyoyvUxyMnX+X/++Bx+kP9SDHUJOsmxYwhlNOxnb9qGVtJSiFZO38Z/2PrX3LtovrYR6SzjBVk4kChIIWyNhlIIVk2t5yf3fA9/umtn/OHloMMWGHbRRYw9QiWgkyvkeAMI7TEL01qSlbz1Q2f4call0+Lc8d0MoOFxNhQYni3MKRk26INWFIRQvN60zGiIha/yZC9gUTNSEu7BGFCpC9AfzTIT448jVYWd6y5jvLChRkKiqSVhFvXYQTcym7piCqLPY3v8m7rMcDp2O6KKMWAlUPstZLinEI+seTyMWdS1VozEB2kPdRLa7CLnlAfSrkrsQQbf5KtzI1Y1kPa596gdqJ905O+hdp5feg7fIbJttJq8pPMg1prOgd7aQ50ELEisesOaU5CW7TTaAEsLiilOG/utK26YhXlGvbx7wefoifcixTK2YFI6sdpNH2NdG7WnvyqS1fyrZrb2FFRO+R9popnNUjsS6lMoG6Ao5rCfFDL5lbwvU2f48cHJHubD9CpBrG0iWE55iG3Vvf9g93vAAAgAElEQVQYSRQQUoMPybayDXxt0x1sr6gek5PER4WPjJBIhyENdlTU4pN+QuoRPmg5haVGCb5y9yZSvNQW6uKBhufRWNy+5noWFWa/HoUAfEql1Ua11pzpa+bpM6/TOdgXb3OGmEJQt3Al11TUUeQb2yriUm8rv286yBttRzjT20xoIACOu7FyGhyfYB1tVDvpC4inRYkaYMlUZrjUJD+L+BN3zYJDJ+6NpWuoW7BqmJBQWnGw8ySPH9tDa6DLLh+KqzW67bY3RF2B5t7DX639FDct24bfmHohkVgP4qdHnqZrsMsW/ClKZQ7tC6mdJPzSpL5srZ3KunITPjl0KpCO9EysuZGq0FdMQOCmfZmadaIpDaqLL+P/2nALyjDZ3byfvvCgXRsjS1UnfcLP5pK1fLv+c2wpX4ch/zRNsjNaSIw1VD7dV2hIgyvK1/G9utv40cFneav5MFE11O1xmIbkDrSk5asALgbb+PXJXYRFlC9V3URlQfEYWpp4zjTtVeBX9s9U9EdDvHJxP++3nxiDm2/8miV587l20UZWz1mEOQbNqLm/g/848CS7G9+lebCLARUZEpg33Oc+fs1hefcdzTP2zqRnkpyYML2QGP56oS+PO+ZeT0EKJwMNtA5080HrcRp7W4kYcSGReI5Uhas+ueSKrE2A2tHmM3qv1rQEu3jy7Bv86vBzNPbbFeWGOrgOXQm7Ajv5uYIdJ7KldC1fWX8zOyvq0vr4m86YUqO4lbr3o7TTiimKVPSbPupK1/CX4mbCQrGv8R0iKug8k3FGlDv9zif8XF5ezT01t3N5xbo/6T27GSwksqudSyHZUVaNUAKpLf7YvJ9IgsaR2K9HHhC25nY+2Mb9p3ahDclfr/k0C/LmZLW9Iw20i/1t/P7S+7SHxp5jyhQGVfOWcmVZ9ZjSb3SFevnR4Sd48NRuBiIhhDCQsTQJkHpFkGhiG3NTx8BQU1rV/GVsLV9PzgT81xPTL4DdJ0a9BR1PETHy+2TGz8MNlPvduTe5/+iLnOu7BCoKQrhOzKNO4PGuZJuD6ouruHvDZ9hRWZN2A9ZdWUlHgipXYDB8fLhmJi0VWk7thnaumcPm0rX8WXSA0z3nOdF9CiuWoHD8512QO5dbL7uGreV/2gICZrSQyD45pp/tFevJMSQ/kpo3mg4QtiK4k4x0ftqaU+qO4Q4Qjaalr5tfHtmF3zL54pqPUVKQLoXH2GZILSAi7ER3KV9HEVERlNbxNjuvxTTHEbU5jXD+ywRLWTx5ch+Pn3yJgBUEIRMdZ6YVLZTtH++4LRf5C9hRWctlcxenNQNm0nQ3Ytf1c7BdLaeersE+Hm3Yy88PPUvzQDtSOyVHM/is1CpWCxoAQ1Jbuorv1X2e7eU1IxeU0iK2SpQoVJrx4JY+VY4gmepnpLWmK9TLh20naRnoIYp9T9L5b8wb2M746Y30svfiu2wtW8+quZVZbvXsYtaLSEODz5KYys5lP5pXSY7pZ0vZOr5dcydXl2/E79hiZUJnGi36FgAtkVrSFejnV8de5MHjL9IUaB+hvkHmj9q286afypYVlnNDxRaK/UXDrmEP5vTuf1FtcazzHK9dep/uwcySGJ7vb2Vf0wf0DtrRqtnKopqYoG2s2PsFjvOB81OgqZq3jJ0VG5nrLxz1HKlSN7h/z+Rvk01/OMhjDfv4VcOLtIQ6cCvKja1NjvlEmmwtXc/f1X6BHRWZVRyUjoARWo44JrSTfG+qs+sqrWjub+fhYy/xwPEX6Rzsd9oy8eSFA5FBXjr7Fv/0zi+52NeWnQbPUmaNkHA3PBMR2AIiNyopHDQpDPkwRnFxBTuYqr5sLd+qvZOtJesxhZFS3xBuQr7EbKnIIe6xAkXzQAe/OvkCj5zck7IexUjOvG5luMTDvU46nTffl8sNizdTv7CKHG0gtIoLOS2dz9qCQio5zO23I9TLqxcOcqzrHFE1ekR7Y6CNlkAXQpsgBVqKFPEpyfUGhjK8PoNEOEcm70/O8hmVEHX2NbRTD2NuTj7bKqpZM3/pqHstiROaex+pMoi6XmYjeZqlIrm96bKUxs11QwlGQvzmxCv86MATXOhtwnJ8mGJO1NJACgMpBAb2IYR9aCmGFD6SUrCxZA13V9/GzvKN5GQYSCiVnQY8UZAnCnR3TNptMkGbSGWMu57EWNBa0x7o5onje3n06Iu0BjsBEvrUGNzNU2IXLnrl/Dt8/+37Od2ZeeLJjxqzRkikwg4ISqiMZcmM98x8hkl9+Vq+vfEuNpWtwTRMO8TfSUWdasNvOPFh2zjQwS9OPMvDp/bQFUpRWzdhQkwVADjkrbF/jbCamFvBJ5dvZ35u4l6IcjS6kdtuKTjceZ5XGvfTPTh6HeD+SJCB6CBC66yV/Uz8nsa6z+l61GhBbBUhhWTF3EVsr6hjXm7yCmt00jVhOsqc9kcGePTEXn5w4HHaB7ucv6qUQiYRN0J4yGFATcllfLXmVq5etGlM1dIMZSC1aSsHCeNhyHcHzhi0K8JloqRlg+5QH789vpcHjr7ApaCdX8r+rpRzTPwaUoNWihfOv8m/HXyMo51nhxQu+lNhVguJiWJIydaKar5V93lqS1cjTBNLyHhUdqqiR0nRy67mb2ho7e/ip4ee5sHjuwhEBmIf0SI+2Vgy/V7DUOSI63dDSm5avo2tZRvsZul4tLXrGTTSQOmK9PHyxXc41HFq1I5vYmBqbR+WXY1suutDK+f5u/EXub5cLi+vZd2CFWPy2JpJaK3pGezn4Ybd/O+DT9AUTEyuJ52Vg30MxxYKUruHiUKyZsEKvln3ea5bvGWM5TQFUpsYlolU0tnbkEnvsOMp/BbkWJBrqTGvuMZDIDLAg8d28eMjv6Mx1G67MQt3jR/vExNdz7iZCwZUiF3n/8hPD/+Okz0Xx1UydzbzJy0kwDY9XV2xke/VfonNxWvxCz/xAecGWcUf0zDN0p2QHbNO50AP/+vDR7n/+C46Q73DTE8ii5rp3JwCvrvx88z1F9qCCIUkmlDWdSQURzvP8tTp1+gNj1wCtLxgIQsK5qOmYgbIAOnEXSRqtCuKlnJd5RYW5s0d9fOJHkszoRY1kJDNdQ8/PvwUjf3js4O792NoQXXBEv6f+r/hxkVbx57K2gkSEToueFKZEt3+bKp4Kc/Jwq6618sDx17kXw88Qmu4K1aCN1ZfS0Nm2/pjozcc4KXzf+SRht1c6Gv9kxIUHzkhMZ4x7zd8XF25iX/c9BfsrKghX/jiHS15JZFgSxdDVhrxQTQQiXDv+4/xy8PP0Rhos1NYOA3zWWS0wW5vyI4+4jYUr+Qv1t5sB0OJKKaK4lfR4edPWhkZGlCKPefe5q1Lh0bcm1g1dxH1Feswck0np5TMYHJN3qMYec/CLQXpHiOeWdurGZ/T5Bwjn2srL6e+NFN3RTGkDYmR9an2viYDV+8FYgWDHjj+Iv956Cku9rWOmrok1XOya5dHkaZia+kqvn/FV9i+eCM+Y+xOjO4qITEOZkifShoXtsCdvOlEacWFQCs/O/Y0//bhwwxEB4aZliY7PKMj1MtjJ17mF0ee5UJf25+MoPjICYnxYkiDrWXr+HbdXeyoqMEnzZjtO5FMhVD3YD+PHN/NIw17aOxvdbYd7cnZVNkNG7hj1Q3UFa8iNvVoNaI2lRg41hUK8OuGPVzqb0/7/jwzh5uXbmdjyRpnsziLjR8n7uY3SBbll/OJZdtTBs9lynTdk8YWEI+d2Muvj71IU2D89RuUUJimwdayau6pvZ0tizaM+1yug7RIcDIY3viJexFlgqUszvW38MCpl3iwYTc9g/1xgZXFaniZ0DnYy29OvcJ9Dbu40P+nISg+ckJiIsqEIQ3qy6r4+sbbuKJiPYYZ97Mei41TCwgbcD7UwaMn9/G7M6/TFwkAbm3eTDtWZnezuLCUW1ZcS3HOXCCKkmpEd0RNPADKkpJ3247zwvk/ErbSR2+vm7ecu9fdRn1JFYaceIIzd+M53TE6dtf1aR/XLdrC+gUrJtym6aA3HOC5c3/g18dfpLG/bULJD/3SzxWlG/jqus9yZUXthBLRCUAmZCWQaVZ5rslO4farcV8yJVprLgbaeezkPn5z4ve09vUild/eN4zvQmR8vmHxQeMQMm2D3Tx05iXuO/mnISg+ckJiopiGycayKr5Wcxs7yqvtPD1j7ESuB4olNI2BNv7YcoS+cDC2qTzqQBKZ7CnEyTP9XFuxmW2ldRhCDktpkQ53UHdHgjxz9g2Od5xN+16/4eO68i38j01f5otrrmNZURk+4u6RmcQ8uBNMNiYS5Zg3FheWcOuKazLy+5+JNAc72Nv4Phf6RzcxucTMPygMbZsYcyzN9gVVfGPNZ7imvJbCLKWyTuX6OhLZtvi0D/TwyIm9PHbiFVp6O5DKNRXKEVYyKcyZQI40uaJsPfWlVUhpoKSb92vs7WoZaOeRk7t54PgeWgJdo39gFjNrIq7deSXT4KeJ4Dd9bC2vttMRWBZvtRwmioW7mR1PtZzQsKQa0jG0iudXEsRqKqeqLTyczHqvFJIlReXctPQqDnae5Hx/8+hnFu7p7TQjBztO8cTpV1k2tyJtuo4c08+28g2smr+EO1dew7m+ZjoGeodpUskapRtvAPHEea4po2Wgi6dO/Z72UM+Qc4z0ncbSXGvFTcuuomrBslHvdyhTb1tKN8lGohEiY6gjnSgghFbk6BCGgs1lG/nq+lu5oqKWvGxUS9MjaZBTo1v2DQZ4rOFl7jv2Ap0DPaATC3HF+9yQlWeS4HDNripksW3lJu6u/ixzcgv47+/8lPfajmMo7cThKCdRYZr9wgRzm6HBiJh0hXt4+NhufFrwlQ03Zz81zwxhBguJ0SfIeHrwLBv5gTxfDjsq68gz/PzLhw/zVsshBq0ISpsQ26BLP9GnzeCa3WbGyPflsqNyI9e0buXxU7sJW5muROwsoYPREC+cf4srK2u4ccmWtBvAPsOkIn8hFfkL2Vq23i4BOk5C0UF+c+qVWD2MsaFYO3/ZuOthwMgxB7MCoQCT9cUr+c7WL3N5Zc0k5xkaud9n61na+ap6eOjoS/zo4BN0W0EntDSpryW4oKdqq9uePGlw1WX1fHfjF9hYugZDSO7d8bd8980fsr/pOEpbKcuCpcONQgfoDHXz7weepCcS4rsbb6Mkf/rqxE8WHxlzk23Lzq5t0JQGm8vW8c26u9hcsR5hmE79AWkfKQZk2r2L5ApxozGONXBp/nw+uWwHK4uWpfS6GvJ1O68n7pFcDLTx7Jk3aAp0ZnQ9KSSmNMZ1GELSPNDJ8+feIqjCKSKS00diGxoKZQ43L9/BqrlLxvycZiNuZbnEAEIhfVSVbeDrW/+SzRUbpiURnRvZna16EtqpBPnw8Zf4ydGn6I32YwcSJmUlSDDJDuk70gk6dPcqTD+bKzbwtdrb2FS6BlMaCCG4bO4ivr/1bnZWbiLHyB3qmTXK+FSORcC1CkS1xX1Hd/GjD39Ha7D7I7dHMbuFRCygbfIuYUiDK8s28HcbPk99yTqMYZlFZdLPiROPpRiboPBJk7qFq/n4km3km2PXriMqyutNH/J608ERN7GzwaAV5rVLBzjceTbjQRWLW0FRNX8R11ZuHF+dYT27VxAakNKgrmQ199Texc7KjdMaQOhuXruK2njXlnZK9E4ebtjFz489Q2u4O8Gsq2wBIONBrOnjXGxBYRomW4rX8Lc1d3Jlee2QgkFCCKoXLOd7m77IzkWbKfAVEFUgDHsFYo2yQh7iZCEUERXm/obd/OTI81zob8NSHx1BMaOFhGAEzdxhKga7IQ22lW/g72o/x5biNfhl8mZ2gqBIFaU9hSzMm8PHl2ylal46O/3IbottA908c+Y1LgbSu8Rmg4v97bzc+B6dGaQFAWIKgdQwx8xj5+I61sxfOiHb+8wIDbRJ1dftvj3cicEQJhuL13FPzV1ct3jT2APlskKqOImJjceWgU4eaHiBnx19luZgR7zaolCjOkYkv+aTJptLVvO9utu5srw6ZcEgKSQ1xSv5Wu2tXLOoHp/0o02DKHq480haC4CTFkZqAlY/D5/czQMn9nCuv+Ujk8JjBguJzHubcoq/T2YolCENrqqo4W/r7uTykqpYHAUMDQJzO+t0KapCCGqKV3DTkiuYk5QlNhMLVkRF+aCtgV3n33bSqGefQSvCW81H+KDtBNZYVhHOsaKokhsWTaQYfcZ+ttNCcsuSf68rXs23N97FdYvryZ8WAWGjhZ11ONHkNN7H2hXq5b6GF/n50RdoDmZeJ8UNqIP4HqVhmGwtXc1/qbmDHUkriGR8hkl9ySruWf8Zrq/chMROkJhpjQ5XMAqtMJSidaCTx069zCMnX+ZC4KPhHjuDhURmTKU26Dd8bK+s4b9s/gLbK6vxmUZcMOBmYh2aqtu1JY+VTCKP05Fj+rl5xXbqStYgpQ8l4rl34p1bki5Ctm2wmyfPvc7RrvPD0opkg8a+Vp498wfaRiiaNCxPkPOc86Sf6xdtZu385ROuNzzTTU6ushFLXCckdSWr+a+bv8TVi+pmlNtvXFCMTUPSWtPa38EDh1/kFwd30RHsj2cySBfA5/Rj4QaNJmRONnw5bK+s5R82fZ4dlTUZZbz1GyabSlfx9/Wf57riGgoMH1K6OdfiUd3Jh0gwW7p7ZaayaO1t5aHju7j/2Iuc72udlDE0lcxg76bMsAeRm1tmLCFv48NnmGwuW8vfirvIOejnjcaDDEZDCZvmrqAYH0o4oUET7FdL5pRyy/KraOi6RNNAWzy9QkKnHmmSPNJ1jmfOv8lcfwFFjsYea5JgxPalOq379oiKsOf8H/lj66ERWp9mw1pJlswp47oll1M4xtrcye3TU1Ric6zYrZLDyqf6pcmWsmq+uuFWtpVX488w3fdUELPP4+RQyvDRWsriUn8bjx7fzYPH99EVCiCQbsI0hvkbDREa8XTgQtvvLhS5XFW2iW9uuIX60qoxpSMxpUFN8Uq+W3snuUdNXr30AcFwELAF0kiZFxIFhXbGVUewg0eOv0TEinL3hluoLFg4cbfkaWJWCwnpFBoylKt5TM3t+AyTTSVr+MaGW5ERxWtNHxAicdK1tRt7Msr8vEooLKnsCl8TXKaa0mBnRS1vNR3l6bNvYOkIUiu7E+NkzUw1mIVCaslgOMDvTr1KU28r83PiBXyUM4DHm8gtbEV4s/kQwehAKlGAKyASBZh0JgIfkmsWb2HV/CUTXkXY11BokTq9vFb2H92X9KiTnz1DKK3ROsFLegzY8SVOOnkAYWdV9ZkGl5es56+qP8v2ypqpERAivjqA9AqFuxchHMXByHAhobTiYn8bj5zczSNn9tAy0I+BsIttCYFyvpTkWiix9CDCVsbc8eUTJjvLavnm+lvZWLJ6XPmqTGlQV1LF33ALQsMrF98jPBge2m7pjBsnjsQdB+6qPJYHTGvaB7t4pGE3hjT54pobWTNv8ZjbNBOY1UIC4jl8UuaWmUT8po+Npav52sbbCDLIm61HiOhoUgWvsU/0SmTHBiiEoKJwIZ9cdgXvt53gQleTvXpwTGOJSe2Gf9gWFI29zbQFOrLsWqkJjWGvI2ZyAZYWVXDt0nrm5o5edW7UVsxIpS7ZqUAipGBTaRV/uf7TbK+sJd8chzfXBBnpWblmQEPFj0xoDXTxyKk9/PrUS1zq78CUfoRyHUJGyDiQsHlsB7+Z+KTJ5WXV3FN7GxtLV+M3xy9Ec0wfm0rX8jVxG5FolDcaPyTsBMMmCsyYq8oIioPU0BPu54GGXVwKdfN3G26nasHsc9me9XsS02lX9ps+NpWv4Rsb72BzeQ1S5KGEjJfVnCAT/XJ8hsm2inVcXbkR09loNx1tz03rPOzxJdiCNZqQFSYYDWXxGBxhM08lOCG4dQEUhgKf8HNFRS21pauyJrRmmqCI7W85xbQUsK54OXfX3M7Vi+op9OXNKJOF0An1JJQiN+pG1o+8zOwPD/BQw25+dfxFLvV34dai1jI+bpK9lZIz9SIFChMhCthStpFv136O+rKqCQkIlxzDx8aSKv7r5i+zqXQdlpBYQibcVbz/ugbuxPQlseSTTvnX3sF+njv3Jj/88EnOdTdNuH1TzawXEuCaDabHi8Bv+NhWvoHv1NzO5uK15Jt5aUtyjk6yzXXiE8K83CLuXHkVVXOX2Ln3yTwPz3QQH2T2pqRblnXZnEquW7qFOf7UKUOycd1pJ6Fmt6EV6/Ir+OeNf8F1lfUU+HKnT0CkVXpcoe78JhTWKOMwqixePv8uPzz8JE2D3Qn7iaS5RsLVkm4/15fH5uJ1fHfDnVxZlt19Gp9hsn7hCv7XNd9h7cJVKGkSldJJKxOvLpkozIYE9SW1ORQO8cL5P/K703+gfzCYtXZOBbNeSMwEbdBvmOys3MA/brmLHaXVFMh8TG3EzWBJpR+H1E0Y5slhCxiRpcryQgjqK6u4q+pa8nLzsaRdH3omIgBD2xOkqewCSkoocnNyuKKyli3la1P6u0/omgmDPJtdKdOkh4looYiYYbQZpnbBYv7fK7/KziWbpnWTWmo1fM/GXWkKu8pi2FAETQj4IWyOvI7oCHRz74Gn6VYDWCPEVYgkE3Jy4aMcmcP20vX84+bPs3OS9mmEECydU8ZPrv8eVy/ejN9XQNiQDJoQkfb3lRjprYWKRWK7FSjtKpR2n+6P9PPgmZc50j05XoOTxQydLsbJNK0mwC4nekXZOu6p/gxXlVeTY+SgkON3UtLZWUm4fHzFVjaWrbZXXcwM4ZoOoZ2Nf60QaJYWlnPt4vq0iQfHfv64ppcc1zIR/zglJuaUpgQYpkF9SRXf2/wlti6umcDZJobbR+IpN1wPpqGBc5ZURAwIm4qwAdFRXGD3X2rgfF/rmNuTGJeQ4/OzvbSGb1Tfwray9VlXHJJZUVTGf6u9i49V1DPHV+ik5IGoiJu/3O890T0W4s/KVhQUzZFu9neeiif9nAXM+o1rwKl3DNnYB5gIhpRcsWgDfsNHz7sDvN15DMuyvSOm2+OyrHABX1x9HR+2HiM4EIivXKZRsA67vjuwZPxvhWYuW0vXUbNw5bg8VlJfE9zUDQbxOS1xcMfNBWkqFKYhFmApxm7C8kuTupK1fH3tLVxVWY+ZrfsdJ3alO0VEKmcFmi43k6NRy+ioHf1023mi0UEMY6gtPx2J340CDFNSt3AV39l4J5vLsr+yTIXtHrucu9d9Cilgb9N79Eb7kdircjdGwu0/0vHejRpx4er2qIAV4kjveSLKmlFuzCMx41cSrpR2JbTrYqecJZ3tzmkv/5QhHV+86cOQkvqKKv62/nPsKKvBP4YCPbGVxyR4apnSYHtZNdcu2ghTMLDGQ7yAjb0TITCoyC/hmsr6rGbXlCLunpI8Sbn1mhM91KRWCa6dqWc1gUAaxphWaO6qxdCQq0x2LKzhm1W3cW3FdKXaiOM3/Uif4ZhObNfs1HceT7gnhMZnmiMWOxqMhJFWChMWSWbY5NeAXGGys7SW79V9flJMjyPhN3zUl67ib9Z+khvLN1EgcnFdcN0VpLuRb2jHQSSF/qV0lEAkOGEX96lkZq4khHASlomYpDZVvOynJSDis78cU9g1l6OmQU7hHHzm9N+SFJKt5ev4pr4VqTV/aDlARIWxJxzXnzq5g9seHrbHBkhpUpQl84pLce48PrN8B4faz3K25yIwA/IXJQlEN7OmBAxhsKlkHZeXV2dtFSGFYH5u0ZCUHomBhTGhoePFmwR2Pe15voK0nlWGNFiQX+QEQ6bODjysLdreg/FZkq3FVdy9/lYur6gmP0sFgyZCYU4euTm5MQERz8yb+FM57qDKiRswmZtTSGFO+kBHu9aFuw9n/80WCkPrOLjPXuM8f2myo6yGuzfcyuXl66cl422O6ae+dA33yFsIhkPsbTlAmAg4sRNaDA+kdVdAbuifT0rm+PLtZzBLmJEt9UmTtfOXk2fmYSo7WG7oJrDEVBKfBT5HePjxsXbh0qz40GeDHNPP1or1fGfjXVy9qI4c04wVi1exQWLfm30Q25jTSPJ8eawrX5nVNpnSYFtZNTct3UquPw9L2gF/8TbYh0jYIBRaDnt9tGO8n098r9CSsryFfHbldSzMy+YqQrJ8TiXLC8sxheEUP5J20JaWRKV9WDIe2AZQWjCPFXMqMEXqIL4c08fmhVXkm4kTfOr7T9zMFkKysXwt37jiC1y5tI78CdTpzialcxZSmj8/VuzTVdCGmuRkbOUHkjxfLsvmLRpxAl9fsYo8f76z4rLHtdv/h64i4lp6juFn56KNfHPTnVxesX5CZVknit/0UVe6mv+++c/4WPkmco1c3CJkSjh9R8ikWvBxd9h8mceGeSvwTWPW3rEyI4WEX5rsqKxjzbxl5Fsm+RG7I1lCEjLtn7lRSdGgfeRHJKVGPltL1zI3Z2YICbAFxaayKr5RewfbFtUiTR8aCcpP4gDxuYcV9+BYu2A5NRWrs96m+blzuGHJZtYXL0UbDL1+Qjtc75KUr492jPPzOZZ7QE5UsrN8E9sr67Lu+rkgdw7bymsozVuQ4FlmC++wIQkZkog07e9KSwwh2bl8IyvmVaZtixSSNXOWcEXx2piQFNp+Fn7L/pl4CA2GIamvXM/X6u9iS2V1Vnz8s0Vx4Tzqy6uYZ+STE7WVspyoHRPhmlFsBzz7uWkk5YWlXF5ZPeJ5ayvXUFO6OiaADRV/JqZyo81lbOI1TMm2xRv4+sbb2FReNa0CwsWQknXFy/neps/ziYrLKfIVoTGxhO0mG5H2PBWR9rORzn1pYbCyaBFbnAShswXjn//5n/95uhuRjBCCAjOHqFKcaD1LeCCEQKCFJuqkdsmLSHKjAkNJcqSfa1Zezu3V1zM/v2jU808lpjQoy1vI8sJyTve10NTfi0Y4G1wCv2XgczRMgIghKM9bwD9t/nOqFiy17edZRApJodIFbZIAAAXuSURBVC+P7kiAo11n0KEI/qiBoUTsEAgsaf/0WwJT2YeR4TH+z+vYcyk0c/j+1fdQUVic1fsHWwkpzplDU28753taiCqNod10EAIlbSOzQGAgWb9wGV+tuY21C1aMKLAKfHmgBB+0nyIYCeFTAr9z7z4Vfw4AhmnXUr+75jauqqyb9j2IZIQQVBaVcKztDKcDLbjGH4m9+rSkiJlMhRb4DR9fr76Vj6/YOuIz8hm2Seq15sMEw4PkRe1n5FMCsMe36/1tSIOt5ev4+9ovsrlk7Yza6JVCUpw/l/Xzl9EXDnGmp4VBHUVj9yHblCYQ2rDd2RFU5BXzV+s+ydVTlVolS8xIIQH2RtHiwhIMBBe7WomEIwil0EJgaIHfkpjKpDC3kKtXbeXP6j/FqoUzMzeKISUV+QtZWlBOVyhAW6CXsI4ilSAvKvFZziRp+Fkyv4KvrP8UN6/YRs4kaZY5ho8cw8+JnkY6uzrxReSwST4ihT34LUGOZT9zQ2c22Y/38xIQQmMguHnlDr5Y+8lJuX8hBEW+fCrzFtAR7KUl2IOKRO22a4HUGqEF+b5c6suq+HrNbexcVDfqwDalQUnuPPqtEOd7W7EiUXIjDLl/QwvyzBw2VqznK7WfZeeiumlJtZEJ+Tl5lBUWc7T/Ik2RHixtkaMsJIqoMLCEwBA+FuTO5YurP8bdNTeTO4qwk0JQVjCfPCOH5r4OrP4QZlTHhGfUsNASCv157FxUx7dq7+CKsnXT7umVCikkxXlzqZq3hEA0zOm+NgZU2DbRaTCUgakEfmFSWljMl9d+nM+tvpZ5uTNLkR0NoWd4VEdPqJ93LhziD6c/4Ej7OTp0P1GtyIsaVOYv4ONrd3DVik2UFy2cls2ssRBVFqe6LvHc6bfY1/g+XYFu8sMmhfjxGSarKpZz/ZqtbKlYy9wsb1onE4gM8NuGV3j6wF6sgfAQ7S8sYcBv6465EWKrnMSEZiMx1s9rrVFaESKCJRTF+XP4x2u+Sk3Fmgnd42hErSjne1p44cwf2XvqHToHehkUCm1oSgrmccPSzdywdAur5y/OKOU02InrmgKd7D3/Pi+dfJOO9jZ8yp5QosrClAZXrdrCJ9ZdxaoFi2eE+WQkosriQNspnjr1Gu9ePEA00IMpJIP+XKKGj2VzKvjU8m3csHQTxflzMz5v72CAty8dY0/Dm5xpPkfUihI2ovQagxQVFnH94i18asV2Lpu/eFqr7mVKU38nz597m4ca9tEf7rdNchYYCGpLV3HTZdu4atEG5s2QPdOxMOOFBNgddTASJqKiRFSU/vAAPmFQlJNPvj8ve/7zU4DWmkErQig6SFNfOyaS4oL5SCEwDdt9cKoGRSgapivQg9/wIZPcCWOunCPHRqVlrJ8PDAbpHuhDoSkpnEdJ4cIpeQ7u9xEYDNIW7CYQCZHny6G0YD6F/jxyDP+Y90S01kSURTASojPQjUSQ78+lZ6CfuXlFFOXmk2P6Z7xS46K0IhQNEwwP0BnoosCfT57fziNlSIM8M2dcYzCqLEKRQaJWFA1YWtEV6mVeXhFF/vxxPfvpJGxF6AsPEIyEkAgGooP4DR/zc4vI8+XMCmGXilkhJDw8PDw8pofZocp4eHh4eEwLnpDw8PDw8EiLJyQ8PDw8PNLiCQkPDw8Pj7R4QsLDw8PDIy2ekPDw8PDwSIsnJDw8PDw80uIJCQ8PDw+PtHhCwsPDw8MjLZ6Q8PDw8PBIiyckPDw8PDzS4gkJDw8PD4+0eELCw8PDwyMtnpDw8PDw8EiLJyQ8PDw8PNLiCQkPDw8Pj7R4QsLDw8PDIy2ekPDw8PDwSIsnJDw8PDw80uIJCQ8PDw+PtHhCwsPDw8MjLZ6Q8PDw8PBIiyckPDw8PDzS4gkJDw8PD4+0eELCw8PDwyMtnpDw8PDw8EiLJyQ8PDw8PNLiCQkPDw8Pj7R4QsLDw8PDIy2ekPDw8PDwSIsnJDw8PDw80uIJCQ8PDw+PtHhCwsPDw8MjLZ6Q8PDw8PBIiyckPDw8PDzS8v8DENfRh97+mjAAAAAASUVORK5CYII=;" vertex="1" parent="1">
          <mxGeometry x="194.56" y="335" width="60.89" height="55" as="geometry" />
        </mxCell>
        <mxCell id="vbeuC_v3QueVd4-8y7Fi-9" value="" style="shape=image;verticalLabelPosition=bottom;labelBackgroundColor=default;verticalAlign=top;aspect=fixed;imageAspect=0;image=data:image/png,iVBORw0KGgoAAAANSUhEUgAAAYkAAAFjCAYAAADIAvdZAAAgAElEQVR4nOy9d5AcV57f+Xkvs6q9b7RvoGEIS8IToAH90HM4w5nRzmqddKu9W0kXF+fipH8uFKM/Li50J8WFThdxETI3WmlnR7MzuzOcoR3aoQEJkiBBgiC8R6Mb7dC+y+V790eW7y4ADaC7srp/H8YLsKsrK39dmfm+z/yMstZaBEEQBGEOdLENEARBEIKLiIQgCIJQEBEJQRAEoSAiEoIgCEJBRCQEQRCEgohICIIgCAURkRAEQRAKIiIhCIIgFEREQhAEQSiIiIQgCIJQEBEJQRAEoSAiEoIgCEJBRCQEQRCEgohICIIgCAURkRAEQRAKIiIhCIIgFEREQhAEQSiIiIQgCIJQEBEJQRAEoSAiEoIgCEJBRCQEQRCEgohICIIgCAVxi22AsLh4xjCTiDIRnyHqxTHW+L9QADbrnYqQdnGVjCNKDYMl5iWwWMqdMEopyp0w1aFyQloeeWF+yB2zjIh7Cb65ep6Ph45yZPwSV2auMu1FsRZ0lj4YBUpZ6sJV1IQqrvu5yub+C2CVxaobtUylDpr9oTfNfI5fOudXFmImztXYFFGToLOqmZAO0VHewM76NWxvXEtrZQNK3fDFEZY5ylp7q0+DUAIYazg8fI5/cfhnfDF2mvHEDNPWn0novDvAKL+5ysHVTsHPTB2nMek+TVv/WKsMpkA/lJy7YJOrnQrQVuccn39svoj5x5M83qTXTdPHp8+SsnHpnX+u32sLCZUgajwsljInjIOiQpfRVd7Ioyu28UdrHmVdfSdaZonCDSAziWXCeGya/+fYi7w7cJi4SQDgwNwiYMEzFrB4JAp+Zmp44SmTN/D1u8FCM4lMJ5vppPzVrrk7LW3Bm+v49Ocbck+V10EXOr7Ez5+Nl/VelMFVyv9UL4EHTBLneGSKS1MjGAX//abvsqKibs7zCUI2IhLLAGstvzj/Pm/1H0wLBFbjWFDJ8XB+h369+WXO261G2+yOUYMyc664GMCxYJOj2FSHp01uB5nfD6ZGykYljwewqeM1mtzzKzv3SH5JnX8OUmLjJM+fOwNRjMen+cW5D7mrdjXf6bmHcjdc4JMEwUfmm8uAs5P9/Ozsm4zFp/AUeEpjVWpZqPCI/7ZidXKknGoLjc5ty+78s+3RFso8zfjUOP/56BucHL2UcVwQhAKISCxxIokovz7/IWfH+mfthVolHcRyQlt/Y1sDpyZ6+c35j7kanSy2WULAEZFYwhhrODVyif0XDzMVjaGti7Ykl4ZEIJYXJj1z9DRcNRO80vsJnw+fJGG86x8uLFtEJJYwk9Fp3r1wkOMjF33vGatRGH+/INVughtanSqwCZuPtrPX4+eDznPfXW7HzxejDEYZPG04NXWJX118n6GZ0cUzQCg5ZON6iWKs4cx4H29d/oqxRBTjOFhtkvsPKXHQGOuPIvP3JdR1xg+zO7bc9xtlcl/L//x8Ecn/OU/A8j16ZgnVLFG6zvE3KGIlc/5Z5G6M530aKEtMx/lt/0fsa97M91c/StiR7kCYjcwklijT8Si/vvAJRyf6SShVuLMQlifKoK3hamyCf3fq15wcv1hsi4SAIiKxRPn66gV+O/g1I0SJO5n1aJ9ietkIQcAxJu0ue3z8Mj89+RaRRKzYZgkBRHqJJch4bJq/vfQJx6evEHc8PG2SnkwycxBSaLTRKKtJePB67+d81ne02EYJAUREYgny5dAZ3u3/kog3jSKBLw55G9XJjWyL39J+/Gl//ttNXtzAgpN/vuV2/rmxyh8wGDQGF23CaOPSPz3BX5/5gMvjg0WzTQgmIhJLjJGZcX7X9yUXp/r8KOBb9GQSljIabV2wLjEs+4eO807fV7LsJOQgIrGEiHlxDg4e542+g8RNFGeO5H23i1QSukJt3igRtMVAWX+JSeMnFTT4IqEt9EXH+GXvAY6MnMczcg0EHxGJJYK1lsvTw7zc+wlnp/uBxfW/F0oJncy3BWAw2ndsiBHns7EzvN7/BcORcSRBtAAiEkuGiBfni6unOXD1BNMma7kgf6+h4J7DQq+Zm+s0YbExSWcGoxIYlcAqw0R8krf6D3Fo5EwmGaSwrBGRWAJYa7k8M8ybfZ9zYTqz8XjLdXOEJY/R2ct7BmsTnBi/xKu9B+mflkhsQURiSRAzCQ4Nn2J//1fE4on0TMEqFmyN316nzR+ZWSwmRmlMdtEhZZLFj2AmHuGdvq/Yf+UoMU9mE8sdEYklwEhsgtcvfsrQxEgy0+dCubEKSx1lNQronRrkJ2ffZSAyVmyThCIjPckS4NULn/D2hU/BqtzN6msKxXX2IBY8bkIIItoCVmOU5YORo/zF+XfEJXaZI09/iTMWneQ/HXuNqImn025o6yeAk1L3wnxJVes2yuCR4C/Pv803V88X2SqhmIhIlDCeMfzq5PucHr+Mp8FLiQSZFNSyeS3MF6v8e8cxhuGJQX584mVGZmTZabkiIlHCHB+5wF+feReLLxAJnVUzWcRBuAmyU8Y7FkhE+aD/K97p/UKKEy1TRCRKlOl4hN9c+JhTU1fmiHI2Wa/p9GZkbjPXbNeLgJ79ebnt+rmLgpnbaLmTvv7pfF4OVyIT/O25/ZwZvSwBdssQeRpLEM8YPho4xuv9XzBhZmYVDLqptBiCMCcaz8InQyd45dwnjEenim2QsMiISJQgVyKjvNF3iHMTV/CUxai5y2DKkpNwK1ilsdoB5RCJx/ntxYMcGT4neZ2WGSISJUbUi/PFyBkODBxnxosW2xxhiWOTXYTFcmbyCq9ePsiwbGIvK0QkSozByBhvXPqCcxP9kLM+nLuWf9PZWAUhC2stHpa4NgyrKV4eOMhbfYdkNrGMEJEoIRLG45PBExwYOMp0YkaSVwiLglWQUJaEspyeusIvevdzdqKv2GYJi4SIRAnRPzPCS70fcXb68q3XbxCEa1IgW68xfDbwDa9d+oTJ2ExRLRQWBxGJEiFuEnw48DXvX/mSBAkpzCMsOr5zhGEyEeHFCx9xaPiUxE4sA0QkSgBrLZcmB3np0n5Go5OZKGpl5vRqEoT5c50svOl4GT9+4uTEZV7v/ZQr0yMSO7HEEZEoASJejA+ufM3Hg0eTr0g6baE4pAYkk/Eob/V/yadDx4l4kgBwKSMiEXCMNZyfGOTl3k8Zi0eA7NxMwa2/IDOcEicv4l4l84CprHxg5yYG+E3vJ1yaGsLY4N2Dwu1BRCLgRBJx3un9ksOD57HGd3M1aNmwFhaZfBHQxIzh/f4jvHvlMBEvXhSrhIVHRCLAWGs5M9LLe2cPMTM5Q1k8jDYuVoGnfddEv7qYXMZSJ7+in1UGGyDnBKs0VpFuKYaj4/ynU29wbPRi8YwTFhTpXQLMZGyG3507xMmhi2jjJ+qD7Jz/xbTu5pjVGS7j5qlMy/k+AiQOc5FabtLWzxR7duQSf3n8DeJS6nRJ4hbbAGFurLWcGr7A6+cOMOFN4zk6OXMotbV+g1V+x2IVxJPDklCyH/SW8bJZTlr3gns4KcEo7ngu7VGXJRDKQpkHIc/w9omP+LjzXh7o2V40G4WFQUQioEzHI7xyZj+nxy/hOYqEBk/njjBVQDeHb8SmlNipAu9PvX4tAbnWaQJ/vNXovPTu4FeEAx3I6zqLrBnPTCLKj79+hTuaummraSqiUcLtRkQioHw5eJLfXPyQqOsR1xqbEgiVzPdv8zqS/DrURVqymN25abB+h6osVBiNVhqFP73QnkUbm9xb8ZdalAXHJP++5N+RWmJL/11WJ9fGU51rwI9PCUL6OvnxBp42GGWJai8pEPnvWyz0NX4i83cr/w+xWJRVxBUkHNBW8fHkKX5+4X3+643PUO6EF95kYVEQkQggk7EZfnLiNQYTYyQc7Tu5Jqv5pEanJTHSTOIoTVNZHRuru9hc2U5XRTN1ZVUYzzA8Ncp0LJLMVaiwyvpuluSWXk1tlmZeSve6OT8H/fjsH1KvTasEx2JX+HryIkOxUby0O2mw9yZyPOwsDKhp/rb/I7Y3r+O+FZtxtGx5LgVEJAJGwni8efFT9g8cI4YBpbE5nUXQO47MGrq2UK5cNtT38AdrH+O73XtoLK8pqn1BZTw6zYsXP+M/nnqTI1fPkyCe3Mfxv89S2LYx1nB8/DIv9R5gXXU7bZWNKFUKlgvXQqQ+QFhruTQ1yEvnP2ZoZtR3O8QfrfmdRbAFIh+rFKuq2vmTtY/xvVX3iEBcg9qySr63ag9/vu5J1lZ3JpezfPfmUulmtYVILMJ7/Uc4MHCcqMROLAlEJALEZHyG9/sP8+XIaeJZdaptslZ16nIFeakpFWmtraE6VMEDHVt5tH0bdaHKYpsWeKpC5TzRtZ3nunZSVVaR9gSDIESwzx2Pk77eGBwLjlFcnhjg1UufcGFiQPI6LQFEJAKCtZbzk/28cekz+qNjWNfBs3ZW/epSYn1VG0937KRdlh1umLqySr7Xcw876nr8zf0SQ1uIJWJ8OnCMd/sOSV6nJYCIRECYjM/w0eBRDo+eI0o8HdlqlEm2XHfKTC2J5O+0yWmLTc5IVxkqHZeHWreyq/kO2cCcB0op1tV18MdrHqLJSc6+rM7xdrLKzApKLBb5dU1SKWMGIqO8fOEjjkskdskjT28A8IzHN6Pneenix/RGRm6imFAw9ipMMl2IAdbWdPIn6x+nKlRebLNKDkdrnujayQ+670FblQ6i9AnGtS6Exk9fb0hwaPg4vz73PqORyWKbJdwCIhIBYCIxw/sDhzly9ayfTTM1crQao1ItJRw66ZPvb2Rn8umYnLbYGAXGWqJ4OE6YP1r3OB1VzYtux1KhOlTBn9zxGD1VLf4LyWuainRWJONlApQFOLUXpUgAhjiGly58xMHB45Kyo4QRkSgy1lqOjV3krd5PGY+OoW1qg7D0EvcZBQkNe1Zs5qmuvbIPcQsopVhd08YP1zxEtevPxrT1R+muCcJG9myM8pc6M4MV6Ite5RdnP6BPihOVLKXVCy1BphNRXuv7gq+HTxO2CseAthqHEA4OOhm5m98pZLJxmtxI3fTvizOzaAk38F+te4Lm8tpFO+dSpcIt4/HOHexu3kgo6QrrWJNsqXsiGIMJPzGhP6dJKJ1sEMGyf+gYv+v7hkhCNrFLkeLfXcsYay3nJgd56cInxD2/VnBq7dlwY3sSxUyOlxrVugZCnqY64fKDtr3c37QRVzvFM2yJoJRibU07L6y8h+6qlqyN6uAsMeUwaxbst/7oOL+8dIBz41eKap5wc4hIFJHpRISfnH6DsxMXsSqMp8sxjiXhelgdw6qELwI2WWhozstVvJGktuB6mnBMURlV7KpaxQ9XPsCKirqi2LMUqXTLeLB1C4+2b6MqXEncgbiTdBAIUAbdZNYYtNW4RhPy/OYajbGWzwZP8uL5A4zJJnbJISJRJKy1HBw8zqu9H/npF7JEQCc3JQtlSA0S2kLIaJrdGp7suptNTT2yF3EbUUrRVtnAM1172NywCpUSB4IjELPJ3VPTFqa9CL88/zGfXTlJwnhFtU6YHyISRWJgZpSfnX+fK5EJlHJQ2pcJ12jCicxIDILZGdis+A2lFJubV/Pw6l1UhcXl9XYT0i5bG1fzeOcumsuCNUuz6JzmKU1cQ1z7/58SM2Xh4tQAf336fQamrhbbbGEeiEgUAc8Y3u0/zDuDR4iZQjUi9A1HWy/+bMNfE/fjIgwVFRU8vvZuVtW3oZXcUgtBbbiKZzr3cHeTv4kddFIldk3SuUJjsFh+N/A1r53/rNjmCfMg+HfbEuTy9DCv9x2kPzqS9WpmMzLV+Sa0wUu6FJJs6UjbZBxFSiCU1ddsC4FVhphr2Nm1kfs676TCLVuQ8wj+bK2nuo0/XP0tGkO5s4ls77fFdo1V6aVRkxW7AdlxPKmfjTKMmCl+fu4DTo30Lp6Rwi0hIrHIRL04b10+xDsDh7F5swijMq6t+bWPg4ZKFtRZUVnD91fdT1fVCtmLWGAcrXmwfSvPd9+P64QDm9dLzeF5lUkhYzky0cvPTr3HTDxaBOuE+SIisYhYazk93seLFz9mKjqNkzXiy07FkUheleBuWvubkmWqjCc7d3N/y5044vK6KISdEP9o8/NsrOvBC/DSXnpmkXcPK2uYsVFe6zvEm5e+JCaR2IEnuHfZEmTai/Lby5/z1chZrDX+UlD6t37HG8RN6rlw0Wys7eap9j3UhauLbc6yorWikX+87hk63QZco5MBmMW2an6cjQzwSt/nnJ8alEjsgCMisYicGe/ltd4DTHrTc78hK2fTrF9RIOtngfcvNHWhSh5o3cqOhnWS5XWRCTsuj7Rv5YXWvdQmwrgJNWvEHhiy9tMyddcNMS/G54PH+bj/CBPxmaKaKFwbeboXiel4hNcvf8LJ8YsYm5lipzcai9DR3yyOgjvqO3m8fSdNZZJ+oxg0VtTy3TX3sbWuB53cnJh/9uDi4Ge19eidHuDNS59xevwynglgBLkAiEgsGseunue13s8Yj/uziFSytqBS2EvG0FhWxWMdO7izoUfSbxQJrTSbmnt4avUe6sqrM3m6CEadiULYLCGLEOfA6DHe7vuCsfhUsU0TCiAisQgMzYzxSu+nHBvvu+Fjij0YLDQidbTDjsb1PNN5D3VlshdRTCpCZTy1Zi8Pd23Dcf308emSt8U27rr4GWMH4uP88tKHHBw+KbOJgCIiscDEvAQHh0/xWv9XTHuJZHF7SH/1WfEO+X7uah7ttmNTUbSZDscCjWX1fHflA6yuaVuIswrzQClFS1UDL6x9gO7qFVku1EF+rA3a5orBqfFefnHuPUYi40WySbgWQb6blgRDkTHeuPIl56eG0NZFWZ1M7xxsUmk30j8n/32w9U4ea99GSLvFMUzIIaRdtjet44XufdSoMr8gUfCnEf5gyPjPQsJa3rh8iA+vHJG8TgEk+L1VCRNNxDk4fJrfXTnGVDzmp9woUB8iOPhr29mR3gp/CaM6XM0/3PAsDbLMFCjqwlU8v/J+djdswDEuegGj7G8nimSmAOMyEYvwF8ff5IrkdQocwb+TShRrLSPRCd68/DWnxwfSrxvlF2UJvBdK2mXRFwvHOvzxqoe5q16yvAYNv4pdO99ZtY+uiuaS8JRL30FZtn559Rx/e+YD2ZsIGMG/m0qUuEnwWf9J9l8+gvU8bDKSOuH4LZUlM5MELY/smIlFfeg1yhocm0ARw9P+ZuiuxrX86R2PS0xEQClzQjzetYuH27dT7RTOoVVs76dZe2hZMRQTdoafXHif9/oO+7XehUAgT/wCMTA1yt+c3s+liSEcm0m3USq3vkpm7kQZmstr+DurH6CtqrHYZgnXYEV5LS+suodNjT0oxym6IMwXqwynpnv5q7Pv0jclNbGDgojEAvFu39e8O3IipxypVeBYCCcg5IFjgrvJaPGFrVw5PLDiTva1bqHMCRXbLOEauNpha+MqnujeSV1FLXHHdzNNbYAtZq3zm8HPKm74ZPgY7/Z9ScSTmthBQERiARiYHuXfn3qTMW8SqxKk8umnakXkVAAOpEholHKwCUtPdTuPt++kq6pZakWUAHXhSp5u386epjsoD4VRxgbYSWI2CsOVmWFevLifU+O9suwUAOSpv80kjMcvzn7A0fFzODqOdTyU9ggZQ8j4QmHSVd2SI73kv9lt7pw3C482Gle54DlUUsEDK7ayt3kjFU540WwQbh6lFGtrWvm7K++nSdVgYwm0Z1FW4+DgKIWjFPo6bbHJLI1pPAtfjJ7mN72fMJWQdOLFRkTiNnNk6Bw/P/cuhrifVz/lRmr95SWUCXyOHWsV4HJHXQ9Ptu+hs1JmEaVESLs83LaVF5p24U4lcGM28MubKVJiMRyf4jd9n3Lw6slim7TskSf/NjIRm+Zvzr3H+Yn+kpnep0l6URkFCWOodCt4duV97Gy6g7DsRZQc1aEK/qddP+Te+g3U2DBhq/yU4hiUzVRADAopU0yy7KmnFMfHLvKTs28zLJHYRUVE4jbhGcNHA8f4YOAIEa80p8ipusQJDHfWreaZjrupl1oRJUtjRS3/ZN/fo7O2A4OLURqDxibjdLTxg+4c47fscrfa+M2dR0sdc7OlVBX++/1ZtwYPPhs4zoGhYxI7UUREJG4TgzOjvN/7BZcm++f+Vhd5b2HeJPdI4o6hvrKWZzp3s76uUwLnShilFDvaN/Cn27/LmuY14JYT0y5x7YsFaELe7JYSjZDRhBMu5XGX8rimPK4JJ3Kb62VaKHlM6nidTEGTLRzXwzGaMs8/V1nCZXBqjK+GzkrNiSIiCXhuA1EvzhdDJzgwcJhpE8EoFaip/HzQSrOlbhVPdO4g5MjtUepUuGU8u3I3LeW1/OrCx3wydILR2CSJRAJtLS6ZpR6bzCILGqtsUij8zj3blTuFVQayfpc6PlWnPZX7yy93YW9oH04r5Z+XEGXKJexoqnVZ0bMiL2ekF7gNDEZGeaPvU05HLhN3PH+UZhSlOFFbUVbND1bex8qalmKbItwGlFLUhit4sH0LWxtXcXasn0ODp7g8MYxnM8n0LGCVxarMco8ymTvY5rwv6yiViQFKpSpHgU2KAti0aKTOcS0sCscoKm2Y9vIGOqoa2N2+iZpwxW36RoT5IiJxi8S9BO/1Hea9gcOM2yhGa//ZUcH2JEmZlp1Dp0KH+NaKHTzZvkMC55YYIcdlRWU9zRV17G5bTykEM6dWOsWzrriISNwC1louTQ7yxqXPuBwdxSi/BkPQp8YWf4MawPV0cjlBs7aine933suKirqi2icsHEopFKr4Va2EkkFE4haIejF+d/4LPh884QtEOhGfzp6TBxZlwU0uLVTqSh5v3c7uFXdIrQhBENJIb3CTWGvpnRjitxc+ZSQyBWFQJTItVoBrDK7RlMf92cTWhg5eWH0P9VIrQhCELEQkbpKZRJT3+g5zcOQUUS/m70W4GpQpiUC6lD86QKVbxrPr7mV9U7e4vAqCkIOIxE1grOH0eB9/del9hp0IVoPSKT/AfH+QoJGJttUK4o5mQ8s6vrN+n0RWC4IwCxGJm2A8Ns3fXv6Yo9O9mJAfoRpUSbgWCQ2V4Ur+fMvT1IWrim2OIAgBpDQW0QOEZwxfXj3DG5cPMhmfKrY58ya1FGaVwTrwePcOdjSvlYpzgiDMifQM82Q0OsGrFz/l9ORlINixEHORjpxVsLamlee798osQhCEgshy0zzwjOHQ0Cle7/2MSCKGwvdy0nk1qC2girwApc1s/Tc6kyah1qng8dZd7GxYI7MIQRAKIr3DPBiJTvCzM7/j0sxw8pVUfbkSwWo8pbFKsbF2JU+07aSpvLbYVgmCEGBKqIcrLsYaXr34GW/1f5l8pfS+OqvAU5qW8ka+3XUv25rWSOCcIAjXpPR6uiJxcWKIn5/7kKmEX5w9tRdRCjERGTSOE+LOhrXsa72TmnBlsQ0SBCHgyDDyBogkYrx84VNOjJxHW4u1YNHpUIg5N68DF5PmV55rLmvgW+07WFfbIYnTBEG4LiISN8Dhq+d5vfcgk/EIqGR+fUinVS4FtAXXOuyrW88z7TuodMuKbZIgCCWAiMR1GItN8c6Vw3wzcZFEem3JT7+hIIAzhmTZyOT/G2XQVuNYaHer+X7H3XRWNUr6DUEQbggRiWuQMB5fDJ3h9d5DXE1M+9owz7q9i422gNWZGU5SC0I4PNiymcdWbZdlJkEQbhgRiQJYa+mbGuH13i84PdGLsRadynukM0n8UiUa84XDFKEj9usIJwXC6qya2obu2hb+YPO3KA/JMpMgCDeODCkLEPUSfD5yhg+HjjARj2Q6XGWufWCAsMmawo4b4ulVe9jU3FNskwRBKDFkJlGAvshVXr/yFacmr2CVl0mtnV7KzxYLw2y9zReThddjo0iFe6OTFngK7mxew1Pdd1PuSpZXQRDmh4jEHMRNgo+GjvPbwS+ZMhFC9lpeTHMJRPEwWfvRnoba8mqe69jDhrpO2YsQBGHeiEjMweDMGD87+w79UwOkx955zkCZzlgnf87tgLU1Bd6/OHjaYB3FnuYNPNWxkwonvLgG3CastXjWYKwh7iUYmhljKj5TbLOEgGIBRzmsqKinoaJaBka3ARGJPBLG48O+r/j4yldo5aFwCNJM4UZI7UW0ljfwfOdeuqtbSs7lNe4lGIqMcX5ykP2DR/ls6ARnJvqZMRE8m0i+y+T9W4j863ej17PQ5y7X4292P26hv3+dfnfcAcdq7qldxz/f/gesqm+/cTOFORGRyCPuxfn1pf0krFdS8pBeDUtqgYvirvoe9rVsJlxC+ZniJkHvxCAHrhzllUuf8fnV04zGpojhYazFznIguNGOK+9K2utc2es5KCy742/VYWOhv3+NURBzDI7RXFQDROKxeVspzKZ0eo9F4srUVT4fOQ14aOsEMlju2vh7JOUqxH3NG2gK15TELMIzhqHIGB9c+ZqXLhzgd32HmDKxdGdQeLmuVGS81CmF7znpjq5he1MPTZV1RbZnaSAikcepkUtEjQc4mReVwaZGLskRjkqPZOYe8Sx2nERuH2oIa82muq6S2IuIeQmOjl7gp+fe49W+z+mdHgBrUIpZI8r033m9keitcqufv9yPv1Xmff7kc4lhXVUbT3XfTUOFpMG/HYhI5DERncYrnVCIWVhlUBaqdZiWcC2udq5/UBGJmwSHhk7zr4/9hneHvmbMTIOCsAInwJHtQgBRhnLH5aHWO9m54g4ppnWbEJHIoyZcRQgHZXVm/btEsPhxEQ7QWFZLlRPs6OqZeJQDA8f5l0d+xYGhY77AOVkPdrZIlNi1EBYfhWJzXRc/WPUA9eHqYpuzZBCpzaOnvp1Kp2KeRwXrazQKRmITRLzgbtzFvDgHBo7zfx99mQMjJ0gtF7jWb0HOjyUEA23BNRDyoCwBzaqCF1rvYUvtKpyAz6BLiWD1bgGgpbqB9XXdWWuiWd40WaNZm246699MKwYKf4lGWxg3M7J0Q6kAACAASURBVAxEx0kYryi2XAtjDcdHe/nxqbf5dPgYGIOnfXFzPQgnSicFu1A8UiJRnoCqONxTtYan2nZTFSovtmlLChGJPCrcMM+t3IOTs/FcOksdKhkdnjAJjk9eIuLFi23SLK5GJ/n5hQ95e/ArZkzGPp2cRTgykxBuEG3BMdCgK/lW125W1bVJAN1tRr7NPFztcF/bJrY2rUEple50AUwJfF062cEmTIwvh04xk4gU26QcEsbjk4Hj/Oz8h1z1pvC0wdMGx/gPu7J+MGB65pY3gxME8DMaqKzB210t69i3cgflUkzrthP8Xm+RUUrRXdXM769+mEa3Bm012uqMvz66+O6BBUilAtEWrDEcGTnN11fPBWrJ6Wpkgn937DX6Z4aBzBwtu1CSINwIFj/9TGN1HQ/07KKztvQyC5QC8lzOQVi7PNx6F4+27qBMhQGd9M/X+JGdOv3/mVYctDXphjJ+zYukG2zf9DBv9H7KWGyqaPbl83H/UQ4On0h9k/6/16oVLggFMNqgQ5btnRt4dOVuwo5kOV4IRCTmQClFV1Uzj3ftZlV1mz9zsNofoatMbqTAYXNnOREvwrv9n/PZ0HE8U/wlm0gixosX9hM1cbTNXWKSG1GYLwpLe1Uzj3bsoqlcoqsXCnk2CxByXHY2r+Oeli1UueV+PQkMRplkNbpUKy5G6XRLz2qSQmEVnJnu46Xej7gSuVpUOwFOjfdyePQ8CSwqueGo8Gc/RhlssmVX+9Oyib0smXXdUwOgrDQtFU459zVtYW/zJsplFrFgiEgUQCtNZ2UTj7ZvpaemHT94M3dpJ2gYlWq+G65RGs8a3uj7lA8HjhA3iet/yALyxcgZhuKTOa9ldwQmqDM0IVhY//7uqFzBYx176Kxqlr2IBURE4hqEnRC7m+/godY7KXfLsMrg2hiuTeR0bikPqOxWLEwyG2Zc+yv+2mqGIxP89Pw79E8XbzbhGcPxsYtMeTPJGUPSXjV3E4S50VgFZW6Ye1u3srd1E6ESynJciohIXIfmijqe697D1vqeZJicQZMgnVAsYEshVpEM5tPpfwE+HjrKL85/UDRPp6uRcS5PD+ac34oYCHOQvcyYu9ToC4RB017Vwg9XP8gK2YtYcEQkroNSijsbV/Fs525qnBCQWTMPIrkzGl/SLJpIIsavLnzIydHeotg1MjPO1egEloCpqhBosoUiJRBxB55duZetDauLa9wyQUTiBihzwzy78h7W13Zj1BzBXoEks3kN/oN2fvwyL53/mOn44gfYRb04sSLviQglis11M19V2cp/s/ZxymSzelEQkbhBOqqa+Xt3PEOZCmMNuQF1+dHBxRSO/HPbjNfTlInxRt9BPh88uehmWZuZQ5gskU15NOUjexTLjJSbuUkGr+ZE0viDHGU0ZcrhH619nI7yhqKau5wQkbhBlFI82r6LR9ruJvW1BW0/YjYZl9iUracn+3nr8iEGp0eLapkg5JOKus92/vA0eNoXjpCBBxs38kznTvFmWkREJOZBc3ktf7b+OTrLO5KV6ZJLOsU165oom1u1btyb4s2+g3x85SjRxOKlEpeHWrgRsgdeCeWLhEm+3u7U8sNV99NR2Vg0+5YjIhLzQCvN1oa1fH/VQ1SoSpSnsMaCCZhMZAf7zbGUc2FmmDf7D3FhaghjF2dpLOy4hMVVUbgGqf0+q/ziWf5GtU+5ctnXvoXtLesk/cYiIyIxT+rDVTzdtYct9avBqnQCQGVsTis6s/ZGkm6xCqa8KB8NHeeToRNML9Jsoq6smtpQJUpZwAQkXl0oNum6LElRiGu/ecmeyUmmjm+rbubB7u101Ejg3GIjIjFPlFJsqu/iya5d1ISrsRZscjQenGQd18Zow7nIAK/3fc7FqUGsXXhRqy+vobmyDpWV619uPmEusp0VHAMVTpidLevZ2bKOsCOz0cVGntOboMot47GObdzVtBqSoxpDZjRUCsRNjI8Gv+HDK0eILUJhojInxPq6bipcN8tnRVjuqFTLiu/xYyMyw63OqmYe69pOe2WjFBQqAvKN3wRaadbVtvOHax6iOeQXXLdZ7pqlIhTD0XH+6vTipOtQSnH/ii00hWsClcZECBgqU0xIAWXK4f7WTdzdvJZyV/YiioGIxE1S4YbZ17qJb3VsRysnKRCFN4sDQ1468SNjF/jr0+8RWYS9iU11K7mzehUh6yYTJaZ+o6+RikFYFqT30HKfoTU17Xy7ew8dFRIXUSxEJG6BtspGXui5j86qpvRrJumREcR+zjLHTMdY/ubcfk6MXV7w87va4YWV91Ol/UJO/rqz3IJCPn7RrDIdYl/bndzddIcsMxUR+eZvAaUUW5vW8mjnTqp1WTJSNNgRwtnLYuDfAH0zw/yn0+8yEZtZ8PM/0L6V3c2b8JTGU5loWkGArIA6FGtq2nmmew+VofJim7WsEZG4RRrKa3iqcxfrajpxsofoAV1yUnnLOspCzCT4bf8XvNP/9YJXsKsvr+H31j5CY0WTLxIBrRcuFBGrqXIr+VbHTrY19hTbmmWPPKG3iKM12xvX8Gj7TurC1bgWQsYkN2ODJRQKXxj8sqF+3e7UzOLyzFV+ef5jLk+NLKgNIccPinq++17CTgUka14s2l6EnVuY8vdErrtHUuBzhFvDXw5VrKvu4OnO3VS5MosoNnKX3wYay6t5pmsXdzWuIaw0Go+gCUSKVHCSk9P5GYxJsH/oOL/t/YLpeHRBbVhRXsefrn2Ex1u2UabK0kkI51qmC/pKVNDtKy38Z6YxVMXf6dnH5vqVshcRAOQK3Aa00qyv6+Txjh2sCNf6SzrFNmoOUqNifybhN4M/etPA1cgYL146yOnx/gVN16GU4o7aDv7hHd9id9MatHbmlNT0RjvzGOEXQJtUhtHksamfky2nhvJcM42896ViYlKlYvM/73ozk4VuQSf1HflkYiIcpdnesI4H2+6iSvYiAkEQ+7KSpDpUzmPt29jZtK6kyimmvJ2UBWMtX41f4JXez5lZYJfYsONy94r1/Nn6J9jasAqrFF52rAmzHQCC3gHmVj0QroVJFhDKnnFrC23hBr7TfR+ra9qKZ5yQg9zTtwmlFGtr2nh+5f3Uh+v8inAB83JKdcCezjTIBLMZZbjqXeW1Kwc5Onppwe2pcMM81LGV/27z89zdfAeO4+Ilk7vlC4RjDY7NTXwyHy8yo801240eT7r+RW5LpbjOOaZA/e6baflcb+YQ6JmFzeQR85shHHaoCpezt3E9j3Rsp8wNF9tKIYmIxG0kpF0e69jJ7sYN/gsB3Ni8VuejMWA9jo6f4zcXP1nwADulFDXhCh7p3Mb/uu33eabTd3fMrqbn75/MVZTo9i6HpQRgrqJR2d9Tdn+ryOzvqGwBU2bWMbfSUjZkX7NSL8qUusYqeX2dRILQVILvr3qAlqr64hon5KDsYmR3W2acGbvMQ6/9U6Zs1HczLbZB1yJPyFJV4nqqO/jfd/x9Huvcuiibh54xXIlc5Wfn3uevzv6O3skreF4i6Slm8HRWjEf6qGy7btTGGxGXrM9KfT/J7yX1sCgMrkkJRHJmViAti1Hc8oAhfzYQ6HvqOlj8QkKOMZQnr7EXjfGnW17gf9n9R1SFK4ptopCF86Mf/ehHxTZiqdFQXkMsFuOzoTPJDKsqwAmKcrsbpSwKmIhHqXDLuLOhh9pw5YJboZWiJlTJvSs28mjLXZQRYiY2g7GWBAajFF5eR62tQqFxrPI7UatRVuU0/3cKsMnO+0auQ2oMr2Yll/IT0vkpRZQyaGtBqczeTs77Um7H2t+vsBqdtMe3vfB/Vqmc9/oxOCqZUNKmz1GqWGX9RI/Ww7WGrqpW/umuP6azpkVSgQeM0tlhLTF+0LOPDy59zcHxcyS0yRqCBsw1VpmcUa5NjqKNSfBh31fsW7GBpu67qXDLFs2kdfWd/LPdf8TBgT0cHDnNl2PnuDQxwMDMCBPxSRLGS3o8aRyjklUCMyP41Des8b1owBB3DUb5QuEojTPnzCPv2sxZLzzrx+T+DlanZxTKM1jjz3xSgYu+NjmzevXsGYfJe80o/1jX8+NZ/L0QiDkQtXGiXhxjvMK25v9lAep3/WU6AypBzE2gQ2U8ufYBeuo7RCACiIjEAtFR3cwLa+7j7JEhBrxxSHlyWB14oQC/s+qPDPN272fc2dDDurqORfdZ39Wynm3NaxmJTDAwNcLwzBiD0TGuxqdIYFCpEblN2Wxzxtg6NcMAPG2wWBylqS+roVKHs94J5C0L2gIzv8zLKqdyWuqbmfaiXI1O4iVnI9r/MDLzimwsqV8n/89/q821XyV/5zsdWK5ERvl69AJHrp5lODpxva8xgPgCYZQBZVlb38VDnTsl/UZAEZFYIMpDYe7rvJPfDX3Db/u/xDMe6a4kZ/czIIKhDDYnoM0wZWLsHznKnqFv6KhqproID7GrHVoq62mp9DczE8Yj5iWwN7BsNNeYVKEIOS6udm6zpT7zse9GyBGu5L8RL0bf9AgvX/yUn5x5h76ZkYI7MkGaQaTwZ2AGSFAfruaJtt1sqV8lgXMBRURigdBKs6q6hae6d/PVxHkuTQ6ml0XI8w8PDgayXHc9ZbgYGebNvs/Z07yR9XVdRX+QXe0sWAd/O1gM+6pC5TSW1dBUXstUYob/fPodphNTC3rO242yoLVmU81qHm3dQX24utgmCQUQ6V5AKtwy7m/dzMOtd1LplAG+j71Nri9bZXLcHItJZjPYJN05fTxreH/ga97q+2LBA+yEG0cpRUt5Pd9ZeS/dVc3A7JiIIM4iwI/0L/NgdWUrT7XvZXNdT6CFf7kjIrGAKKVoq2jgiY6drK5ZkVtUJWsmEcRn2Xfq8YOeJuIRfnX+I86N9xfbLCELR2s6qproqmpOz/Cy4yiCSErIwoS5o6ybB1u3UbMI3nPCzSMiscCUOSF2Nq3jkdZtVDna37DTfvNLNWYoxowifyYzK8DOaJTVfDNykV+e+XAxTRNugJByqHLLUQQzuC77/krVrvaMR61byyMdd7O2evEdIoT5IVdnEVhRVsdTnbtZXdORjOhNkE7nkBxZBWHJCWanc/DzKGmMsfz87IecGO0ttolCFsYaphPRvI64qCZdEwW4KsS6ii6e7L67KM4QwvwQkVgEHK3Z0byORzt2Uu5k4g3S7pQ2lRqucBbShULltZDJNEUmx5OyMBwZ599889KCFyYSbgxrLYPRcfpmRnz3XhRh47diC0V6BpGf5sRqGkO1/N2Nj9NZ2SxxESWAiMQiUeaE+L2eh9lRvw4XN1nqVM/5MBfrAU9VqnNMJhDMx2C1wdOGtwa/4tXegyIUAWA6EeWtvi+5ODOU83qQlpsyGLQ1hIF7mzbyfM9eHC3dTykgV2kR6alu5XtdD9DmNOMYnRaKbFI1foslFDZrTVtbCHm+aCS0Ie4Y+hKj/JfzH9A7NXTtDxIWFM8Yjo1d5PW+z7kan06/HnP9FhShyNRS97P4tpXX8QfrHqFcsryWDCISi0hYuzzcvo09TRsIpSuy3VyauoUklcIZkgnsSNV3MMSNx1ej5/ig/xtmFriCnVCYocgYvzj3AYdGz2KyosMTyVTrxXSCyD+3sgbHGBwFj3XtYmfbhiJYJ9wsQeiTlg1KKTqqmnhq5R5aKpvw9Nx7ECqZrO5aldIWgmvVMvAT1UHYMwxPjfDG5UOcmxxAkggvPjEvzluXDvLShY/8TWtrsdbiYdP/v1hkC4N/v+hky+Sf0viDjXVVbTy76j5qysTltZQQkVhkytww97dtYW/LZrRyZtUISI0Ei7VccC0XylT9hJgX58uR03w8eIxpT2YTi82J0Uv85ck3GYiMppPU5gh6EXU7U0go+0VNhVPB0yvvZ0vjGnF5LTHkahWBtooG/s7q+1lZ25ZbnEZBwvHXlItd1e5aYqExDM6M8PrFTzk51rug9bCFXKbiEf7NsZf5arwXrM5xofYz42Zlnl0E0p5x1t9jyxao7Ht4U/1aHuveQ224apEsE24XIhJFQCnFvhWb+F7XXip0OUb5D1nKqyiwpSeSGAUxonxx9QRvXP6CqBcvtknLgqgX56/O/Y7fXvmSqPXThAfpXkmnRreZn7GaxrI6nl55Dxvqu8XltQQRkSgSYcflD3oeYH1dF57SuAbCCU15XFOW8AUjuBg8J8GwN8o7Vw5zWtJ1LDjGGg4Nn+JX5z5gKjKJtplSqwozK95l0cmyxbEGxyRnOEqxsW41j3XtXNSaJMLtQ0SiiHRWNfFHax6i3AkBmXrJToBGh3Pjp3k2ynB49CxvXD7EZHym2EYtWay19E4P8ctz7/PN1bMovOCkmM8jf7mrvqyWF3ruo7OqSWYRJYqIRBEJOS7f6tjKPSvuQCmLVQYvuXENZKJVA9gh+CPGBJF4hJcvHOD0eJ/sTSwQk4kI7/Z9yXtXvmTKm8EoE7gcTSl825IJLJVhb9MdPNh6JxWOxEWUKiISRaalsoEfrLqPlopajPIjm4PaAeSi0cbFNXB+rI93ew8xHY8U26glR8J4HBu9yMvnP+Li5AA2Xas76BgawtU817WHzqpGmUWUMCISRSbsuOxr2czjndsod10/7V/gnycNJow2YVzPxYvEeef0QU4OX5J0HbcRay2Xxgf5xbHfcaj/NJ6xaQ+i7BXJ/KSMxc7bBIaQ4/JY+3YebruLkJbaZqWMiEQAaK1o4JGOXayp7cAqRTCr1mWj8YsauuhkrqdLY1d4+8xnjEcni23ckiGaiPHB+S/56NxXROPxrESQmTX/4gvCHCjFqqpWHm/fRUt5fbGtEW4REYkAENYu2xrXcl/7VupDlZkHf46I62CMFFNk1p6n4xE+unSY44PnZW/iNmCs4eTQRV469j5DkatJ99JUXERwH1uroMqtZF/rXexZsRFHAudKHrmCAUApRUtFPY+0bWdtXUdJPVhGZZL/nZzu591LhxiLlFa95SAyHp3ir4+9xZGJc8QdPwNv0PED+hy6K9t4pHUHreUNshexBCid3miJE9Iu2xvX8GDbVirCFaTrS6QI4IzCKEg4hkjIMBU2DIZm+MXApxwbuyQ5nW6R35z7mF8NHWS4PMFU2BBzfSHOyYl0ja940fYocma7LhVuJQ+1buPu5vWEHdmLWAqISASI+nAVz3XdzbaG1ajMqnNRbboW/izCb3HHEHENx2MD/OTCe4xnpa8WbhxrLfv7j/Bvz7zOJTNKxDXEHENCB680aS4abRw2Vq3k6Y5dNJfXFtsg4TYR3B5oGaKU4q7GHr7dvYf6UCVYnUyWpnOSphV7BnFNlOGl3k85PHy22JaUHNZa+qaH+ctTb3Bi4gIqWd42iOjUvpMy/n1pNXW6gidX3MWuFWtlmWkJISIRQJ7r2sPd9esIo9L5nEqB1NLGVGySn55+m8mYRGHPh+lElNd7P+ODocN4NlFsc24Ak+OKu76mkxfW3isFhZYYIhIBZEVlPX+4+iGanWpCBtw59iyDOMJUQNhatPX46Mo3fHj5MHGvFDq74mOs4fDoef7m/AdciYzhL99kHs/8gj6Fan9cqybI7SA1EEjXrsDDWouDy/Or97C6rv32nUwIBCISAeWejs082baVyoSDayg4owiSWGilcK0ipDSj3iS/uvgRZ8b6ZBP7BrganeRvzu/n67Fz13UhLva3mRKdTOS34a7GTn5v7T6pW70EkSsaUOrKq/n+2gfYWN5GZRxCJtdTJXt0GASh0BYwFmMMynEwIYf3h47y4oUDDEXGi21eoLHW8s7lr3n94hdMRqNYqxatGuF8Sd13ntIYNMpoat1K/mzj4zSU1xTXOGFBCOadKOBozZ0ta/n2HfdT61QR8nQ6O+xCLCPcCtkiZa0lGo0SiUQYjozztxf285sLnzASmZQZxRwYazg62stPT/+OK1NDfhZgU6R03zdITkoQ7fJ019080rataPYIC4uIRICpDJezb9V2tjSvIWwcQp4/eotr0tliiy0WKYFIzXIcFC4KlTBoY+mdvMJPT7zNb84dYCQyUTxDA4i1lqGZcV48vZ+vhk6jrUfIA9foQMwOr42/JNZd3caz3XuoD1cX2R5hoRCRCDBKKXrq23msZxd15bVpQch2hw1KX5JThhUNWmGtxTMeJ8bO8x+OvcZ/+OZ1zo71y4wCXyBGIhO8dPYAL5//mOn4RNqttNjCfz0UfsdR6YR4pO0utjeulSR+Sxi5sgGn3A1zf9ddvDnwNeevHMSS2cBezFrGhcjuzIxKCgTJjiRZocyzhtOTl/j/Tg1zaOQkz6+8h4c6t9Fe3VQco4uMsYbz41f4yYm3ePniAS7ODAB+NLXnBD+9IxiUsvTUtvBEx3ZWlNdJXMQSRlkZ1gWemBfntQsH+R8+/zGj8bFMIBPFF4lsLBnRSAlYKJk63KIxChyraAhV0V7RyJaGHrY1r2V9XRetlQ00ldXiaCf9eWfGLjPjxeY8V8J49E2PMB6b8mcm+V/EPO/qQm/PePCkCjcrKt0y2isaC5bjVNf4wKuxST7sO8z+gW+4NDXApOfX4NA2FcGe/J6uc2WLed2tMlSHy/mTtY/zj9c/T1tFQxGtERYaEYkSYWhmnH/x9d/wF6ffxNp48lWTM3IPAvk3UyipZ6lqaun3Jf9fodDJUaiySYFIVV7L+jSV5+2TTpSbvH3z1/CNzg30yj8+n0J7ABmN0On3qSzb58JfEjRzLhkpDMYaP6tr1pzBMRoLxJ1kbiZzbXuLe70V25vW8s93/jH3NG1Al1BCSmH+yHJTidBYXs3THbv4oO8wZyYuY7QhiFtKqc4rO+gr+1+b9bNNvzM1Sjeo5E+zii8pM3eK7LxUJcr65zDK5nXS3jVTbGcfP+fvVMbaDHMriwW8OUXCJEXGoAGTWjYkdxYWZLSFWreKJzp2sbGmSwRiGSAiUSJopdnetJon23fyk5kxRr0pbLJTzXnfHHEUxSB1+owdyRlP1n7KtXC1Snei6U+40dgBC9bM/g5utg7DfNOiKOvPDJyCb8j+TOPPJ1KzE5v8pvLrmi963ETq/LmZh0OeZnPjSp7o2EmDeDQtC2QYUELUl1XxROdONtR1o7SDUTow3k3zRV2naaNx89pcZToLNWW131FnNWW5qXZTf9+cn6X9v+86HX5Qc3Vpq2lyani6fScbaztls3qZICJRQmjlj+Iebt9KdbgKL+cZzRp5BjRaV5gLv25I0N1eAVw0d9b38ET3Lsokid+yQXqTEqO2rJLHOrazvXEtjhPCqMyGqraIQAgLRmO4mqdX3U1XbUuxTREWEelRSgytNJsbuvhO1x7awg2zl1qKbaCwJEi7/iarzjlWc1/rZh7q3k5IKs4tK6RPKUHK3DAPtmxiT/0awiqzPap8nyB/ASOg69pC0DHpZrOcDloqGnmy627aqhplL2KZIUOCEmVldQvf69rL4cFTXIoO5Hk5mcyyU76XTIlg8G7tAwLfj6XGZ7O9iKBYm9cGq4x/zyTvH6s0rnHZ17qFe1o3ySxiGSIziRLF0ZpHOrfxaNtdfjoHVTDIVxBunKxBhR/QCJ3VK3i2ey8tlfXFs0soGiISJUxNWSV/f+OTNJbVEnMg6qY8ZLT/sJfoLEJYPLIr3qVqVacCGS3guC4Pd9zFg21bJHBumSJXvcTZ0tTDn69/hnLlyj6EcJvIdAtra1r4B+sepSZUUUR7hGIiIrEE+Hb3XvbVrac84aeumJXSQggwmmI+hgqTaTYVLe5HjFcQ5vdX7mNdbUfR7BOKj4jEEqCrqpnne+5nRXn9rER6gjA/MqK1tW4Vz3XeTUgXTDAiLANEJJYAZU6IvW1b2N62GeOCl5cBVRAKo+doUONW8Gz3HjqqmsXldZkjIrEE0ErTVdnMkx276apcQboYtiAUICv3bs5rCQ0xpdi9YgOPtu+gwpH0G8sdEYklQoVbxv0tW3ioZQsVyhHPJqEgFvC0xtOZpImpWhYR19Be28xz3feyprZdZhGCiMRSQSlFR1UT3+vex8pwc2AziQpBwE+1oYzOy/VlKHPD3LtiEw+0bKFcZhECIhJLCkdpNtV183TXHqrcymKbIwQUZcH1/PTpRmkMfgpz1yruqGzh2bZdtFVI+g3BR0RiidFcUc/jnXezrkbcFoXC+Pm9NNr6tTrKEppmqni84S7ua9xIhaQCF5KISCwxlFLc2djDo+07qHYr0EZft16ysPzwtMHoBCEPKuKaipjLXeEunmvbQ2tFQ7HNEwKE9B5LkJpQBd/tvoet9T3JhQRByGCVwagEqASKBABVoUqeWrWXHa3rcbR0C0IGuRuWKOvqOnmhZx/N5XU5r9u8JixDlAEVw+oYnpMg7nqsalnJs+vvpyJUVmzrhIAhIrFECWmHh1rvYs+K9bjKSS85ybxCAJIu0n5q8OrySv7u+odprZIsr8JsRCSWKEopOquaebZ7L22VTQA5QpFqwnLDoKyf40slq8492LaNR9vvkiyvwpzIXbGECTsuD7TdyX0tmwgpLRXrBCBTmtSiaapo5Ac999NUVlNco4TAIiKxxGkur+XZlXtYVdGCY1K1sCUae7liFenYCKscvtNzP3taNspmtVAQuTOWOEopnuzcybdX3iMRtALgDxQcq9jZsIZvd++lNiyBl0JhRCSWAUopXlh9P2saukjo3FoTqdw9+U1YmjgGQh40uZU81b6bzXUrJbJauCYiEsuE1XXtfGfNfYR1KP2aiMHywyiwSrGxtpvH2ndQ5ZYX2yQh4IhILBNC2uGJjp1sbe4B8vYlkl4uOU1YUljAUxBzwC0r46HOnaypbZe9COG6yB2yTFBK0V3ZzAvd99EcrsosK4kgLCuM0qytaefhtu1US91q4QZwi22AsHiU6RCPtG7nQP83vHrxEzxFOux6VsnTPPGwsmxd0igLKP+Bf65jL+truyQuQrgh5C5ZRiil6K5awbPde+mpbffrYWu/+aka8pqwVMX7/gAAIABJREFUJFDJWWPIg21VK3m0bSuVrqTfEG4MmUksM8qcELubN3Bv6yYuxYaYjkeSv5HxwlJFW03IQKNbw/Nte9hQ2yUeTcINIyKxzFBK0V7VxA97HmEgMs57/V8x7UULvDt/NiFCUopoDPVOFY+2beWZVXdTJXsRwjxQ1lpxhFyGxLw434xc4C9Pvc07V75kMjFNzCTQKFyt0nmdlFI4ygEsCeMV02ThJnC1Q1tZPd9q3cl3Vt/PuoYuQlrGhsKNIyKxjPGMYSoe4fDgac6MXmZ4ZowyJ0RtWSUaXyhc7VJfXoNnPcaik3jzSOmRqrN9s5vey/V4ZW9f8sXasmo2NK6ktbqJilCZbFYL80ZEQhAEQSiIDCsEQRCEgohICIIgCAURkRAEQRAKIiIhCIIgFEREQhAEQSiIiIQgCIJQEBEJQRAEoSAiEoIgCEJBRCQEQRCEgohICIIgCAURkRAEQRAKIiIhCIIgFEREQhAEQShISSWW94xhNDIBQH15DY4ubY2LJKL0TwxTV15NQ0Vtsc1Z1lhrGYtOcXV6jLryGurKq3C0U2yzBKHoBF4kjDVMxiK8fv4gvzqzn5OjFwForazj4a7t/MGGR2mpaCgZwYgmYhwdOc+vL+zn7b7PGZ8ZpdqtYEvjGp7s3ssDHdtpKK9Z8Lz/xhreOneQf3vkRXpnhgG/rrXOK2t5s2UubyYDvbIGlIfCoD2HP9vy+/zh5scXtNRm3EvQOznEfzz6Wz7sO8zV6DjVoQq2rVjDD+94lG3N66h0y+Zlg7WW6USMr0fO8fK5D7kw0UfM82gqr2dH6waeW7WXprLakrlnjTWMRCb5uP+o/x1FxnE0dNY08VDnDrY1raPKrZjXd2SMYTI+w7GxC7x69mM+6vuK8cQUTdUNfKtzN99ZtY+u6hbcEhFqay3jsWn293/NaxcO8M3VC4Ssw+a6Hp7q2cM9nZupcstLsmxsoOtJTMdm+OLKKf7157/gg8tHSLiWVGfmY1hZ3cY/2f77fGvlbhoqagN7Eay19E8O85+/eYX/ePxVBuPjQKZIPUDYDfNg53b+2zu/x+7WTYSchdFway3fDJ/j/zj4X3j70mfETYxUqVKliycSPkk7jMe6mtX8+Ml/xtqGjpv8rMJ4xjAwNcKLJ9/n/z38a4ZiY3jaJM9vMNZSFargu2se5h9sepYNDd03dD1iXoKvh87x74++wivnPmQ6MY2TLCFkFRgFq2ra+Z+3/R6Pde2iuaIusPcswHh0incufMG//folDg2dxCNB6jtCGUIhzZMr7+Mfb/kB25rX3dDsK+4lODRwiv9w4nXe7zvE6MxVvEQcT3lY/HKrG+tX8+ebv8uzq++nrrwmsN+RtZbpeIRP+r7hX331Mz4Z/Cb9O201Lgrilgc7d/I/7vo97mpZR7kbLqLF88f50Y9+9KNiGzEXsUSc/b2H+Zef/ITPB09gHQ8wKDys8v8fLBPRCT4dOoKrNd01rVSH5jeiWSyuRib48dFX+PGxl7gaG0Nbhc6rQBa3Hqem+rgyM8qW+lU0V9QvyN8yGZvht5c+48UL+xmNTpIpVmrT50t38Vr5RqrbVy3t2vgnUxasStBaWc+2FRtu68zKWkv/9FV+fOxV/uKbVxiOjoLysppFWUvMxjk5epmRyBQbGlbSVH7tQYixhm+Gz/F/fv5TXr/wEVEv6l/j5DH+X2YYj05wePgMZU6YtfWdVLplt+1vu134y2+T/Pz42/xfh/6aU6MXsCT8Z095aCxWGYwxHBs9z+nxK2xbcQcryq8tesYaDg+e4X/75Ce8cv5jZuIzWM8DLMr+/+29eXQcx3no+6vqnsHOFTt3iiRIggBIkKIoUtRuP8uWbe3ekufkJXZky2vim9x7825O7j9+5513khs71o3jXZK125KsnSJFSpZkyVop7gR3EiT2HTMYzExXvT+6e2YwmAEGwGCT+6fTAoGZ6a7uqarvq6++RSDRCBSdgz0c6jxNvi+fJUVl5Bo5w1a5043Wmu7BPp478ybff+8+DnWdRArQQoOwnw9Co9Bc6mvlXE8ziwtLqCgonlWmzBkpJLTWXOhv4T+P/o4/XPwQSzodU2iQIIVGSBDCPoLWAMcDjRhCsqywnCJ/wYwSFBErymuXPuRHR39Hc6gNIUSs7UJI53eBloKoVJzrb8FUkm1l1eRkWeuwlOJY93keOLGbw92nEQoEItYWEGghUEKjhS0s3AM99PeRjkxxvyWpFQIdP6QmosP4DNhcUs283KLsPAAgZIXZe+l9fnXqRRoDbSAse2CjXHmIgUAIA0tHaQq2s8BfyIaFK/GbvrTn7Rzs45fHXuDpc28yqAYx3DqkzqQRq2eKJBgJ0zPYy7K5ZSwpLJtRk4bWmrZgF0+dfo2fHXmapkAbSIWSltNP7Pty+60QBueCbYSVxZXl68kbQej1hYP8+/7Heb7xTYRQSG0/dyVwFBIJ0u6DPdEgDX2XkBiU5y9gjr9gxggKrTVdoT6eO/sG/3H0Kc70NSKJ92HpdCQlbaEntKZtoJ2e6AAbS9YwL6dwRs1RIzEjjaKWVhzoPMmb7YcZNMK2RCbxGIoScHGgnV+f3MWjJ3bTGuyc6iaPSMdAD/sufciFYIt9ByP0DS0gSpS9F97nTOfFrLelLxzk9UsH2d/RQMSKjvheJeJHqt8z/WyqIx2x+VRJLK1o6DnDB+1HiSprDHc5Mp2hXvY17+d0sImotE0cWgztV8pZuQggMNjHS2ff4GJfS9pzaq050X2BFy68Q78VGrUNEaE43neR3zd9QH84OJHbySq2gOjmqTOv84vjL3Ah2EpUWFi4zz99jfNXm/bzTtvxEc9/sv08+5reBxVFans8u8Im3oj4tHSmv4WfnXiBh0+9QmN/G2oMNdYnk75wgOfOvM7Pjj/Did4LaOL9UwzRkhRKKLRUDBDm7e6jfNh5cky14qebGSkkIlaED9pP0BPudey4atjk4k4mWji2P8ugqa+TBxv28Mjxl+kc6J2+G0iidaCLY11nUdF4R9JIUj1+ocFQ0Bvs48DFhqy2Q2vNyZ6LvHThbbqDvZgq3qG1iB8uUsePycI9tT0pDz2ElrQE+3m37TgdoZ7sXE9r2ge6OdV1nnBkAFBEJaAlmvhhOaso6fSzYz0XONV7CSuNsIqoKEe6znG2r3n4pJdEVCrChqJDBzncc462UM8E9nCyh9aazlAvT595kwePv8zZnmYsrdBCJfQN+7sZ2l8UEkXPQDfvtRwd8RofNB2jM4PvUmJgaAOfgpa+dh47sY/HG16lNdA17c9qIDLIc2fe5KdHnuVkZyNaK+xnkth/bZSQ9gFYWtM52M8H7aMraDOJGSkkFJq2UBcRlcGD1BK0RCqJUIJLgU5+dux57j+2m5bg9HcogN5IkLZgJ4YSyAQtKbllsUkZ0Mqio787q+0IREPsaXyXA+2n0Eo5AmL6NZq4oHAmHnciwiQYifJm8yEOd5zOympCac3Fvha6B3tG3GORCZYisE1UlwY6iKbRACNWlOM9F1BjMLZpNN2DQbrCfegxGekmh87BPh4/9Xt+cfRFTvZcGuVehgp0qSFqhWkJtjMQGUx/jWDvmL5HqcFQmqZAK786+jy/OPQcbcHsjotMsT2YAjx5+jV+ePAJTvRcxNIqYyVKCYjoMG2DPagZMO4yZUYKCa11BoPG0TYh6VC0Bzv5+bHnue/4Hi4FO6d9iaq0GvsEpzXZlG+2OeQcjzS8RMgKM/SrT/V8Uq90JhuFrXlFpUQ525hNve2803wkK2YZjWYwGsFK0OTcQR7bj9Dgt8BnxbVloUFZ6b9DpTUDUXtyFKN8b6aC3KgiPwJSiZmhyISDPHxqL/95+BnO9jWiddR2SYaYIoaWQ1ebCX9HS7QW9IdDBMIDaa8zPmFom6VaI938Z8Pz3HvgiVi81FShtaY73M+TZ17j3oO/5VzPJcBK8LQciiBB6XNWldJZYc6UfZVMmZFCYiJIDQhFW7CDBxpe4sFT+2gdmO7lvOO6O40EIwM83LCLlmCbM/hnoCaj7SW76yrqLt97wwHeaz7Kxb7WrH6PrikpGaFtQWE4rymR/r3JnxvtPRAXRIYGUyXZ+KaBYDTE46df4UcHnuRioBWtomhtjfysdeqpQ6NHVMrm5BRgiPFt0iuh6FVBftLwHD8++DvaA13jOs9Y0VrTEwnwzPk3bSHa04TQOqM+YeOaTyFH+CnJmYecRVPv7GlpEuk9apRjKojS1t/CA0df4JGT++gcnFrNYyjTqylqrXm3+QgvnnvL/oOIIhl9mZzJBvV4Sd7EtjePnRcd86H9d3s1carnPO82HSGaiQkyCxhq+F5MtuZyDU5MBpiWnNQ9n9EIhAf4TcNe7t3/GJ0DHRg6amvH7gHDf58Aly+uZl5u4ajvE9rek4qjkFphaIVlhfnlsWf45aFnaeprn3QFMBAd4MXzb/Ljg7/lbOclUM4qW6dfbWvcvi0RSiK1RGqTIrOQuoWrJi0GajKYtUJiZFxBoWjrb+Onh57i18d3E4ikXwZ/lOkZ7OexU/voHOwf+kKaQe9O3PbkNbyLZDKpJW56j1kYDfM0go5QD+80HZoye7QWQ9s1GQJzMoXwaGit6R0M8Pjxffzv/U/SFGi1BUSy8pAFwZBIVfFyrq3cjJTElZWEVa3dXxL73ND+576/J9LHr0+9xP3HXuDiJHo9Rawou869zQ/2P8rZrkaE1rHVgxLD1T97k1+hpL3Zr9xVhDLJ07nsWLiBjQtXY0xyRoVsMntaGtvMlM7Gpk2yNup6EyQKio6BTn6w/1EeOrab7lDfjLABj47KdC07IlFl8dzZN3mt6RDRhFkplbdYKuKDdrjnUbrDUDJmTnHt/LHJYESNNMHN2XmPOxCjGva3neRo+5lJ32PSAgYNiMj4M7Lk5Ezqlpx6a5MdBNbPoyf28R+HfkdjkmuvSnA5j5nQkvYfhuPuEY48pRT48/jr6pvZsHAFpoxiEMbQ0ZigsDVu+3zamUiVkLG/JwqwllAHD5zazX0NL3Ex0JH1cT0QGWTP+ff5n2/fx9meSwgnpiPZXTqOcjwxk7f8JT7hY+3c5Xxu1Y0sKiyZNTESMKuERGa4picl3M5uT1LBaJB/3f8Ivzz8PE397dO+mT0a9sQxsU6vteZE1wV+e+Y1Wgd6GDrRD8cVFPEVgMTExC/8+KQfwz0MP6Zh4pMmPul3DjN2GEb8cP/mF/aRi334SGdmSY6JUbHncXagjVcaP8j6pmVy5LsS9uRtJTymTL6JIWI0g/0L91pTqbJorekY6OH+47v54aEnOdffjMqCMpIpQgjWzl/G32/6c7aUrCfHSAxOlM64je9LjSSYlYCmUCf3NbzIfx55lgt92VlRuIFyT534Pf/05s9oHRi69+EKgmSFx3XjTnTnllpiCMm64pXcU3872xfXzCpTE8zgBH9jNVEk/i41Q1YbLl3hXh5s2AVac+ea66gsKpn0RHrjZ+Kby4HwAHvPvc+R9nO29idU/Gca4vOFZK6/gHXzljE/dy5KioRBqzG1QioQCVOcFnro3gK2/7ibn8r1PkNLWoJdHO48S0CHUFI5y/I4UruapXMmYS/l97Yf5LO91zJvgkkQp1+PS2z71EzSbhzEYw37uO/I8zQHWxFOnINIatOw1U0Wm+gzTK6sqCWi7uLnh5/h3bbjWBEFQmIJW1DYUd2Jpq+hfVa4KwugN9jLkyf2UYiPL639GIsmMK6VVrQGO9l17o/86shzXBxoArRjOgISVwlDBITzD206qVjszXmBpqZ4OV/bcAvXLdk86/I2wQwWEpniep6M9jeXi8EOHjv5MgLFHWtuYFFR6axa+mWK0oqTnY3sO7efvsGkCOBRBAWAKQy2V9TyF+s+QUXBQtvZWGPPrglmpGT0sH+JhP/HXz3R3ciP9v+Gt7uOOaIkg3sScGagiVdbPqRq/hKK/PkZfCo9TpaXaWZqVrRaa9oGenjy9Gvcd+xFGgMt2C6ctvCf6qQg+b5cdlTWE9WS6NHn2d/UQEhFUUJiCYUhRhfkCcZTuoPdPHbiZaQQfKHqxnEJCq01F/vbeOLUXp449Qqn+hqHrLLcwMFUSNck564ltZ3uZv2CpXyz+jauX7xpVgoImAVCQgn7sQ9fEdsdwBUGw4VCkuYR+5dFY6CFh0++RFRq/s91n6Q0b342m5wC2yofI437IGRlGwKwEyTuPv02RzttG/6wAZeuDc5qo7ygmE+v3M7W8nWT0rkX5s/jw9ZTHO27QJcKJLzitmvo9+c+loFomN9f+oCbF29jzfwl4xbwidl3M3r/uK4yEpmKxomjtaYj1Mtvz7zO/Ud3cbavxdkfSvQLTHOHaftq6u8p0yclhKDIn881izdiSB8/ijzFB60n4+0REUhlOtKu11vS1YSiKdTGA6dfwhIWf7nuU5QXLMyoLS5toR4ePbGXx07s4VKgBUvrUW8nebxqZT9TiZ8NC5fz1Q03c+3ievJ9uWNqy0xi+hWpKUZqiKI4H2zjVw3P8/Cpl+kbDIz+wexcnUweudTx6OPx8mHTCfac/4AeJ/XEiCuHJPuqQFBfuoadlbWTpv0U+PO5cdnlLC8sG/baSJO3VBanuy7yYVvDBN1hE90YP9r0hYM8dfoNfn7oWc50N4K2n9t0ut6CIyh8+Vy3qI5/qP8clxWUxzybFOPr/03BNu478QL3H3uerjGk5ukdDPLwyVf41fFdXOhvxRrns1HCWUHMXcLXqj/Nx5duoWAWCwiY4UJiMoxAMU8oLWgPBLj3/ae578guOqc94M4m9oUIOxX6eAiEQ/z21OscDFwgOspM4LrsuX7oACvmLeJLVR+jOG/uuK6fCYaUrFqwmJtWbCfP8MV8ykcUENqOhO4MtLPr3Fu0DYw/n9Nk56SaKfQPBvnNsVf493d+Q2NXM1JbMXv/dLrgugghyPPlcNXiGv7l6rtZU7QIgUHi1JTp9yQ1+JSke6CHHx14nB/sf5T2gZFdprXWdAZ7uP/I89y7/1Hag524+R60q0SkUCRi80hCDitLKrQJ60qW8d3Nd/CJlVcwJ2dmZaQeDzNYSEx20+zz9w2G+MnBZ3no+G7aBrpnhKCYCFFl8ealw7zaephBrJiHVyKJnVolFtoRijwzhx0VNWwuXTPpbS3053Hjki0snVM+5O/pTG5uqgOAI51nONB+clzeLFroSYmBGOKTNQPmhWAkxBNHf88P33mc7kAnplZ21b8sXsN1eTYtiT8q8VnjO7shJZsXVfH97V+mbv4yzHFGZdu5niQRFeWnDc/wb4d+Q0uwK2U/sZM99vBQw25+cvhJ+sJ9jGePyHUTNpHUzFvOtzbczg3LNpPnm3l1QsbDDBYSCWg5rE6B1K7mm+4Y6tefLjpbyzBt4U5+ceQ5Hmt4mdZJSQqYtCdh30GKv8Wx9NjXEW71u+fPv8P5vmb7CkIM0XZc18KI4fr+u+58UZCaFfMWc8vKq8mbgk02IQRLi8q4rrI+ZXBRqqhsN16hMdDCG00f0jMOU2E6U15yAGDyMTn7EtlHa01PqJ8nG17nX959lO5wH1raNTrcrMpCON4dUmDXbyCWXDG1Bp0cK2PHUPgU5EYlhWHJnJBJ/qBEjNNOakqDKyvX89833cXmBavw4RsSo6MczyeXka8isaKKh47t4pfHnuNif9uQDL5urMhTp17lF0efoW2wZ+h4SzTBJnkxJTrGuJH5poCqwkV8t/pOPrH8CnJnYCGp8TKzhUTawJ1sYptbLg108MvDz/P40Zdpn6YskxNlIBrirebDvHnpEJZWI26Cx7VdexBoAYW+PG5ctIX185dOmWvwnJwCrqvcxPLCcnCKz4wUuOZO8FEUrza+x8meC2MW6tOcKimJ7CoktptrH789/QY/OPAk7dFeLKnsuA8RF0vpA8Iyx42lcVcSOVETn2VMSJj6TR9XLarhOxtu44qSanKNXOLxE/H3ZXINgV0C+ZHju3mw4SV7r8ERFH2RIM+dfYNfHHuOS8GOMX0LsYSQ2vWQ01w2dzH31N7Jx1Z8tAQEzHQhMcVcGmjnZ8ee45Fje6Y8y+QwhBpTkJPWmqZgB/sa36M50IqBtiv5OedKRAnQcmjkqBKwft4qblqyjTk5BVm5hUyQQlK7cBU7yjaQY/iIyKGRzsNIUBzO9l7ireaDDFrhKWvvTMb1Ynri1Ov84vAuzve3owxN1NQoQ6OdVYNdNi0zJ4rpIN+Xy9WL6/i7urvYUVaHIf1YCQF2bvxE4pGuqJUAWoOdPH5iL4+eeJnG/jYCkRDPnHmDew8+wZneS2NqW6KAkBoMNFXzlnJP7V18YsWOj5yAgBnuAptJ5CoZvicTtIDmwW5+fOwZlCn4/OrrKc2bn72Np9EC2Rj/vQQjId649CFvNx9i0BqMTwQprpcqe+VC/0I+vWwn6xYum/IAw/k5RXxiyRW813qMQ32NGX/O0oqnz/ye21Zcy6I5w72kRmIKg4xTXFw57p3Ze85aa9pDPTx6fB8PHNvDhUAHCLvq3pRFDmYpCSDYguLKivUUmLlED8DrzQcJKTtVvELiWssyQaO5GGjjoYaXGLTCLMidw/1HX+BCf+sEWmhHUlcvWMHX6+7g+qWXz2o315GY0UIiExJrAeQYPhYXltLY30poWO7/zAak0IrOgW5+eeRZBqwQX1hzI0sKSic+ccZsHKOcR0uEU+4l03lMacWZnou8dPotLgXa7RWI8DHU5j00iVpO1E5maWtmfi4v2cBnVuzMek3tTDClQV3Jaq6qrKXrZB+ByABKalSaR+Xm5BIaLva38/7Fo2MSEoaQ5Bp+8mUelvO1GCkEZyJCM+7N1PRkZ0J1VxC/bniFB448z6X+1rhgkGLIdeyA+cTI6uFt8EuTOf4CgtEQwWgkK20cDz7DpK70Mv627g58ho9Xm/bTH+2326zA9sgbGi/lkirdSUuwk4eOv4QGesJJyS6TcZ9RKqGnJeBjQ3EVX6/5DDcs3TxiXe/ZzqwXEonM9Rfy52tv4tXG93mt6VBmle0SSAywag108eipvWgDvnhZlgRFxozNFBCMhHi1cT/vtjZgoZ0AxERNdXhHF4BUEmVIinPmc9tl11JcMC8bjR8XC3KLuGXlNcz3FdEXDmLJ9OVp7GhvOxunEAJDZj55SyFYOaeSz668mq7B/tiTSR2wmXBNDWsXLJ9x2Tu11nQN9vHIidf41ZFdXOprxnDnNyHGXOTHZ/rYXLKWFUUVvHrxA4LRjklodeaY0mBj8UruWXczpoa9Te8TsIKO195wAeGWNE5H92jCIQMEgssrq/nq2k9zzaJaco3ZGUmdKTNWSAgtHImdWUU3ja151JdUsWHhSgaVxdstR0cQFOmqsRHLY9/S08FjDXswteTPVv8fVIwxgnMIsRko0fsqxdtG+C0dZ/qaeeLsG3RaIYgJiMTPpnD/czxUpJZcW7GJaxdtmtY8Vj7DR13xKtbMW5J5CVAnTYhfZN6NpZCsn7+CFUWVqHQRtWkun2fmzDgh0TsY4IkTr3HfkWdp6mvCkPb3r8CubDiKqTSxxrkUPmrLVvNX6z5NIDzAH5sPpfjE1CfGzDF8bC5dzT3iM1hWhH1N7xHCHteW43xhm1CT2iYYt+NLLF1+0t8FgnULlvPXVTdx7aI6Cnw5sz4OYjRmrJCA8dnn/YaP2uJVfKv2Dn6w/zHeaTlGVFsJ2kV67dpNSeGWqwRNS28HDxx5AVObfKX60xT688Z1L7HzZ0jUcV3NhIdO7OFg9zksEa+mZpP+em7wWmXuPL685hPMmWAepGzgN3z4h2QFnd3XmWyCkRBPnniNXxx6lgt9FxFYjHsDQkuqF67gm9W3s7O8jlcvvj/65CcS12GTi9/0sbF0Ff9Q/wWCbwV5re0wytnAdhWebOOmLBfuuYWgat5SvllzOzcsqZ/1kdSZMrPUogSSu2e6hHKp0gnnGD62VWzgG7V3sKV0HTnCD8opFqLNeCKuJD9oDXZGUhH3/BFa0zbQxb0Hn+Sxhr0jFnlPj2Z4J06f5VUDUQOsDDSU830t/LrhRSwdid2H6wGS7lDC9iDShuRTy65i/YIVMzgbrkcqgpFBnjj1OvceeJpzfS0gFEK6kdQKEfNishGo+GSHbWpMVMKWF5Xz3+r/nOsr7clPxEbb8LTt9gmnfkXhM0zWFy/nX6/+JtVzlmNow6mJ7rpGu5YAGG/KlWFxEI6br4nJ6jlL+HrN7Xxs6VYKfBNQFmcZM3gloSfklJFj+Lhm8SZyhMm9h5/gjeZDDCgrVhYz/VWxB1pSioj+SIDvv/cAgUiIL1TdyIK88aSqHkP6byeAcCR6wwH+77d/SjBqCy6pbdfWUT13HHtu3cJVfGbl1RSOYxWhtV3LWGk9gt1bpPgXY7aTjxefNFNqw9pp81jjK6SQI2rXiTtJk5nyoyvUxyMnX+X/++Bx+kP9SDHUJOsmxYwhlNOxnb9qGVtJSiFZO38Z/2PrX3LtovrYR6SzjBVk4kChIIWyNhlIIVk2t5yf3fA9/umtn/OHloMMWGHbRRYw9QiWgkyvkeAMI7TEL01qSlbz1Q2f4call0+Lc8d0MoOFxNhQYni3MKRk26INWFIRQvN60zGiIha/yZC9gUTNSEu7BGFCpC9AfzTIT448jVYWd6y5jvLChRkKiqSVhFvXYQTcym7piCqLPY3v8m7rMcDp2O6KKMWAlUPstZLinEI+seTyMWdS1VozEB2kPdRLa7CLnlAfSrkrsQQbf5KtzI1Y1kPa596gdqJ905O+hdp5feg7fIbJttJq8pPMg1prOgd7aQ50ELEisesOaU5CW7TTaAEsLiilOG/utK26YhXlGvbx7wefoifcixTK2YFI6sdpNH2NdG7WnvyqS1fyrZrb2FFRO+R9popnNUjsS6lMoG6Ao5rCfFDL5lbwvU2f48cHJHubD9CpBrG0iWE55iG3Vvf9g93vAAAgAElEQVQYSRQQUoMPybayDXxt0x1sr6gek5PER4WPjJBIhyENdlTU4pN+QuoRPmg5haVGCb5y9yZSvNQW6uKBhufRWNy+5noWFWa/HoUAfEql1Ua11pzpa+bpM6/TOdgXb3OGmEJQt3Al11TUUeQb2yriUm8rv286yBttRzjT20xoIACOu7FyGhyfYB1tVDvpC4inRYkaYMlUZrjUJD+L+BN3zYJDJ+6NpWuoW7BqmJBQWnGw8ySPH9tDa6DLLh+KqzW67bY3RF2B5t7DX639FDct24bfmHohkVgP4qdHnqZrsMsW/ClKZQ7tC6mdJPzSpL5srZ3KunITPjl0KpCO9EysuZGq0FdMQOCmfZmadaIpDaqLL+P/2nALyjDZ3byfvvCgXRsjS1UnfcLP5pK1fLv+c2wpX4ch/zRNsjNaSIw1VD7dV2hIgyvK1/G9utv40cFneav5MFE11O1xmIbkDrSk5asALgbb+PXJXYRFlC9V3URlQfEYWpp4zjTtVeBX9s9U9EdDvHJxP++3nxiDm2/8miV587l20UZWz1mEOQbNqLm/g/848CS7G9+lebCLARUZEpg33Oc+fs1hefcdzTP2zqRnkpyYML2QGP56oS+PO+ZeT0EKJwMNtA5080HrcRp7W4kYcSGReI5Uhas+ueSKrE2A2tHmM3qv1rQEu3jy7Bv86vBzNPbbFeWGOrgOXQm7Ajv5uYIdJ7KldC1fWX8zOyvq0vr4m86YUqO4lbr3o7TTiimKVPSbPupK1/CX4mbCQrGv8R0iKug8k3FGlDv9zif8XF5ezT01t3N5xbo/6T27GSwksqudSyHZUVaNUAKpLf7YvJ9IgsaR2K9HHhC25nY+2Mb9p3ahDclfr/k0C/LmZLW9Iw20i/1t/P7S+7SHxp5jyhQGVfOWcmVZ9ZjSb3SFevnR4Sd48NRuBiIhhDCQsTQJkHpFkGhiG3NTx8BQU1rV/GVsLV9PzgT81xPTL4DdJ0a9BR1PETHy+2TGz8MNlPvduTe5/+iLnOu7BCoKQrhOzKNO4PGuZJuD6ouruHvDZ9hRWZN2A9ZdWUlHgipXYDB8fLhmJi0VWk7thnaumcPm0rX8WXSA0z3nOdF9CiuWoHD8512QO5dbL7uGreV/2gICZrSQyD45pp/tFevJMSQ/kpo3mg4QtiK4k4x0ftqaU+qO4Q4Qjaalr5tfHtmF3zL54pqPUVKQLoXH2GZILSAi7ER3KV9HEVERlNbxNjuvxTTHEbU5jXD+ywRLWTx5ch+Pn3yJgBUEIRMdZ6YVLZTtH++4LRf5C9hRWctlcxenNQNm0nQ3Ytf1c7BdLaeersE+Hm3Yy88PPUvzQDtSOyVHM/is1CpWCxoAQ1Jbuorv1X2e7eU1IxeU0iK2SpQoVJrx4JY+VY4gmepnpLWmK9TLh20naRnoIYp9T9L5b8wb2M746Y30svfiu2wtW8+quZVZbvXsYtaLSEODz5KYys5lP5pXSY7pZ0vZOr5dcydXl2/E79hiZUJnGi36FgAtkVrSFejnV8de5MHjL9IUaB+hvkHmj9q286afypYVlnNDxRaK/UXDrmEP5vTuf1FtcazzHK9dep/uwcySGJ7vb2Vf0wf0DtrRqtnKopqYoG2s2PsFjvOB81OgqZq3jJ0VG5nrLxz1HKlSN7h/z+Rvk01/OMhjDfv4VcOLtIQ6cCvKja1NjvlEmmwtXc/f1X6BHRWZVRyUjoARWo44JrSTfG+qs+sqrWjub+fhYy/xwPEX6Rzsd9oy8eSFA5FBXjr7Fv/0zi+52NeWnQbPUmaNkHA3PBMR2AIiNyopHDQpDPkwRnFxBTuYqr5sLd+qvZOtJesxhZFS3xBuQr7EbKnIIe6xAkXzQAe/OvkCj5zck7IexUjOvG5luMTDvU46nTffl8sNizdTv7CKHG0gtIoLOS2dz9qCQio5zO23I9TLqxcOcqzrHFE1ekR7Y6CNlkAXQpsgBVqKFPEpyfUGhjK8PoNEOEcm70/O8hmVEHX2NbRTD2NuTj7bKqpZM3/pqHstiROaex+pMoi6XmYjeZqlIrm96bKUxs11QwlGQvzmxCv86MATXOhtwnJ8mGJO1NJACgMpBAb2IYR9aCmGFD6SUrCxZA13V9/GzvKN5GQYSCiVnQY8UZAnCnR3TNptMkGbSGWMu57EWNBa0x7o5onje3n06Iu0BjsBEvrUGNzNU2IXLnrl/Dt8/+37Od2ZeeLJjxqzRkikwg4ISqiMZcmM98x8hkl9+Vq+vfEuNpWtwTRMO8TfSUWdasNvOPFh2zjQwS9OPMvDp/bQFUpRWzdhQkwVADjkrbF/jbCamFvBJ5dvZ35u4l6IcjS6kdtuKTjceZ5XGvfTPTh6HeD+SJCB6CBC66yV/Uz8nsa6z+l61GhBbBUhhWTF3EVsr6hjXm7yCmt00jVhOsqc9kcGePTEXn5w4HHaB7ucv6qUQiYRN0J4yGFATcllfLXmVq5etGlM1dIMZSC1aSsHCeNhyHcHzhi0K8JloqRlg+5QH789vpcHjr7ApaCdX8r+rpRzTPwaUoNWihfOv8m/HXyMo51nhxQu+lNhVguJiWJIydaKar5V93lqS1cjTBNLyHhUdqqiR0nRy67mb2ho7e/ip4ee5sHjuwhEBmIf0SI+2Vgy/V7DUOSI63dDSm5avo2tZRvsZul4tLXrGTTSQOmK9PHyxXc41HFq1I5vYmBqbR+WXY1suutDK+f5u/EXub5cLi+vZd2CFWPy2JpJaK3pGezn4Ybd/O+DT9AUTEyuJ52Vg30MxxYKUruHiUKyZsEKvln3ea5bvGWM5TQFUpsYlolU0tnbkEnvsOMp/BbkWJBrqTGvuMZDIDLAg8d28eMjv6Mx1G67MQt3jR/vExNdz7iZCwZUiF3n/8hPD/+Okz0Xx1UydzbzJy0kwDY9XV2xke/VfonNxWvxCz/xAecGWcUf0zDN0p2QHbNO50AP/+vDR7n/+C46Q73DTE8ii5rp3JwCvrvx88z1F9qCCIUkmlDWdSQURzvP8tTp1+gNj1wCtLxgIQsK5qOmYgbIAOnEXSRqtCuKlnJd5RYW5s0d9fOJHkszoRY1kJDNdQ8/PvwUjf3js4O792NoQXXBEv6f+r/hxkVbx57K2gkSEToueFKZEt3+bKp4Kc/Jwq6618sDx17kXw88Qmu4K1aCN1ZfS0Nm2/pjozcc4KXzf+SRht1c6Gv9kxIUHzkhMZ4x7zd8XF25iX/c9BfsrKghX/jiHS15JZFgSxdDVhrxQTQQiXDv+4/xy8PP0Rhos1NYOA3zWWS0wW5vyI4+4jYUr+Qv1t5sB0OJKKaK4lfR4edPWhkZGlCKPefe5q1Lh0bcm1g1dxH1Feswck0np5TMYHJN3qMYec/CLQXpHiOeWdurGZ/T5Bwjn2srL6e+NFN3RTGkDYmR9an2viYDV+8FYgWDHjj+Iv956Cku9rWOmrok1XOya5dHkaZia+kqvn/FV9i+eCM+Y+xOjO4qITEOZkifShoXtsCdvOlEacWFQCs/O/Y0//bhwwxEB4aZliY7PKMj1MtjJ17mF0ee5UJf25+MoPjICYnxYkiDrWXr+HbdXeyoqMEnzZjtO5FMhVD3YD+PHN/NIw17aOxvdbYd7cnZVNkNG7hj1Q3UFa8iNvVoNaI2lRg41hUK8OuGPVzqb0/7/jwzh5uXbmdjyRpnsziLjR8n7uY3SBbll/OJZdtTBs9lynTdk8YWEI+d2Muvj71IU2D89RuUUJimwdayau6pvZ0tizaM+1yug7RIcDIY3viJexFlgqUszvW38MCpl3iwYTc9g/1xgZXFaniZ0DnYy29OvcJ9Dbu40P+nISg+ckJiIsqEIQ3qy6r4+sbbuKJiPYYZ97Mei41TCwgbcD7UwaMn9/G7M6/TFwkAbm3eTDtWZnezuLCUW1ZcS3HOXCCKkmpEd0RNPADKkpJ3247zwvk/ErbSR2+vm7ecu9fdRn1JFYaceIIzd+M53TE6dtf1aR/XLdrC+gUrJtym6aA3HOC5c3/g18dfpLG/bULJD/3SzxWlG/jqus9yZUXthBLRCUAmZCWQaVZ5rslO4farcV8yJVprLgbaeezkPn5z4ve09vUild/eN4zvQmR8vmHxQeMQMm2D3Tx05iXuO/mnISg+ckJiopiGycayKr5Wcxs7yqvtPD1j7ESuB4olNI2BNv7YcoS+cDC2qTzqQBKZ7CnEyTP9XFuxmW2ldRhCDktpkQ53UHdHgjxz9g2Od5xN+16/4eO68i38j01f5otrrmNZURk+4u6RmcQ8uBNMNiYS5Zg3FheWcOuKazLy+5+JNAc72Nv4Phf6RzcxucTMPygMbZsYcyzN9gVVfGPNZ7imvJbCLKWyTuX6OhLZtvi0D/TwyIm9PHbiFVp6O5DKNRXKEVYyKcyZQI40uaJsPfWlVUhpoKSb92vs7WoZaOeRk7t54PgeWgJdo39gFjNrIq7deSXT4KeJ4Dd9bC2vttMRWBZvtRwmioW7mR1PtZzQsKQa0jG0iudXEsRqKqeqLTyczHqvFJIlReXctPQqDnae5Hx/8+hnFu7p7TQjBztO8cTpV1k2tyJtuo4c08+28g2smr+EO1dew7m+ZjoGeodpUskapRtvAPHEea4po2Wgi6dO/Z72UM+Qc4z0ncbSXGvFTcuuomrBslHvdyhTb1tKN8lGohEiY6gjnSgghFbk6BCGgs1lG/nq+lu5oqKWvGxUS9MjaZBTo1v2DQZ4rOFl7jv2Ap0DPaATC3HF+9yQlWeS4HDNripksW3lJu6u/ixzcgv47+/8lPfajmMo7cThKCdRYZr9wgRzm6HBiJh0hXt4+NhufFrwlQ03Zz81zwxhBguJ0SfIeHrwLBv5gTxfDjsq68gz/PzLhw/zVsshBq0ISpsQ26BLP9GnzeCa3WbGyPflsqNyI9e0buXxU7sJW5muROwsoYPREC+cf4srK2u4ccmWtBvAPsOkIn8hFfkL2Vq23i4BOk5C0UF+c+qVWD2MsaFYO3/ZuOthwMgxB7MCoQCT9cUr+c7WL3N5Zc0k5xkaud9n61na+ap6eOjoS/zo4BN0W0EntDSpryW4oKdqq9uePGlw1WX1fHfjF9hYugZDSO7d8bd8980fsr/pOEpbKcuCpcONQgfoDHXz7weepCcS4rsbb6Mkf/rqxE8WHxlzk23Lzq5t0JQGm8vW8c26u9hcsR5hmE79AWkfKQZk2r2L5ApxozGONXBp/nw+uWwHK4uWpfS6GvJ1O68n7pFcDLTx7Jk3aAp0ZnQ9KSSmNMZ1GELSPNDJ8+feIqjCKSKS00diGxoKZQ43L9/BqrlLxvycZiNuZbnEAEIhfVSVbeDrW/+SzRUbpiURnRvZna16EtqpBPnw8Zf4ydGn6I32YwcSJmUlSDDJDuk70gk6dPcqTD+bKzbwtdrb2FS6BlMaCCG4bO4ivr/1bnZWbiLHyB3qmTXK+FSORcC1CkS1xX1Hd/GjD39Ha7D7I7dHMbuFRCygbfIuYUiDK8s28HcbPk99yTqMYZlFZdLPiROPpRiboPBJk7qFq/n4km3km2PXriMqyutNH/J608ERN7GzwaAV5rVLBzjceTbjQRWLW0FRNX8R11ZuHF+dYT27VxAakNKgrmQ199Texc7KjdMaQOhuXruK2njXlnZK9E4ebtjFz489Q2u4O8Gsq2wBIONBrOnjXGxBYRomW4rX8Lc1d3Jlee2QgkFCCKoXLOd7m77IzkWbKfAVEFUgDHsFYo2yQh7iZCEUERXm/obd/OTI81zob8NSHx1BMaOFhGAEzdxhKga7IQ22lW/g72o/x5biNfhl8mZ2gqBIFaU9hSzMm8PHl2ylal46O/3IbottA908c+Y1LgbSu8Rmg4v97bzc+B6dGaQFAWIKgdQwx8xj5+I61sxfOiHb+8wIDbRJ1dftvj3cicEQJhuL13FPzV1ct3jT2APlskKqOImJjceWgU4eaHiBnx19luZgR7zaolCjOkYkv+aTJptLVvO9utu5srw6ZcEgKSQ1xSv5Wu2tXLOoHp/0o02DKHq480haC4CTFkZqAlY/D5/czQMn9nCuv+Ujk8JjBguJzHubcoq/T2YolCENrqqo4W/r7uTykqpYHAUMDQJzO+t0KapCCGqKV3DTkiuYk5QlNhMLVkRF+aCtgV3n33bSqGefQSvCW81H+KDtBNZYVhHOsaKokhsWTaQYfcZ+ttNCcsuSf68rXs23N97FdYvryZ8WAWGjhZ11ONHkNN7H2hXq5b6GF/n50RdoDmZeJ8UNqIP4HqVhmGwtXc1/qbmDHUkriGR8hkl9ySruWf8Zrq/chMROkJhpjQ5XMAqtMJSidaCTx069zCMnX+ZC4KPhHjuDhURmTKU26Dd8bK+s4b9s/gLbK6vxmUZcMOBmYh2aqtu1JY+VTCKP05Fj+rl5xXbqStYgpQ8l4rl34p1bki5Ctm2wmyfPvc7RrvPD0opkg8a+Vp498wfaRiiaNCxPkPOc86Sf6xdtZu385ROuNzzTTU6ushFLXCckdSWr+a+bv8TVi+pmlNtvXFCMTUPSWtPa38EDh1/kFwd30RHsj2cySBfA5/Rj4QaNJmRONnw5bK+s5R82fZ4dlTUZZbz1GyabSlfx9/Wf57riGgoMH1K6OdfiUd3Jh0gwW7p7ZaayaO1t5aHju7j/2Iuc72udlDE0lcxg76bMsAeRm1tmLCFv48NnmGwuW8vfirvIOejnjcaDDEZDCZvmrqAYH0o4oUET7FdL5pRyy/KraOi6RNNAWzy9QkKnHmmSPNJ1jmfOv8lcfwFFjsYea5JgxPalOq379oiKsOf8H/lj66ERWp9mw1pJlswp47oll1M4xtrcye3TU1Ric6zYrZLDyqf6pcmWsmq+uuFWtpVX488w3fdUELPP4+RQyvDRWsriUn8bjx7fzYPH99EVCiCQbsI0hvkbDREa8XTgQtvvLhS5XFW2iW9uuIX60qoxpSMxpUFN8Uq+W3snuUdNXr30AcFwELAF0kiZFxIFhXbGVUewg0eOv0TEinL3hluoLFg4cbfkaWJWCwnpFBoylKt5TM3t+AyTTSVr+MaGW5ERxWtNHxAicdK1tRt7Msr8vEooLKnsCl8TXKaa0mBnRS1vNR3l6bNvYOkIUiu7E+NkzUw1mIVCaslgOMDvTr1KU28r83PiBXyUM4DHm8gtbEV4s/kQwehAKlGAKyASBZh0JgIfkmsWb2HV/CUTXkXY11BokTq9vFb2H92X9KiTnz1DKK3ROsFLegzY8SVOOnkAYWdV9ZkGl5es56+qP8v2ypqpERAivjqA9AqFuxchHMXByHAhobTiYn8bj5zczSNn9tAy0I+BsIttCYFyvpTkWiix9CDCVsbc8eUTJjvLavnm+lvZWLJ6XPmqTGlQV1LF33ALQsMrF98jPBge2m7pjBsnjsQdB+6qPJYHTGvaB7t4pGE3hjT54pobWTNv8ZjbNBOY1UIC4jl8UuaWmUT8po+Npav52sbbCDLIm61HiOhoUgWvsU/0SmTHBiiEoKJwIZ9cdgXvt53gQleTvXpwTGOJSe2Gf9gWFI29zbQFOrLsWqkJjWGvI2ZyAZYWVXDt0nrm5o5edW7UVsxIpS7ZqUAipGBTaRV/uf7TbK+sJd8chzfXBBnpWblmQEPFj0xoDXTxyKk9/PrUS1zq78CUfoRyHUJGyDiQsHlsB7+Z+KTJ5WXV3FN7GxtLV+M3xy9Ec0wfm0rX8jVxG5FolDcaPyTsBMMmCsyYq8oIioPU0BPu54GGXVwKdfN3G26nasHsc9me9XsS02lX9ps+NpWv4Rsb72BzeQ1S5KGEjJfVnCAT/XJ8hsm2inVcXbkR09loNx1tz03rPOzxJdiCNZqQFSYYDWXxGBxhM08lOCG4dQEUhgKf8HNFRS21pauyJrRmmqCI7W85xbQUsK54OXfX3M7Vi+op9OXNKJOF0An1JJQiN+pG1o+8zOwPD/BQw25+dfxFLvV34dai1jI+bpK9lZIz9SIFChMhCthStpFv136O+rKqCQkIlxzDx8aSKv7r5i+zqXQdlpBYQibcVbz/ugbuxPQlseSTTvnX3sF+njv3Jj/88EnOdTdNuH1TzawXEuCaDabHi8Bv+NhWvoHv1NzO5uK15Jt5aUtyjk6yzXXiE8K83CLuXHkVVXOX2Ln3yTwPz3QQH2T2pqRblnXZnEquW7qFOf7UKUOycd1pJ6Fmt6EV6/Ir+OeNf8F1lfUU+HKnT0CkVXpcoe78JhTWKOMwqixePv8uPzz8JE2D3Qn7iaS5RsLVkm4/15fH5uJ1fHfDnVxZlt19Gp9hsn7hCv7XNd9h7cJVKGkSldJJKxOvLpkozIYE9SW1ORQO8cL5P/K703+gfzCYtXZOBbNeSMwEbdBvmOys3MA/brmLHaXVFMh8TG3EzWBJpR+H1E0Y5slhCxiRpcryQgjqK6u4q+pa8nLzsaRdH3omIgBD2xOkqewCSkoocnNyuKKyli3la1P6u0/omgmDPJtdKdOkh4looYiYYbQZpnbBYv7fK7/KziWbpnWTWmo1fM/GXWkKu8pi2FAETQj4IWyOvI7oCHRz74Gn6VYDWCPEVYgkE3Jy4aMcmcP20vX84+bPs3OS9mmEECydU8ZPrv8eVy/ejN9XQNiQDJoQkfb3lRjprYWKRWK7FSjtKpR2n+6P9PPgmZc50j05XoOTxQydLsbJNK0mwC4nekXZOu6p/gxXlVeTY+SgkON3UtLZWUm4fHzFVjaWrbZXXcwM4ZoOoZ2Nf60QaJYWlnPt4vq0iQfHfv64ppcc1zIR/zglJuaUpgQYpkF9SRXf2/wlti6umcDZJobbR+IpN1wPpqGBc5ZURAwIm4qwAdFRXGD3X2rgfF/rmNuTGJeQ4/OzvbSGb1Tfwray9VlXHJJZUVTGf6u9i49V1DPHV+ik5IGoiJu/3O890T0W4s/KVhQUzZFu9neeiif9nAXM+o1rwKl3DNnYB5gIhpRcsWgDfsNHz7sDvN15DMuyvSOm2+OyrHABX1x9HR+2HiM4EIivXKZRsA67vjuwZPxvhWYuW0vXUbNw5bg8VlJfE9zUDQbxOS1xcMfNBWkqFKYhFmApxm7C8kuTupK1fH3tLVxVWY+ZrfsdJ3alO0VEKmcFmi43k6NRy+ioHf1023mi0UEMY6gtPx2J340CDFNSt3AV39l4J5vLsr+yTIXtHrucu9d9Cilgb9N79Eb7kdircjdGwu0/0vHejRpx4er2qIAV4kjveSLKmlFuzCMx41cSrpR2JbTrYqecJZ3tzmkv/5QhHV+86cOQkvqKKv62/nPsKKvBP4YCPbGVxyR4apnSYHtZNdcu2ghTMLDGQ7yAjb0TITCoyC/hmsr6rGbXlCLunpI8Sbn1mhM91KRWCa6dqWc1gUAaxphWaO6qxdCQq0x2LKzhm1W3cW3FdKXaiOM3/Uif4ZhObNfs1HceT7gnhMZnmiMWOxqMhJFWChMWSWbY5NeAXGGys7SW79V9flJMjyPhN3zUl67ib9Z+khvLN1EgcnFdcN0VpLuRb2jHQSSF/qV0lEAkOGEX96lkZq4khHASlomYpDZVvOynJSDis78cU9g1l6OmQU7hHHzm9N+SFJKt5ev4pr4VqTV/aDlARIWxJxzXnzq5g9seHrbHBkhpUpQl84pLce48PrN8B4faz3K25yIwA/IXJQlEN7OmBAxhsKlkHZeXV2dtFSGFYH5u0ZCUHomBhTGhoePFmwR2Pe15voK0nlWGNFiQX+QEQ6bODjysLdreg/FZkq3FVdy9/lYur6gmP0sFgyZCYU4euTm5MQERz8yb+FM57qDKiRswmZtTSGFO+kBHu9aFuw9n/80WCkPrOLjPXuM8f2myo6yGuzfcyuXl66cl422O6ae+dA33yFsIhkPsbTlAmAg4sRNaDA+kdVdAbuifT0rm+PLtZzBLmJEt9UmTtfOXk2fmYSo7WG7oJrDEVBKfBT5HePjxsXbh0qz40GeDHNPP1or1fGfjXVy9qI4c04wVi1exQWLfm30Q25jTSPJ8eawrX5nVNpnSYFtZNTct3UquPw9L2gF/8TbYh0jYIBRaDnt9tGO8n098r9CSsryFfHbldSzMy+YqQrJ8TiXLC8sxheEUP5J20JaWRKV9WDIe2AZQWjCPFXMqMEXqIL4c08fmhVXkm4kTfOr7T9zMFkKysXwt37jiC1y5tI78CdTpzialcxZSmj8/VuzTVdCGmuRkbOUHkjxfLsvmLRpxAl9fsYo8f76z4rLHtdv/h64i4lp6juFn56KNfHPTnVxesX5CZVknit/0UVe6mv+++c/4WPkmco1c3CJkSjh9R8ikWvBxd9h8mceGeSvwTWPW3rEyI4WEX5rsqKxjzbxl5Fsm+RG7I1lCEjLtn7lRSdGgfeRHJKVGPltL1zI3Z2YICbAFxaayKr5RewfbFtUiTR8aCcpP4gDxuYcV9+BYu2A5NRWrs96m+blzuGHJZtYXL0UbDL1+Qjtc75KUr492jPPzOZZ7QE5UsrN8E9sr67Lu+rkgdw7bymsozVuQ4FlmC++wIQkZkog07e9KSwwh2bl8IyvmVaZtixSSNXOWcEXx2piQFNp+Fn7L/pl4CA2GIamvXM/X6u9iS2V1Vnz8s0Vx4Tzqy6uYZ+STE7WVspyoHRPhmlFsBzz7uWkk5YWlXF5ZPeJ5ayvXUFO6OiaADRV/JqZyo81lbOI1TMm2xRv4+sbb2FReNa0CwsWQknXFy/neps/ziYrLKfIVoTGxhO0mG5H2PBWR9rORzn1pYbCyaBFbnAShswXjn//5n/95uhuRjBCCAjOHqFKcaD1LeCCEQKCFJuqkdsmLSHKjAkNJcqSfa1Zezu3V1zM/v2jU808lpjQoy1vI8sJyTve10NTfi0Y4G1wCv2XgczRMgIghKM9bwD9t/nOqFiy17edZRApJodIFbZIAAAXuSURBVC+P7kiAo11n0KEI/qiBoUTsEAgsaf/0WwJT2YeR4TH+z+vYcyk0c/j+1fdQUVic1fsHWwkpzplDU28753taiCqNod10EAIlbSOzQGAgWb9wGV+tuY21C1aMKLAKfHmgBB+0nyIYCeFTAr9z7z4Vfw4AhmnXUr+75jauqqyb9j2IZIQQVBaVcKztDKcDLbjGH4m9+rSkiJlMhRb4DR9fr76Vj6/YOuIz8hm2Seq15sMEw4PkRe1n5FMCsMe36/1tSIOt5ev4+9ovsrlk7Yza6JVCUpw/l/Xzl9EXDnGmp4VBHUVj9yHblCYQ2rDd2RFU5BXzV+s+ydVTlVolS8xIIQH2RtHiwhIMBBe7WomEIwil0EJgaIHfkpjKpDC3kKtXbeXP6j/FqoUzMzeKISUV+QtZWlBOVyhAW6CXsI4ilSAvKvFZziRp+Fkyv4KvrP8UN6/YRs4kaZY5ho8cw8+JnkY6uzrxReSwST4ihT34LUGOZT9zQ2c22Y/38xIQQmMguHnlDr5Y+8lJuX8hBEW+fCrzFtAR7KUl2IOKRO22a4HUGqEF+b5c6suq+HrNbexcVDfqwDalQUnuPPqtEOd7W7EiUXIjDLl/QwvyzBw2VqznK7WfZeeiumlJtZEJ+Tl5lBUWc7T/Ik2RHixtkaMsJIqoMLCEwBA+FuTO5YurP8bdNTeTO4qwk0JQVjCfPCOH5r4OrP4QZlTHhGfUsNASCv157FxUx7dq7+CKsnXT7umVCikkxXlzqZq3hEA0zOm+NgZU2DbRaTCUgakEfmFSWljMl9d+nM+tvpZ5uTNLkR0NoWd4VEdPqJ93LhziD6c/4Ej7OTp0P1GtyIsaVOYv4ONrd3DVik2UFy2cls2ssRBVFqe6LvHc6bfY1/g+XYFu8sMmhfjxGSarKpZz/ZqtbKlYy9wsb1onE4gM8NuGV3j6wF6sgfAQ7S8sYcBv6465EWKrnMSEZiMx1s9rrVFaESKCJRTF+XP4x2u+Sk3Fmgnd42hErSjne1p44cwf2XvqHToHehkUCm1oSgrmccPSzdywdAur5y/OKOU02InrmgKd7D3/Pi+dfJOO9jZ8yp5QosrClAZXrdrCJ9ZdxaoFi2eE+WQkosriQNspnjr1Gu9ePEA00IMpJIP+XKKGj2VzKvjU8m3csHQTxflzMz5v72CAty8dY0/Dm5xpPkfUihI2ovQagxQVFnH94i18asV2Lpu/eFqr7mVKU38nz597m4ca9tEf7rdNchYYCGpLV3HTZdu4atEG5s2QPdOxMOOFBNgddTASJqKiRFSU/vAAPmFQlJNPvj8ve/7zU4DWmkErQig6SFNfOyaS4oL5SCEwDdt9cKoGRSgapivQg9/wIZPcCWOunCPHRqVlrJ8PDAbpHuhDoSkpnEdJ4cIpeQ7u9xEYDNIW7CYQCZHny6G0YD6F/jxyDP+Y90S01kSURTASojPQjUSQ78+lZ6CfuXlFFOXmk2P6Z7xS46K0IhQNEwwP0BnoosCfT57fziNlSIM8M2dcYzCqLEKRQaJWFA1YWtEV6mVeXhFF/vxxPfvpJGxF6AsPEIyEkAgGooP4DR/zc4vI8+XMCmGXilkhJDw8PDw8pofZocp4eHh4eEwLnpDw8PDw8EiLJyQ8PDw8PNLiCQkPDw8Pj7R4QsLDw8PDIy2ekPDw8PDwSIsnJDw8PDw80uIJCQ8PDw+PtHhCwsPDw8MjLZ6Q8PDw8PBIiyckPDw8PDzS4gkJDw8PD4+0eELCw8PDwyMtnpDw8PDw8EiLJyQ8PDw8PNLiCQkPDw8Pj7R4QsLDw8PDIy2ekPDw8PDwSIsnJDw8PDw80uIJCQ8PDw+PtHhCwsPDw8MjLZ6Q8PDw8PBIiyckPDw8PDzS4gkJDw8PD4+0eELCw8PDwyMtnpDw8PDw8EiLJyQ8PDw8PNLiCQkPDw8Pj7R4QsLDw8PDIy2ekPDw8PDwSIsnJDw8PDw80uIJCQ8PDw+PtHhCwsPDw8MjLZ6Q8PDw8PBIiyckPDw8PDzS8v8DENfRh97+mjAAAAAASUVORK5CYII=;" vertex="1" parent="1">
          <mxGeometry x="194.56" y="390" width="60.89" height="55" as="geometry" />
        </mxCell>
        <mxCell id="vbeuC_v3QueVd4-8y7Fi-11" value="" style="endArrow=none;dashed=1;html=1;rounded=0;" edge="1" parent="1">
          <mxGeometry width="50" height="50" relative="1" as="geometry">
            <mxPoint x="280" y="582.5" as="sourcePoint" />
            <mxPoint x="280" y="142.5" as="targetPoint" />
          </mxGeometry>
        </mxCell>
        <mxCell id="vbeuC_v3QueVd4-8y7Fi-12" value="外部网络访问" style="text;html=1;strokeColor=none;fillColor=none;align=center;verticalAlign=middle;whiteSpace=wrap;rounded=0;fontStyle=1;fontSize=16;" vertex="1" parent="1">
          <mxGeometry x="142.67000000000002" y="485" width="105.44" height="30" as="geometry" />
        </mxCell>
        <mxCell id="vbeuC_v3QueVd4-8y7Fi-13" value="内部网络部署" style="text;html=1;strokeColor=none;fillColor=none;align=center;verticalAlign=middle;whiteSpace=wrap;rounded=0;fontStyle=1;fontSize=16;" vertex="1" parent="1">
          <mxGeometry x="370" y="480" width="114" height="40" as="geometry" />
        </mxCell>
        <mxCell id="vbeuC_v3QueVd4-8y7Fi-28" style="edgeStyle=orthogonalEdgeStyle;rounded=0;orthogonalLoop=1;jettySize=auto;html=1;exitX=0.25;exitY=0;exitDx=0;exitDy=0;entryX=0;entryY=0.25;entryDx=0;entryDy=0;" edge="1" parent="1" source="vbeuC_v3QueVd4-8y7Fi-14" target="vbeuC_v3QueVd4-8y7Fi-20">
          <mxGeometry relative="1" as="geometry" />
        </mxCell>
        <mxCell id="vbeuC_v3QueVd4-8y7Fi-31" value="注册服务" style="edgeLabel;html=1;align=center;verticalAlign=middle;resizable=0;points=[];" vertex="1" connectable="0" parent="vbeuC_v3QueVd4-8y7Fi-28">
          <mxGeometry x="0.2351" y="-1" relative="1" as="geometry">
            <mxPoint as="offset" />
          </mxGeometry>
        </mxCell>
        <mxCell id="vbeuC_v3QueVd4-8y7Fi-14" value="" style="rounded=1;whiteSpace=wrap;html=1;" vertex="1" parent="1">
          <mxGeometry x="320" y="270" width="220" height="180" as="geometry" />
        </mxCell>
        <mxCell id="vbeuC_v3QueVd4-8y7Fi-15" value="SpringCloud&lt;br&gt;Gateway" style="sketch=0;outlineConnect=0;fontColor=#232F3E;gradientColor=none;strokeColor=#232F3E;fillColor=#ffffff;dashed=0;verticalLabelPosition=bottom;verticalAlign=top;align=center;html=1;fontSize=12;fontStyle=0;aspect=fixed;shape=mxgraph.aws4.resourceIcon;resIcon=mxgraph.aws4.nat_gateway;" vertex="1" parent="1">
          <mxGeometry x="470" y="280" width="60" height="60" as="geometry" />
        </mxCell>
        <mxCell id="vbeuC_v3QueVd4-8y7Fi-16" value="SpringCloud&lt;br&gt;Gateway" style="sketch=0;outlineConnect=0;fontColor=#232F3E;gradientColor=none;strokeColor=#232F3E;fillColor=#ffffff;dashed=0;verticalLabelPosition=bottom;verticalAlign=top;align=center;html=1;fontSize=12;fontStyle=0;aspect=fixed;shape=mxgraph.aws4.resourceIcon;resIcon=mxgraph.aws4.nat_gateway;" vertex="1" parent="1">
          <mxGeometry x="400" y="280" width="60" height="60" as="geometry" />
        </mxCell>
        <mxCell id="vbeuC_v3QueVd4-8y7Fi-17" value="SpringCloud&lt;br&gt;Gateway" style="sketch=0;outlineConnect=0;fontColor=#232F3E;gradientColor=none;strokeColor=#232F3E;fillColor=#ffffff;dashed=0;verticalLabelPosition=bottom;verticalAlign=top;align=center;html=1;fontSize=12;fontStyle=0;aspect=fixed;shape=mxgraph.aws4.resourceIcon;resIcon=mxgraph.aws4.nat_gateway;" vertex="1" parent="1">
          <mxGeometry x="330" y="280" width="60" height="60" as="geometry" />
        </mxCell>
        <mxCell id="vbeuC_v3QueVd4-8y7Fi-19" value="Sa - Token" style="sketch=0;outlineConnect=0;fontColor=#232F3E;gradientColor=none;strokeColor=#232F3E;fillColor=#ffffff;dashed=0;verticalLabelPosition=bottom;verticalAlign=top;align=center;html=1;fontSize=12;fontStyle=0;aspect=fixed;shape=mxgraph.aws4.resourceIcon;resIcon=mxgraph.aws4.saml_token;" vertex="1" parent="1">
          <mxGeometry x="410" y="380" width="40" height="40" as="geometry" />
        </mxCell>
        <mxCell id="vbeuC_v3QueVd4-8y7Fi-30" style="edgeStyle=orthogonalEdgeStyle;rounded=0;orthogonalLoop=1;jettySize=auto;html=1;exitX=0;exitY=0.5;exitDx=0;exitDy=0;entryX=0.39;entryY=-0.019;entryDx=0;entryDy=0;entryPerimeter=0;" edge="1" parent="1" source="vbeuC_v3QueVd4-8y7Fi-20" target="vbeuC_v3QueVd4-8y7Fi-14">
          <mxGeometry relative="1" as="geometry" />
        </mxCell>
        <mxCell id="vbeuC_v3QueVd4-8y7Fi-32" value="获取服务列表" style="edgeLabel;html=1;align=center;verticalAlign=middle;resizable=0;points=[];" vertex="1" connectable="0" parent="vbeuC_v3QueVd4-8y7Fi-30">
          <mxGeometry x="-0.2318" relative="1" as="geometry">
            <mxPoint x="8" as="offset" />
          </mxGeometry>
        </mxCell>
        <mxCell id="vbeuC_v3QueVd4-8y7Fi-46" style="edgeStyle=orthogonalEdgeStyle;rounded=0;orthogonalLoop=1;jettySize=auto;html=1;exitX=1;exitY=0.75;exitDx=0;exitDy=0;entryX=0.348;entryY=-0.012;entryDx=0;entryDy=0;entryPerimeter=0;" edge="1" parent="1" source="vbeuC_v3QueVd4-8y7Fi-20" target="vbeuC_v3QueVd4-8y7Fi-33">
          <mxGeometry relative="1" as="geometry" />
        </mxCell>
        <mxCell id="vbeuC_v3QueVd4-8y7Fi-47" value="获取服务列表" style="edgeLabel;html=1;align=center;verticalAlign=middle;resizable=0;points=[];" vertex="1" connectable="0" parent="vbeuC_v3QueVd4-8y7Fi-46">
          <mxGeometry x="-0.3519" relative="1" as="geometry">
            <mxPoint x="9" as="offset" />
          </mxGeometry>
        </mxCell>
        <mxCell id="vbeuC_v3QueVd4-8y7Fi-48" style="edgeStyle=orthogonalEdgeStyle;rounded=0;orthogonalLoop=1;jettySize=auto;html=1;exitX=1;exitY=0.5;exitDx=0;exitDy=0;entryX=0.5;entryY=0;entryDx=0;entryDy=0;" edge="1" parent="1" source="vbeuC_v3QueVd4-8y7Fi-20" target="vbeuC_v3QueVd4-8y7Fi-33">
          <mxGeometry relative="1" as="geometry" />
        </mxCell>
        <mxCell id="vbeuC_v3QueVd4-8y7Fi-49" value="获取配置信息" style="edgeLabel;html=1;align=center;verticalAlign=middle;resizable=0;points=[];" vertex="1" connectable="0" parent="vbeuC_v3QueVd4-8y7Fi-48">
          <mxGeometry x="-0.625" y="1" relative="1" as="geometry">
            <mxPoint x="13" y="1" as="offset" />
          </mxGeometry>
        </mxCell>
        <mxCell id="vbeuC_v3QueVd4-8y7Fi-20" value="" style="rounded=1;whiteSpace=wrap;html=1;" vertex="1" parent="1">
          <mxGeometry x="510" y="140" width="190" height="110" as="geometry" />
        </mxCell>
        <mxCell id="vbeuC_v3QueVd4-8y7Fi-21" value="" style="shape=image;verticalLabelPosition=bottom;labelBackgroundColor=default;verticalAlign=top;aspect=fixed;imageAspect=0;image=https://nacos.io/img/nacos_colorful.png;" vertex="1" parent="1">
          <mxGeometry x="553.5" y="150" width="103" height="20" as="geometry" />
        </mxCell>
        <mxCell id="vbeuC_v3QueVd4-8y7Fi-22" value="" style="shape=image;verticalLabelPosition=bottom;labelBackgroundColor=default;verticalAlign=top;aspect=fixed;imageAspect=0;image=https://nacos.io/img/nacos_colorful.png;" vertex="1" parent="1">
          <mxGeometry x="553.5" y="220" width="103" height="20" as="geometry" />
        </mxCell>
        <mxCell id="vbeuC_v3QueVd4-8y7Fi-23" value="" style="endArrow=classic;startArrow=classic;html=1;rounded=0;entryX=0.5;entryY=1;entryDx=0;entryDy=0;exitX=0.5;exitY=0;exitDx=0;exitDy=0;" edge="1" parent="1" source="vbeuC_v3QueVd4-8y7Fi-22" target="vbeuC_v3QueVd4-8y7Fi-21">
          <mxGeometry width="50" height="50" relative="1" as="geometry">
            <mxPoint x="570" y="230" as="sourcePoint" />
            <mxPoint x="620" y="180" as="targetPoint" />
          </mxGeometry>
        </mxCell>
        <mxCell id="vbeuC_v3QueVd4-8y7Fi-24" value="注册" style="text;html=1;strokeColor=none;fillColor=none;align=center;verticalAlign=middle;whiteSpace=wrap;rounded=0;" vertex="1" parent="1">
          <mxGeometry x="530" y="180" width="60" height="30" as="geometry" />
        </mxCell>
        <mxCell id="vbeuC_v3QueVd4-8y7Fi-25" value="配置" style="text;html=1;strokeColor=none;fillColor=none;align=center;verticalAlign=middle;whiteSpace=wrap;rounded=0;" vertex="1" parent="1">
          <mxGeometry x="620" y="180" width="60" height="30" as="geometry" />
        </mxCell>
        <mxCell id="vbeuC_v3QueVd4-8y7Fi-26" value="API路由网关统一认证" style="text;html=1;strokeColor=none;fillColor=none;align=center;verticalAlign=middle;whiteSpace=wrap;rounded=0;" vertex="1" parent="1">
          <mxGeometry x="430" y="240" width="80" height="30" as="geometry" />
        </mxCell>
        <mxCell id="vbeuC_v3QueVd4-8y7Fi-27" value="服务注册、配置中心&lt;br&gt;集群" style="text;html=1;strokeColor=none;fillColor=none;align=center;verticalAlign=middle;whiteSpace=wrap;rounded=0;" vertex="1" parent="1">
          <mxGeometry x="580" y="110" width="110" height="30" as="geometry" />
        </mxCell>
        <mxCell id="vbeuC_v3QueVd4-8y7Fi-51" style="edgeStyle=orthogonalEdgeStyle;rounded=0;orthogonalLoop=1;jettySize=auto;html=1;exitX=0.75;exitY=0;exitDx=0;exitDy=0;entryX=1;entryY=0.25;entryDx=0;entryDy=0;" edge="1" parent="1" source="vbeuC_v3QueVd4-8y7Fi-33" target="vbeuC_v3QueVd4-8y7Fi-20">
          <mxGeometry relative="1" as="geometry" />
        </mxCell>
        <mxCell id="vbeuC_v3QueVd4-8y7Fi-52" value="服务注册" style="edgeLabel;html=1;align=center;verticalAlign=middle;resizable=0;points=[];" vertex="1" connectable="0" parent="vbeuC_v3QueVd4-8y7Fi-51">
          <mxGeometry x="0.1111" y="-2" relative="1" as="geometry">
            <mxPoint as="offset" />
          </mxGeometry>
        </mxCell>
        <mxCell id="vbeuC_v3QueVd4-8y7Fi-76" style="edgeStyle=orthogonalEdgeStyle;rounded=0;orthogonalLoop=1;jettySize=auto;html=1;exitX=0.5;exitY=1;exitDx=0;exitDy=0;entryX=0.5;entryY=0;entryDx=0;entryDy=0;fontSize=16;" edge="1" parent="1" source="vbeuC_v3QueVd4-8y7Fi-33" target="vbeuC_v3QueVd4-8y7Fi-57">
          <mxGeometry relative="1" as="geometry" />
        </mxCell>
        <mxCell id="vbeuC_v3QueVd4-8y7Fi-77" style="edgeStyle=orthogonalEdgeStyle;rounded=0;orthogonalLoop=1;jettySize=auto;html=1;exitX=0.5;exitY=1;exitDx=0;exitDy=0;entryX=0.5;entryY=0;entryDx=0;entryDy=0;fontSize=16;" edge="1" parent="1" source="vbeuC_v3QueVd4-8y7Fi-33" target="vbeuC_v3QueVd4-8y7Fi-67">
          <mxGeometry relative="1" as="geometry" />
        </mxCell>
        <mxCell id="vbeuC_v3QueVd4-8y7Fi-80" style="edgeStyle=orthogonalEdgeStyle;rounded=0;orthogonalLoop=1;jettySize=auto;html=1;exitX=1;exitY=0.5;exitDx=0;exitDy=0;fontSize=16;" edge="1" parent="1" source="vbeuC_v3QueVd4-8y7Fi-33">
          <mxGeometry relative="1" as="geometry">
            <mxPoint x="1080" y="350" as="targetPoint" />
          </mxGeometry>
        </mxCell>
        <mxCell id="vbeuC_v3QueVd4-8y7Fi-33" value="" style="rounded=1;whiteSpace=wrap;html=1;" vertex="1" parent="1">
          <mxGeometry x="700" y="250" width="290" height="200" as="geometry" />
        </mxCell>
        <mxCell id="vbeuC_v3QueVd4-8y7Fi-44" style="edgeStyle=orthogonalEdgeStyle;rounded=0;orthogonalLoop=1;jettySize=auto;html=1;exitX=1;exitY=0.5;exitDx=0;exitDy=0;" edge="1" parent="1" source="vbeuC_v3QueVd4-8y7Fi-40" target="vbeuC_v3QueVd4-8y7Fi-41">
          <mxGeometry relative="1" as="geometry" />
        </mxCell>
        <mxCell id="vbeuC_v3QueVd4-8y7Fi-40" value="" style="rounded=0;whiteSpace=wrap;html=1;" vertex="1" parent="1">
          <mxGeometry x="735" y="280" width="100" height="160" as="geometry" />
        </mxCell>
        <mxCell id="vbeuC_v3QueVd4-8y7Fi-35" value="" style="html=1;verticalLabelPosition=bottom;align=center;labelBackgroundColor=#ffffff;verticalAlign=top;strokeWidth=2;strokeColor=#0080F0;shadow=0;dashed=0;shape=mxgraph.ios7.icons.cloud;" vertex="1" parent="1">
          <mxGeometry x="750" y="335" width="70" height="40" as="geometry" />
        </mxCell>
        <mxCell id="vbeuC_v3QueVd4-8y7Fi-36" value="" style="html=1;verticalLabelPosition=bottom;align=center;labelBackgroundColor=#ffffff;verticalAlign=top;strokeWidth=2;strokeColor=#0080F0;shadow=0;dashed=0;shape=mxgraph.ios7.icons.cloud;" vertex="1" parent="1">
          <mxGeometry x="750" y="390" width="70" height="40" as="geometry" />
        </mxCell>
        <mxCell id="vbeuC_v3QueVd4-8y7Fi-41" value="" style="rounded=0;whiteSpace=wrap;html=1;" vertex="1" parent="1">
          <mxGeometry x="855" y="280" width="100" height="160" as="geometry" />
        </mxCell>
        <mxCell id="vbeuC_v3QueVd4-8y7Fi-37" value="" style="html=1;verticalLabelPosition=bottom;align=center;labelBackgroundColor=#ffffff;verticalAlign=top;strokeWidth=2;strokeColor=#0080F0;shadow=0;dashed=0;shape=mxgraph.ios7.icons.cloud;" vertex="1" parent="1">
          <mxGeometry x="870" y="290" width="70" height="40" as="geometry" />
        </mxCell>
        <mxCell id="vbeuC_v3QueVd4-8y7Fi-38" value="" style="html=1;verticalLabelPosition=bottom;align=center;labelBackgroundColor=#ffffff;verticalAlign=top;strokeWidth=2;strokeColor=#0080F0;shadow=0;dashed=0;shape=mxgraph.ios7.icons.cloud;" vertex="1" parent="1">
          <mxGeometry x="870" y="335" width="70" height="40" as="geometry" />
        </mxCell>
        <mxCell id="vbeuC_v3QueVd4-8y7Fi-39" value="" style="html=1;verticalLabelPosition=bottom;align=center;labelBackgroundColor=#ffffff;verticalAlign=top;strokeWidth=2;strokeColor=#0080F0;shadow=0;dashed=0;shape=mxgraph.ios7.icons.cloud;" vertex="1" parent="1">
          <mxGeometry x="870" y="390" width="70" height="40" as="geometry" />
        </mxCell>
        <mxCell id="vbeuC_v3QueVd4-8y7Fi-34" value="" style="html=1;verticalLabelPosition=bottom;align=center;labelBackgroundColor=#ffffff;verticalAlign=top;strokeWidth=2;strokeColor=#0080F0;shadow=0;dashed=0;shape=mxgraph.ios7.icons.cloud;" vertex="1" parent="1">
          <mxGeometry x="750" y="290" width="70" height="40" as="geometry" />
        </mxCell>
        <mxCell id="vbeuC_v3QueVd4-8y7Fi-42" value="A1服务集群" style="text;html=1;strokeColor=none;fillColor=none;align=center;verticalAlign=middle;whiteSpace=wrap;rounded=0;" vertex="1" parent="1">
          <mxGeometry x="710" y="290" width="20" height="140" as="geometry" />
        </mxCell>
        <mxCell id="vbeuC_v3QueVd4-8y7Fi-43" value="A2服务集群" style="text;html=1;strokeColor=none;fillColor=none;align=center;verticalAlign=middle;whiteSpace=wrap;rounded=0;" vertex="1" parent="1">
          <mxGeometry x="960" y="285" width="20" height="140" as="geometry" />
        </mxCell>
        <mxCell id="vbeuC_v3QueVd4-8y7Fi-45" value="Open Feign 服务调用" style="text;html=1;strokeColor=none;fillColor=none;align=center;verticalAlign=middle;whiteSpace=wrap;rounded=0;" vertex="1" parent="1">
          <mxGeometry x="780" y="255" width="135" height="20" as="geometry" />
        </mxCell>
        <mxCell id="vbeuC_v3QueVd4-8y7Fi-57" value="" style="rounded=1;whiteSpace=wrap;html=1;" vertex="1" parent="1">
          <mxGeometry x="560" y="510" width="220" height="90" as="geometry" />
        </mxCell>
        <mxCell id="vbeuC_v3QueVd4-8y7Fi-58" value="" style="sketch=0;aspect=fixed;html=1;points=[];align=center;image;fontSize=12;image=img/lib/mscae/Cache_Redis_Product.svg;" vertex="1" parent="1">
          <mxGeometry x="580" y="519" width="50" height="42" as="geometry" />
        </mxCell>
        <mxCell id="vbeuC_v3QueVd4-8y7Fi-59" value="" style="sketch=0;aspect=fixed;html=1;points=[];align=center;image;fontSize=12;image=img/lib/mscae/Cache_Redis_Product.svg;" vertex="1" parent="1">
          <mxGeometry x="650" y="520" width="50" height="42" as="geometry" />
        </mxCell>
        <mxCell id="vbeuC_v3QueVd4-8y7Fi-60" value="" style="sketch=0;aspect=fixed;html=1;points=[];align=center;image;fontSize=12;image=img/lib/mscae/Cache_Redis_Product.svg;" vertex="1" parent="1">
          <mxGeometry x="720" y="520" width="50" height="42" as="geometry" />
        </mxCell>
        <mxCell id="vbeuC_v3QueVd4-8y7Fi-61" value="Redis 服务集群" style="edgeLabel;html=1;align=center;verticalAlign=middle;resizable=0;points=[];" vertex="1" connectable="0" parent="1">
          <mxGeometry x="670" y="585" as="geometry">
            <mxPoint x="-6" y="-4" as="offset" />
          </mxGeometry>
        </mxCell>
        <mxCell id="vbeuC_v3QueVd4-8y7Fi-67" value="" style="rounded=1;whiteSpace=wrap;html=1;" vertex="1" parent="1">
          <mxGeometry x="890" y="510" width="220" height="90" as="geometry" />
        </mxCell>
        <mxCell id="vbeuC_v3QueVd4-8y7Fi-71" value="MySQL 服务集群" style="edgeLabel;html=1;align=center;verticalAlign=middle;resizable=0;points=[];" vertex="1" connectable="0" parent="1">
          <mxGeometry x="1003" y="585" as="geometry">
            <mxPoint x="-6" y="-4" as="offset" />
          </mxGeometry>
        </mxCell>
        <mxCell id="vbeuC_v3QueVd4-8y7Fi-72" value="" style="verticalLabelPosition=bottom;html=1;verticalAlign=top;align=center;strokeColor=none;fillColor=#00BEF2;shape=mxgraph.azure.mysql_database;fontSize=16;" vertex="1" parent="1">
          <mxGeometry x="918" y="516" width="37.5" height="50" as="geometry" />
        </mxCell>
        <mxCell id="vbeuC_v3QueVd4-8y7Fi-73" value="" style="verticalLabelPosition=bottom;html=1;verticalAlign=top;align=center;strokeColor=none;fillColor=#00BEF2;shape=mxgraph.azure.mysql_database;fontSize=16;" vertex="1" parent="1">
          <mxGeometry x="978" y="516" width="37.5" height="50" as="geometry" />
        </mxCell>
        <mxCell id="vbeuC_v3QueVd4-8y7Fi-75" value="" style="verticalLabelPosition=bottom;html=1;verticalAlign=top;align=center;strokeColor=none;fillColor=#00BEF2;shape=mxgraph.azure.mysql_database;fontSize=16;" vertex="1" parent="1">
          <mxGeometry x="1043" y="515" width="37.5" height="50" as="geometry" />
        </mxCell>
        <mxCell id="vbeuC_v3QueVd4-8y7Fi-79" value="" style="verticalLabelPosition=bottom;html=1;verticalAlign=top;align=center;strokeColor=none;fillColor=#00BEF2;shape=mxgraph.azure.cloud_service_package_file;fontSize=16;" vertex="1" parent="1">
          <mxGeometry x="1080.5" y="300" width="85" height="100" as="geometry" />
        </mxCell>
        <mxCell id="vbeuC_v3QueVd4-8y7Fi-81" value="腾讯云&lt;br&gt;COS&lt;br&gt;对象存储" style="text;html=1;strokeColor=none;fillColor=none;align=center;verticalAlign=middle;whiteSpace=wrap;rounded=0;" vertex="1" parent="1">
          <mxGeometry x="978" y="310" width="110" height="30" as="geometry" />
        </mxCell>
      </root>
    </mxGraphModel>
  </diagram>
</mxfile>
